{"glyphs":{"0":{"ha":842,"x_min":49,"x_max":793,"o":"m 556 422 q 520 611 556 544 q 419 678 485 678 q 320 611 354 678 q 286 422 286 544 q 320 233 286 300 q 419 165 354 165 q 520 233 485 165 q 556 422 556 300 m 793 422 q 765 232 793 315 q 688 92 738 149 q 570 7 639 36 q 421 -22 501 -22 q 270 7 339 -22 q 152 92 201 36 q 76 232 103 149 q 49 422 49 315 q 76 612 49 529 q 152 751 103 694 q 270 836 201 807 q 421 865 339 865 q 570 836 501 865 q 688 751 639 807 q 765 612 738 694 q 793 422 793 529 z "},"1":{"ha":546,"x_min":14,"x_max":451,"o":"m 215 619 l 76 576 q 35 615 56 590 q 14 685 14 640 q 115 801 14 768 l 271 854 l 322 854 q 417 819 382 854 q 451 725 451 785 l 451 1 q 406 -6 436 -1 q 346 -11 376 -11 q 291 -7 315 -11 q 250 10 267 -3 q 224 44 233 22 q 215 100 215 65 l 215 619 z "},"2":{"ha":725,"x_min":49,"x_max":676,"o":"m 335 865 q 475 845 414 865 q 579 790 536 825 q 644 708 622 756 q 667 607 667 661 q 501 329 667 461 l 319 183 l 653 183 q 669 144 661 168 q 676 93 676 121 q 654 22 676 43 q 596 0 632 0 l 114 0 q 66 53 83 21 q 49 131 49 86 q 68 210 49 178 q 111 263 88 243 l 303 426 q 363 481 339 457 q 401 525 386 506 q 422 561 415 544 q 428 593 428 578 q 394 654 428 632 q 310 676 360 676 q 210 659 254 676 q 138 622 167 642 q 99 664 114 639 q 83 722 83 689 q 151 830 83 794 q 335 865 219 865 z "},"3":{"ha":719,"x_min":35,"x_max":671,"o":"m 324 865 q 567 799 483 865 q 650 622 650 733 q 615 509 650 556 q 531 439 579 463 q 585 411 560 428 q 629 369 610 394 q 660 311 649 344 q 671 233 671 278 q 645 126 671 174 q 574 46 619 79 q 465 -5 528 13 q 326 -22 401 -22 q 108 18 182 -22 q 35 121 35 58 q 53 185 35 158 q 97 228 71 213 q 172 187 125 208 q 293 165 218 165 q 398 190 364 165 q 432 256 432 215 q 405 317 432 296 q 311 338 378 338 l 181 338 q 164 375 171 353 q 157 428 157 397 q 163 483 157 460 q 181 521 169 506 l 311 521 q 411 597 411 521 q 379 656 411 633 q 283 678 347 678 q 183 665 226 678 q 113 632 140 651 q 74 673 89 649 q 58 731 58 697 q 131 833 58 800 q 324 865 203 865 z "},"4":{"ha":842,"x_min":29,"x_max":835,"o":"m 397 835 q 458 849 424 843 q 519 854 492 854 q 581 848 551 854 q 635 827 611 842 q 672 788 658 813 q 686 725 686 763 l 686 356 l 810 356 q 826 315 818 340 q 835 263 835 290 q 811 188 835 210 q 751 165 788 165 l 686 165 l 686 1 q 640 -6 671 -1 q 582 -11 610 -11 q 528 -8 551 -11 q 488 5 504 -6 q 464 35 472 15 q 456 88 456 54 l 456 165 l 107 165 q 52 215 75 182 q 29 294 29 247 q 36 353 29 321 q 60 408 43 385 l 397 835 m 468 617 l 464 617 l 279 356 l 468 356 l 468 617 z "},"5":{"ha":725,"x_min":63,"x_max":690,"o":"m 347 -22 q 231 -12 283 -22 q 142 17 179 -3 q 83 65 104 36 q 63 131 63 93 q 85 196 63 169 q 135 238 107 222 q 218 187 174 208 q 331 165 263 165 q 424 194 396 165 q 451 265 451 224 q 427 332 451 306 q 343 358 403 358 q 281 350 306 358 q 224 326 256 342 q 116 363 156 329 q 76 468 76 397 q 76 478 76 472 q 78 504 76 485 l 94 715 q 132 810 99 775 q 225 844 165 844 l 625 844 q 642 804 633 829 q 650 751 650 779 q 626 676 650 699 q 567 654 603 654 l 300 654 l 290 524 q 344 536 317 531 q 413 542 371 542 q 538 520 485 542 q 624 461 590 499 q 674 374 658 424 q 690 267 690 324 q 671 157 690 210 q 610 65 651 104 q 503 1 568 25 q 347 -22 439 -22 z "},"6":{"ha":775,"x_min":49,"x_max":731,"o":"m 671 742 q 658 685 671 713 q 626 644 644 658 q 548 670 589 661 q 472 679 507 679 q 344 635 389 679 q 283 510 299 592 q 357 545 311 529 q 451 561 403 561 q 655 488 579 561 q 731 276 731 414 q 710 163 731 217 q 647 67 689 108 q 544 2 606 26 q 400 -22 482 -22 q 142 88 236 -22 q 49 400 49 197 q 77 603 49 515 q 158 749 106 690 q 282 836 210 807 q 442 865 354 865 q 612 835 553 865 q 671 742 671 804 m 399 381 q 342 369 372 381 q 294 339 313 358 l 294 304 q 326 197 294 229 q 401 165 357 165 q 470 196 447 165 q 493 275 493 226 q 469 352 493 324 q 399 381 444 381 z "},"7":{"ha":669,"x_min":28,"x_max":656,"o":"m 594 844 q 637 802 618 829 q 656 735 656 775 q 651 690 656 713 q 638 644 647 667 l 349 -10 q 312 -11 329 -11 q 279 -11 294 -11 q 178 13 217 -11 q 139 94 139 36 q 153 158 139 124 q 190 239 167 192 l 393 654 l 53 654 q 36 694 44 669 q 28 747 28 719 q 51 822 28 800 q 111 844 75 844 l 594 844 z "},"8":{"ha":778,"x_min":50,"x_max":728,"o":"m 69 617 q 93 718 69 672 q 158 797 117 764 q 258 849 200 831 q 386 867 317 867 q 514 850 456 867 q 614 803 572 833 q 679 728 656 772 q 703 628 703 683 q 678 521 703 567 q 608 444 653 475 q 694 359 661 408 q 728 226 728 310 q 704 125 728 171 q 636 46 681 79 q 529 -6 592 13 q 389 -24 467 -24 q 249 -6 311 -24 q 142 46 186 13 q 74 125 99 79 q 50 226 50 171 q 83 351 50 301 q 160 429 115 401 q 96 502 122 460 q 69 617 69 544 m 288 247 q 316 179 288 204 q 389 154 344 154 q 462 180 433 154 q 490 247 490 206 q 466 315 490 288 q 400 357 442 342 q 313 315 339 343 q 288 247 288 286 m 471 608 q 449 668 471 646 q 386 690 426 690 q 324 668 346 690 q 301 610 301 646 q 324 551 301 574 q 378 515 347 529 q 449 551 426 526 q 471 608 471 576 z "},"9":{"ha":775,"x_min":44,"x_max":726,"o":"m 294 164 q 437 210 383 164 q 490 336 490 256 q 434 307 475 324 q 329 290 393 290 q 213 308 265 290 q 124 362 161 326 q 65 449 86 397 q 44 568 44 500 q 65 681 44 628 q 128 776 86 735 q 231 841 169 817 q 375 865 293 865 q 633 756 539 865 q 726 443 726 646 q 697 240 726 328 q 616 94 668 153 q 492 7 564 36 q 332 -22 419 -22 q 158 8 221 -22 q 96 101 96 39 q 109 158 96 131 q 140 199 122 185 q 219 173 178 182 q 294 164 260 164 m 383 468 q 437 479 410 468 q 482 510 464 490 l 482 526 q 454 642 481 606 q 376 678 428 678 q 305 649 331 678 q 279 572 279 621 q 308 497 279 525 q 383 468 338 468 z "},"\u0000":{"ha":0,"x_min":0,"x_max":0,"o":""},"\r":{"ha":310,"x_min":0,"x_max":0,"o":""}," ":{"ha":278,"x_min":0,"x_max":0,"o":""},"!":{"ha":414,"x_min":74,"x_max":340,"o":"m 329 806 q 328 713 329 774 q 322 583 326 653 q 311 442 318 513 q 294 321 304 372 q 278 313 289 317 q 254 306 267 308 q 229 301 242 303 q 207 300 217 300 q 140 313 167 300 q 106 361 113 325 q 94 458 99 393 q 85 600 89 524 q 78 751 81 676 q 76 879 76 826 q 140 903 104 894 q 210 913 175 913 q 298 886 267 913 q 329 806 329 860 m 74 106 q 109 199 74 163 q 207 236 144 236 q 305 199 269 236 q 340 106 340 163 q 305 12 340 49 q 207 -25 269 -25 q 109 12 144 -25 q 74 106 74 49 z "},"\"":{"ha":569,"x_min":35,"x_max":531,"o":"m 219 561 q 183 550 204 553 q 139 547 163 547 q 80 560 104 547 q 53 608 56 574 l 35 885 q 146 918 76 918 q 223 900 194 918 q 251 835 251 882 q 249 781 251 815 q 241 706 246 746 q 231 628 236 667 q 219 561 225 589 m 499 561 q 463 550 483 553 q 418 547 442 547 q 359 560 383 547 q 332 608 335 574 l 314 885 q 425 918 356 918 q 502 900 474 918 q 531 835 531 882 q 528 781 531 815 q 520 706 525 746 q 510 628 515 667 q 499 561 504 589 z "},"#":{"ha":992,"x_min":42,"x_max":950,"o":"m 672 1 q 637 -2 653 -1 q 606 -3 621 -3 q 519 19 547 -3 q 492 92 492 42 q 500 164 492 124 l 503 179 l 378 179 l 339 1 q 303 -2 319 -1 q 272 -3 288 -3 q 186 19 214 -3 q 158 92 158 42 q 167 164 158 124 l 169 179 l 65 179 q 50 217 58 194 q 42 264 42 240 q 65 334 42 313 q 121 356 88 356 l 208 356 l 239 496 l 103 496 q 88 534 96 511 q 79 581 79 557 q 102 651 79 629 q 158 672 125 672 l 278 672 l 318 851 q 354 854 338 854 q 386 854 371 854 q 473 833 444 854 q 501 761 501 811 q 499 726 501 746 q 492 688 496 707 l 488 672 l 611 672 l 651 851 q 688 854 671 854 q 719 854 704 854 q 806 833 778 854 q 835 761 835 811 q 832 726 835 746 q 825 688 829 707 l 821 672 l 925 672 q 942 635 935 658 q 950 586 950 611 q 927 517 950 538 q 872 496 904 496 l 782 496 l 751 356 l 888 356 q 905 318 897 342 q 913 269 913 294 q 890 200 913 221 q 835 179 867 179 l 711 179 l 672 1 m 418 356 l 542 356 l 572 496 l 449 496 l 418 356 z "},"$":{"ha":721,"x_min":61,"x_max":729,"o":"m 335 335 q 224 377 274 356 q 138 429 174 399 q 81 502 101 460 q 61 606 61 544 q 119 765 61 700 q 286 853 178 829 l 286 965 q 325 972 299 968 q 379 976 351 976 q 464 958 433 976 q 494 878 494 939 l 494 860 q 633 815 581 849 q 685 724 685 782 q 668 662 685 688 q 628 618 651 636 q 546 652 597 638 q 433 667 494 667 q 342 649 371 667 q 313 606 313 632 q 331 572 313 585 q 385 547 349 558 l 458 524 q 659 417 589 482 q 729 242 729 353 q 669 81 729 147 q 494 -8 610 15 l 494 -119 q 456 -126 482 -122 q 401 -131 429 -131 q 317 -112 347 -131 q 286 -32 286 -93 l 286 -18 q 195 0 236 -12 q 124 32 154 13 q 78 78 94 51 q 61 138 61 104 q 85 206 61 178 q 136 250 108 235 q 231 197 175 219 q 354 175 288 175 q 450 196 422 175 q 478 244 478 217 q 456 287 478 272 q 393 315 433 301 l 335 335 z "},"%":{"ha":1110,"x_min":40,"x_max":1069,"o":"m 747 857 q 831 831 794 850 q 871 781 868 813 q 860 735 871 758 q 831 686 849 711 l 350 -10 q 276 16 306 -3 q 243 67 246 35 q 247 110 243 89 q 268 160 250 132 l 747 857 m 488 636 q 425 474 488 532 q 264 415 363 415 q 102 474 164 415 q 40 636 40 532 q 102 797 40 739 q 264 856 164 856 q 425 797 363 856 q 488 636 488 739 m 208 636 q 224 574 208 594 q 264 554 240 554 q 303 574 288 554 q 319 636 319 594 q 303 696 319 676 q 264 715 288 715 q 224 696 240 715 q 208 636 208 676 m 1069 210 q 1007 47 1069 106 q 846 -11 944 -11 q 684 47 746 -11 q 622 210 622 106 q 684 371 622 313 q 846 429 746 429 q 1007 371 944 429 q 1069 210 1069 313 m 790 210 q 806 148 790 168 q 846 128 822 128 q 885 148 869 128 q 901 210 901 168 q 885 269 901 250 q 846 289 869 289 q 806 269 822 289 q 790 210 790 250 z "},"&":{"ha":935,"x_min":50,"x_max":901,"o":"m 649 525 q 698 541 675 536 q 744 546 721 546 q 799 536 778 546 q 831 509 819 526 q 847 468 843 492 q 851 417 851 444 q 794 203 851 304 l 901 100 q 865 14 899 47 q 786 -19 832 -19 q 678 33 731 -19 l 651 58 q 534 -1 600 21 q 388 -22 468 -22 q 243 -1 306 -22 q 138 58 181 21 q 72 147 94 96 q 50 257 50 197 q 65 349 50 308 q 106 419 81 389 q 161 472 131 450 q 224 507 192 493 q 184 578 196 540 q 172 649 172 615 q 190 729 172 692 q 242 794 208 767 q 323 838 275 822 q 432 853 371 853 q 556 822 519 853 q 592 742 592 790 q 583 696 592 718 q 556 656 574 674 q 520 667 540 663 q 478 671 500 671 q 418 660 442 671 q 394 619 394 649 q 413 577 394 599 q 457 529 431 556 l 635 357 q 645 429 642 388 q 649 525 649 471 m 272 272 q 305 191 272 224 q 401 158 338 158 q 460 166 429 158 q 518 192 490 174 l 340 371 q 290 329 307 356 q 272 272 272 303 z "},"'":{"ha":304,"x_min":35,"x_max":265,"o":"m 233 567 q 196 553 218 558 q 146 547 174 547 q 82 563 108 547 q 53 614 56 579 l 35 879 q 85 906 54 894 q 153 918 115 918 q 235 897 206 918 q 265 829 265 876 q 263 776 265 810 q 255 706 260 743 q 244 631 250 668 q 233 567 239 594 z "},"(":{"ha":424,"x_min":58,"x_max":421,"o":"m 58 369 q 84 625 58 515 q 150 810 110 735 q 215 893 176 858 q 310 928 253 928 q 376 907 347 928 q 421 863 406 886 q 362 759 388 813 q 319 646 336 706 q 292 518 301 586 q 283 369 283 450 q 292 221 283 289 q 319 93 301 153 q 362 -20 336 33 q 421 -124 388 -74 q 376 -168 406 -147 q 310 -189 347 -189 q 215 -154 253 -189 q 150 -71 176 -119 q 84 114 110 4 q 58 369 58 224 z "},")":{"ha":424,"x_min":3,"x_max":365,"o":"m 365 369 q 340 114 365 224 q 274 -71 314 4 q 209 -154 247 -119 q 114 -189 171 -189 q 47 -168 76 -189 q 3 -124 18 -147 q 62 -20 36 -74 q 105 93 88 33 q 131 221 122 153 q 140 369 140 289 q 131 518 140 450 q 105 646 122 586 q 62 759 88 706 q 3 863 36 813 q 47 907 18 886 q 114 928 76 928 q 209 893 171 928 q 274 810 247 858 q 340 625 314 735 q 365 369 365 515 z "},"*":{"ha":488,"x_min":28,"x_max":453,"o":"m 426 551 q 394 501 417 521 q 340 482 372 482 q 290 501 307 482 q 258 546 274 519 l 247 565 l 194 486 q 163 482 178 482 q 93 500 117 482 q 69 550 69 518 q 77 582 69 567 q 100 617 85 597 l 121 643 l 36 667 q 28 718 28 692 q 48 772 28 753 q 104 792 68 792 q 126 789 114 792 q 150 782 138 786 l 171 775 l 171 875 q 201 892 182 882 q 246 901 221 901 q 297 885 278 901 q 317 835 317 868 q 316 807 317 824 q 314 772 315 790 l 396 807 q 436 775 419 796 q 453 725 453 754 q 435 679 453 692 q 388 654 418 667 l 363 643 l 426 551 z "},"+":{"ha":757,"x_min":42,"x_max":715,"o":"m 488 69 q 447 60 476 64 q 389 57 417 57 q 303 76 332 57 q 274 156 274 94 l 274 308 l 64 308 q 48 349 54 324 q 42 399 42 374 q 64 472 42 449 q 124 494 86 494 l 274 494 l 274 728 q 316 737 288 732 q 372 742 344 742 q 458 722 428 742 q 488 640 488 703 l 488 494 l 693 494 q 708 453 700 478 q 715 403 715 429 q 693 331 715 354 q 635 308 671 308 l 488 308 l 488 69 z "},",":{"ha":338,"x_min":-14,"x_max":304,"o":"m 207 -101 q 156 -146 183 -132 q 90 -160 129 -160 q -14 -125 29 -160 q 38 52 17 -39 q 72 217 58 143 q 129 238 96 229 q 196 247 163 247 q 272 228 239 247 q 304 158 304 208 q 296 94 304 129 q 274 23 288 58 q 242 -46 260 -12 q 207 -101 225 -79 z "},"-":{"ha":492,"x_min":42,"x_max":450,"o":"m 68 258 q 50 299 58 274 q 42 351 42 324 q 65 426 42 403 q 126 449 89 449 l 424 449 q 441 408 432 433 q 450 356 450 383 q 426 281 450 304 q 365 258 403 258 l 68 258 z "},".":{"ha":331,"x_min":31,"x_max":300,"o":"m 31 113 q 67 210 31 171 q 165 249 103 249 q 264 210 228 249 q 300 113 300 171 q 264 15 300 54 q 165 -24 228 -24 q 67 15 103 -24 q 31 113 31 54 z "},"/":{"ha":476,"x_min":4,"x_max":472,"o":"m 196 -147 q 158 -151 176 -150 q 125 -151 140 -151 q 35 -126 67 -151 q 4 -46 4 -101 q 15 30 4 -8 q 35 97 26 68 l 279 979 q 318 983 300 982 q 351 983 336 983 q 440 960 407 983 q 472 883 472 936 q 461 807 472 843 q 440 735 450 771 l 196 -147 z "},":":{"ha":358,"x_min":44,"x_max":314,"o":"m 44 549 q 81 646 44 607 q 179 685 117 685 q 278 646 242 685 q 314 549 314 607 q 278 451 314 490 q 179 413 242 413 q 81 451 117 413 q 44 549 44 490 m 44 113 q 81 210 44 171 q 179 249 117 249 q 278 210 242 249 q 314 113 314 171 q 278 15 314 54 q 179 -24 242 -24 q 81 15 117 -24 q 44 113 44 54 z "},";":{"ha":369,"x_min":4,"x_max":322,"o":"m 225 -101 q 174 -146 201 -132 q 108 -160 147 -160 q 4 -125 47 -160 q 56 52 35 -39 q 90 217 76 143 q 147 238 114 229 q 214 247 181 247 q 290 228 257 247 q 322 158 322 208 q 314 94 322 129 q 292 23 306 58 q 260 -46 278 -12 q 225 -101 243 -79 m 53 549 q 89 646 53 607 q 188 685 125 685 q 286 646 250 685 q 322 549 322 607 q 286 451 322 490 q 188 413 250 413 q 89 451 125 413 q 53 549 53 490 z "},"<":{"ha":654,"x_min":42,"x_max":611,"o":"m 607 169 q 610 150 610 161 q 611 129 611 139 q 606 82 611 104 q 588 43 600 60 q 555 16 575 26 q 504 6 535 6 q 447 18 475 6 q 376 54 418 31 l 78 226 q 42 351 42 274 q 58 442 42 410 q 107 492 75 474 l 489 714 q 581 665 557 696 q 606 597 606 633 q 581 522 606 549 q 510 471 557 494 l 265 347 l 607 169 z "},"=":{"ha":679,"x_min":44,"x_max":635,"o":"m 67 456 q 51 496 57 471 q 44 546 44 521 q 67 619 44 596 q 126 642 89 642 l 613 642 q 627 601 619 625 q 635 550 635 576 q 613 478 635 501 q 554 456 590 456 l 67 456 m 67 179 q 51 219 57 194 q 44 269 44 244 q 67 342 44 319 q 126 365 89 365 l 613 365 q 627 324 619 349 q 635 274 635 300 q 613 202 635 225 q 554 179 590 179 l 67 179 z "},">":{"ha":654,"x_min":43,"x_max":613,"o":"m 47 550 q 44 569 44 558 q 43 590 43 581 q 49 638 43 615 q 67 676 54 660 q 99 703 79 693 q 150 714 119 714 q 208 701 179 714 q 278 665 236 689 l 576 493 q 613 368 613 446 q 596 278 613 310 q 547 228 579 246 l 165 6 q 73 55 97 24 q 49 122 49 86 q 73 198 49 171 q 144 249 97 225 l 389 372 l 47 550 z "},"?":{"ha":692,"x_min":33,"x_max":643,"o":"m 143 107 q 178 201 143 164 q 276 238 214 238 q 374 201 339 238 q 410 107 410 164 q 374 13 410 50 q 276 -24 339 -24 q 178 13 214 -24 q 143 107 143 50 m 189 289 q 144 334 165 301 q 124 411 124 367 q 147 476 124 454 q 214 508 169 497 l 322 535 q 392 601 392 553 q 366 647 392 628 q 278 667 340 667 q 171 652 221 667 q 90 618 121 638 q 50 662 67 636 q 33 724 33 688 q 54 787 33 760 q 112 831 75 814 q 199 857 149 849 q 311 865 250 865 q 559 792 475 865 q 643 601 643 719 q 329 317 643 379 l 189 289 z "},"@":{"ha":1485,"x_min":68,"x_max":1429,"o":"m 714 0 q 603 17 654 0 q 514 69 551 35 q 455 156 476 104 q 433 274 433 207 q 461 420 433 357 q 537 526 489 483 q 648 592 585 569 q 783 614 711 614 q 910 597 850 614 q 1014 549 969 581 q 1068 456 1068 511 q 1068 443 1068 451 q 1067 428 1068 435 l 1038 178 q 1054 174 1043 175 q 1072 172 1065 172 q 1171 231 1135 172 q 1207 385 1207 290 q 1175 530 1207 464 q 1087 643 1143 596 q 952 717 1031 690 q 781 743 874 743 q 582 708 672 743 q 427 612 492 674 q 327 466 363 550 q 292 283 292 382 q 323 111 292 188 q 410 -19 354 35 q 541 -102 465 -74 q 707 -131 617 -131 q 809 -125 769 -131 q 879 -115 849 -119 q 897 -153 889 -131 q 904 -194 904 -175 q 894 -246 904 -224 q 860 -283 885 -268 q 794 -307 836 -299 q 690 -315 753 -315 q 473 -282 583 -315 q 272 -177 363 -249 q 125 8 182 -106 q 68 283 68 122 q 123 549 68 431 q 274 750 178 668 q 499 876 369 832 q 779 921 629 921 q 1042 883 922 921 q 1247 775 1161 844 q 1381 606 1333 706 q 1429 383 1429 506 q 1336 95 1429 197 q 1072 -7 1243 -7 q 980 5 1031 -7 q 889 42 929 17 q 816 13 860 25 q 714 0 772 0 m 846 415 q 822 425 838 421 q 782 429 807 429 q 739 420 760 429 q 702 392 718 411 q 676 344 686 374 q 667 275 667 315 q 689 203 667 229 q 756 178 711 178 q 796 184 781 178 q 825 199 811 190 l 846 415 z "},"A":{"ha":871,"x_min":32,"x_max":847,"o":"m 269 817 q 341 843 293 831 q 438 856 389 856 q 560 835 507 856 q 629 772 614 815 q 683 604 654 700 q 742 406 713 508 q 799 205 771 304 q 847 29 826 106 q 797 -2 831 10 q 718 -14 764 -14 q 662 -8 685 -14 q 624 8 639 -3 q 601 38 610 19 q 585 79 592 56 l 560 175 l 308 175 q 286 89 297 133 q 264 3 275 44 q 223 -9 244 -4 q 171 -14 201 -14 q 66 10 100 -14 q 32 78 32 35 q 38 117 32 97 q 50 163 43 136 q 77 256 60 200 q 115 376 94 311 q 160 508 136 440 q 204 637 183 576 q 242 744 225 697 q 269 817 260 792 m 436 638 q 392 508 417 579 q 349 363 368 436 l 521 363 q 481 509 501 438 q 444 638 461 581 l 436 638 z "},"B":{"ha":860,"x_min":90,"x_max":813,"o":"m 326 174 q 376 166 346 168 q 435 164 407 164 q 527 187 490 164 q 564 258 564 210 q 533 324 564 304 q 440 343 503 343 l 326 343 l 326 174 m 326 513 l 428 513 q 515 535 488 513 q 542 600 542 557 q 510 660 542 638 q 417 682 479 682 q 369 681 396 682 q 326 676 342 679 l 326 513 m 417 -22 q 361 -21 393 -22 q 295 -15 329 -19 q 228 -5 261 -11 q 167 13 194 1 q 90 114 90 42 l 90 763 q 106 808 90 792 q 150 833 122 824 q 268 858 197 850 q 414 865 339 865 q 688 806 592 865 q 783 621 783 746 q 747 513 783 558 q 650 447 711 468 q 766 376 719 428 q 813 247 813 325 q 710 44 813 110 q 417 -22 608 -22 z "},"C":{"ha":793,"x_min":49,"x_max":754,"o":"m 519 672 q 356 607 413 672 q 299 422 299 542 q 362 236 299 301 q 532 171 425 171 q 628 186 589 171 q 704 221 668 201 q 741 174 728 201 q 754 111 754 147 q 691 15 754 54 q 499 -25 628 -25 q 324 1 406 -25 q 181 83 242 28 q 84 222 119 138 q 49 422 49 306 q 83 613 49 531 q 176 753 117 696 q 314 839 235 810 q 483 868 393 868 q 681 826 611 868 q 751 719 751 785 q 733 657 751 683 q 692 615 715 631 q 615 656 656 639 q 519 672 574 672 z "},"D":{"ha":925,"x_min":90,"x_max":876,"o":"m 332 181 q 369 176 347 178 q 411 174 392 174 q 498 188 458 174 q 566 231 538 201 q 610 306 594 260 q 626 418 626 353 q 568 606 626 543 q 413 669 510 669 q 373 668 393 669 q 332 664 353 667 l 332 181 m 410 -22 q 356 -21 386 -22 q 292 -15 325 -19 q 227 -5 260 -11 q 167 13 194 1 q 90 114 90 42 l 90 763 q 106 808 90 792 q 150 833 122 824 q 276 859 210 853 q 396 865 343 865 q 592 839 504 865 q 744 758 681 813 q 842 619 807 703 q 876 422 876 536 q 843 228 876 311 q 748 90 810 146 q 600 6 686 33 q 410 -22 514 -22 z "},"E":{"ha":761,"x_min":90,"x_max":708,"o":"m 90 713 q 125 807 90 772 q 219 842 160 842 l 678 842 q 695 801 688 826 q 703 749 703 776 q 680 674 703 696 q 619 651 657 651 l 326 651 l 326 522 l 639 522 q 656 483 649 507 q 664 431 664 458 q 642 356 664 378 q 582 333 619 333 l 326 333 l 326 188 l 683 188 q 701 147 693 172 q 708 94 708 122 q 685 19 708 42 q 625 -4 663 -4 l 219 -4 q 125 31 160 -4 q 90 125 90 65 l 90 713 z "},"F":{"ha":738,"x_min":90,"x_max":707,"o":"m 682 842 q 699 801 692 826 q 707 747 707 775 q 684 670 707 693 q 622 647 661 647 l 331 647 l 331 490 l 635 490 q 653 450 646 475 q 661 397 661 425 q 638 322 661 344 q 576 299 615 299 l 333 299 l 333 6 q 285 -3 318 1 q 221 -7 253 -7 q 165 -2 189 -7 q 124 15 140 3 q 99 50 107 28 q 90 108 90 72 l 90 713 q 125 807 90 772 q 219 842 160 842 l 682 842 z "},"G":{"ha":922,"x_min":49,"x_max":853,"o":"m 853 138 q 838 74 853 94 q 789 33 822 53 q 740 12 769 22 q 676 -6 711 1 q 603 -18 642 -14 q 528 -22 565 -22 q 340 5 428 -22 q 188 87 253 32 q 86 224 124 142 q 49 414 49 306 q 90 613 49 528 q 198 753 131 697 q 352 838 265 810 q 531 865 439 865 q 740 823 663 865 q 817 713 817 781 q 799 650 817 676 q 757 608 781 624 q 670 649 722 629 q 553 669 618 669 q 367 603 436 669 q 299 418 299 536 q 317 308 299 354 q 368 231 336 261 q 442 187 400 201 q 531 172 483 172 q 585 178 561 172 q 621 190 608 183 l 621 321 l 472 321 q 456 361 464 336 q 449 414 449 386 q 472 486 449 464 q 531 508 494 508 l 765 508 q 830 485 807 508 q 853 421 853 463 l 853 138 z "},"H":{"ha":933,"x_min":90,"x_max":843,"o":"m 843 6 q 795 -3 828 1 q 731 -7 763 -7 q 674 -2 699 -7 q 633 15 650 3 q 608 50 617 28 q 600 108 600 72 l 600 325 l 333 325 l 333 6 q 285 -3 318 1 q 221 -7 253 -7 q 165 -2 189 -7 q 124 15 140 3 q 99 50 107 28 q 90 108 90 72 l 90 842 q 139 849 106 844 q 203 854 172 854 q 259 849 235 854 q 300 832 283 844 q 325 797 317 819 q 333 739 333 775 l 333 517 l 600 517 l 600 842 q 649 849 615 844 q 713 854 682 854 q 769 849 744 854 q 810 832 793 844 q 835 797 826 819 q 843 739 843 775 l 843 6 z "},"I":{"ha":424,"x_min":90,"x_max":333,"o":"m 333 6 q 285 -3 318 1 q 221 -7 253 -7 q 165 -2 189 -7 q 124 15 140 3 q 99 50 107 28 q 90 108 90 72 l 90 842 q 139 849 106 844 q 203 854 172 854 q 259 849 235 854 q 300 832 283 844 q 325 797 317 819 q 333 739 333 775 l 333 6 z "},"J":{"ha":572,"x_min":29,"x_max":486,"o":"m 243 842 q 292 849 258 844 q 356 854 325 854 q 412 849 388 854 q 453 832 436 844 q 478 797 469 819 q 486 739 486 775 l 486 225 q 415 40 486 101 q 207 -22 344 -22 q 90 0 135 -22 q 44 42 58 15 q 29 101 29 68 q 37 150 29 129 q 56 183 44 171 q 101 176 82 178 q 142 174 119 174 q 219 201 196 174 q 243 281 243 228 l 243 842 z "},"K":{"ha":854,"x_min":90,"x_max":826,"o":"m 335 313 l 335 6 q 286 -3 319 1 q 221 -7 253 -7 q 165 -2 189 -7 q 124 15 140 3 q 99 50 107 28 q 90 108 90 72 l 90 842 q 139 849 106 844 q 203 854 172 854 q 259 849 235 854 q 300 832 283 844 q 325 797 317 819 q 333 739 333 775 l 333 518 l 622 850 q 758 815 717 850 q 799 731 799 779 q 781 663 799 694 q 722 590 763 631 l 549 417 q 622 336 583 378 q 697 255 660 294 q 767 179 733 215 q 826 117 801 143 q 815 63 826 86 q 785 22 804 39 q 743 -3 767 6 q 693 -11 719 -11 q 600 17 636 -11 q 531 85 564 46 l 335 313 z "},"L":{"ha":713,"x_min":90,"x_max":678,"o":"m 219 -4 q 125 31 160 -4 q 90 125 90 65 l 90 843 q 139 851 106 846 q 203 856 172 856 q 259 851 235 856 q 300 833 283 846 q 325 799 317 821 q 333 740 333 776 l 333 192 l 651 192 q 669 151 661 176 q 678 97 678 125 q 654 19 678 42 q 592 -4 631 -4 l 219 -4 z "},"M":{"ha":1107,"x_min":72,"x_max":1043,"o":"m 672 207 q 626 183 654 192 q 560 174 597 174 q 477 186 510 174 q 435 229 444 199 q 371 427 396 351 q 332 560 346 503 l 325 560 q 319 410 321 478 q 316 279 317 343 q 313 150 315 215 q 307 6 311 85 q 260 -6 289 -1 q 201 -11 231 -11 q 106 8 140 -11 q 72 79 72 28 l 113 788 q 161 826 124 806 q 267 847 199 847 q 382 824 340 847 q 443 750 424 801 q 470 674 456 717 q 499 585 485 631 q 528 494 514 539 q 553 413 542 449 l 560 413 q 626 638 593 529 q 688 821 660 747 q 741 840 708 832 q 814 847 774 847 q 925 827 882 847 q 975 769 968 807 q 987 684 981 742 q 1000 554 993 626 q 1014 401 1007 482 q 1027 247 1021 321 q 1038 110 1033 172 q 1043 15 1042 49 q 994 -5 1019 1 q 928 -11 968 -11 q 839 7 875 -11 q 800 78 803 25 q 790 350 792 229 q 783 553 788 471 l 776 553 q 736 417 763 499 q 672 207 710 335 z "},"N":{"ha":943,"x_min":90,"x_max":853,"o":"m 853 29 q 797 -1 833 10 q 708 -11 760 -11 q 611 4 657 -11 q 536 78 565 19 l 399 358 q 361 440 378 401 q 325 528 344 478 l 317 526 q 323 374 322 451 q 324 221 324 296 l 324 6 q 277 -3 308 1 q 215 -7 246 -7 q 161 -3 185 -7 q 122 14 138 1 q 99 48 107 26 q 90 104 90 69 l 90 799 q 150 840 110 826 q 236 854 190 854 q 334 838 288 854 q 408 765 381 822 l 547 485 q 585 403 568 442 q 621 315 601 365 l 628 317 q 621 467 622 392 q 619 617 619 542 l 619 842 q 666 850 635 846 q 728 854 697 854 q 821 833 789 854 q 853 743 853 811 l 853 29 z "},"O":{"ha":976,"x_min":49,"x_max":928,"o":"m 49 422 q 83 614 49 531 q 176 753 117 697 q 315 839 235 810 q 488 868 394 868 q 660 839 581 868 q 800 753 740 810 q 894 614 860 697 q 928 422 928 531 q 894 230 928 314 q 802 90 861 146 q 663 4 743 33 q 488 -25 582 -25 q 313 5 393 -25 q 174 92 232 35 q 82 232 115 149 q 49 422 49 315 m 299 422 q 350 233 299 296 q 488 171 401 171 q 626 233 575 171 q 678 422 678 296 q 627 610 678 547 q 489 672 576 672 q 351 610 403 672 q 299 422 299 549 z "},"P":{"ha":807,"x_min":90,"x_max":774,"o":"m 406 451 q 495 478 464 451 q 526 561 526 506 q 494 642 526 614 q 399 671 461 671 q 362 670 376 671 q 332 667 347 669 l 332 451 l 406 451 m 333 6 q 285 -3 318 1 q 221 -7 253 -7 q 165 -2 189 -7 q 124 15 140 3 q 99 50 107 28 q 90 108 90 72 l 90 763 q 106 808 90 792 q 150 833 122 824 q 258 858 197 850 q 379 865 318 865 q 672 783 571 865 q 774 561 774 701 q 752 438 774 493 q 688 344 731 383 q 581 283 646 304 q 432 261 517 261 l 333 261 l 333 6 z "},"Q":{"ha":979,"x_min":49,"x_max":979,"o":"m 49 422 q 83 614 49 531 q 176 753 117 697 q 315 839 235 810 q 488 868 394 868 q 660 839 581 868 q 800 753 740 810 q 894 614 860 697 q 928 422 928 531 q 878 191 928 286 q 742 42 828 96 q 791 21 763 32 q 851 -1 819 10 q 915 -23 882 -12 q 978 -42 949 -33 q 979 -56 979 -50 q 979 -68 979 -62 q 938 -183 979 -147 q 831 -219 897 -219 q 699 -184 767 -219 q 560 -82 631 -149 l 499 -25 l 488 -25 q 313 5 393 -25 q 174 92 232 35 q 82 232 115 149 q 49 422 49 315 m 299 422 q 350 233 299 296 q 488 171 401 171 q 626 233 575 171 q 678 422 678 296 q 627 610 678 547 q 489 672 576 672 q 351 610 403 672 q 299 422 299 549 z "},"R":{"ha":846,"x_min":90,"x_max":804,"o":"m 332 272 l 332 6 q 284 -3 317 1 q 219 -7 251 -7 q 163 -2 188 -7 q 123 15 139 3 q 99 50 107 28 q 90 108 90 72 l 90 763 q 106 808 90 792 q 150 833 122 824 q 260 858 197 850 q 393 865 322 865 q 682 785 585 865 q 779 567 779 704 q 735 419 779 481 q 629 325 690 358 q 728 197 679 257 q 804 89 776 138 q 753 15 790 40 q 671 -11 717 -11 q 618 -4 640 -11 q 579 15 596 3 q 549 46 563 28 q 522 85 535 64 l 406 272 l 332 272 m 419 457 q 503 484 472 457 q 533 564 533 511 q 499 644 533 617 q 392 671 465 671 q 358 669 371 671 q 331 665 346 668 l 331 457 l 419 457 z "},"S":{"ha":765,"x_min":56,"x_max":724,"o":"m 329 335 q 218 377 268 356 q 132 429 168 399 q 76 502 96 460 q 56 606 56 544 q 147 794 56 724 q 401 865 238 865 q 513 857 461 865 q 601 831 564 849 q 658 787 638 814 q 679 724 679 760 q 663 662 679 688 q 622 618 646 636 q 540 652 592 638 q 428 667 489 667 q 336 649 365 667 q 307 606 307 632 q 325 572 307 585 q 379 547 343 558 l 453 524 q 653 417 583 482 q 724 242 724 353 q 631 51 724 124 q 357 -22 538 -22 q 238 -12 293 -22 q 142 19 183 -1 q 78 69 101 39 q 56 138 56 99 q 79 206 56 178 q 131 250 103 235 q 226 197 169 219 q 349 175 282 175 q 444 196 417 175 q 472 244 472 217 q 450 287 472 272 q 388 315 428 301 l 329 335 z "},"T":{"ha":772,"x_min":25,"x_max":744,"o":"m 51 647 q 33 689 42 663 q 25 744 25 715 q 49 822 25 799 q 113 846 74 846 l 718 846 q 736 804 728 831 q 744 749 744 778 q 720 671 744 694 q 657 647 696 647 l 503 647 l 503 6 q 455 -3 488 1 q 390 -7 422 -7 q 334 -2 358 -7 q 293 15 310 3 q 268 50 276 28 q 260 108 260 72 l 260 647 l 51 647 z "},"U":{"ha":922,"x_min":86,"x_max":836,"o":"m 836 311 q 810 174 836 236 q 736 69 785 113 q 618 1 688 25 q 461 -22 549 -22 q 304 1 374 -22 q 186 69 235 25 q 112 174 138 113 q 86 311 86 236 l 86 842 q 135 849 101 844 q 199 854 168 854 q 255 849 231 854 q 296 832 279 844 q 321 797 313 819 q 329 739 329 775 l 329 315 q 366 211 329 249 q 461 174 403 174 q 557 211 521 174 q 593 315 593 249 l 593 842 q 642 849 608 844 q 706 854 675 854 q 762 849 738 854 q 803 832 786 844 q 828 797 819 819 q 836 739 836 775 l 836 311 z "},"V":{"ha":881,"x_min":24,"x_max":849,"o":"m 594 28 q 534 -1 575 11 q 444 -14 493 -14 q 344 3 386 -14 q 288 51 303 21 q 250 134 272 83 q 203 247 228 185 q 153 380 179 310 q 104 522 128 450 q 60 664 81 594 q 24 794 39 733 q 80 830 43 814 q 158 846 117 846 q 242 824 210 846 q 290 744 275 803 q 366 484 328 608 q 446 225 404 360 l 454 225 q 531 510 492 356 q 607 817 571 664 q 660 838 632 829 q 725 846 689 846 q 813 823 776 846 q 849 747 849 800 q 834 658 849 717 q 797 527 819 600 q 745 375 774 454 q 688 226 717 296 q 635 102 660 156 q 594 28 610 49 z "},"W":{"ha":1199,"x_min":35,"x_max":1156,"o":"m 479 636 q 527 652 494 643 q 593 661 560 661 q 690 644 651 661 q 738 593 729 626 q 766 487 753 536 q 792 392 779 438 q 816 303 804 347 q 839 210 828 258 l 846 210 q 868 372 858 294 q 886 523 878 449 q 903 670 894 597 q 919 818 911 743 q 1029 847 971 847 q 1118 825 1081 847 q 1156 750 1156 803 q 1149 663 1156 719 q 1133 538 1143 607 q 1108 392 1122 468 q 1079 246 1094 315 q 1048 120 1064 176 q 1018 33 1032 64 q 950 1 997 14 q 853 -11 903 -11 q 742 6 788 -11 q 688 56 697 24 q 649 188 669 111 q 604 356 628 264 q 564 179 585 265 q 526 33 543 93 q 464 1 506 14 q 372 -11 422 -11 q 259 6 310 -11 q 193 56 208 24 q 166 130 181 81 q 136 242 151 179 q 105 379 121 306 q 76 526 89 453 q 51 670 63 600 q 35 799 40 740 q 89 832 54 817 q 164 847 124 847 q 251 824 217 847 q 293 747 285 801 q 330 511 315 606 q 353 356 344 417 q 367 263 363 296 q 375 210 371 229 l 382 210 q 406 313 394 265 q 428 408 417 360 q 453 510 440 456 q 479 636 465 565 z "},"X":{"ha":835,"x_min":32,"x_max":799,"o":"m 32 739 q 51 778 39 758 q 83 813 64 797 q 126 840 101 829 q 182 850 151 850 q 253 830 222 850 q 315 761 283 810 l 424 596 l 583 832 q 615 842 594 838 q 654 847 635 847 q 754 817 718 847 q 790 742 790 786 q 770 672 790 703 q 715 599 750 642 l 572 424 l 799 100 q 751 19 788 49 q 651 -11 714 -11 q 582 9 611 -11 q 522 78 553 29 l 410 256 l 235 -8 q 214 -10 224 -10 q 194 -11 204 -11 q 78 21 115 -11 q 40 100 40 53 q 58 170 40 140 q 107 240 75 200 l 253 428 l 32 739 z "},"Y":{"ha":797,"x_min":14,"x_max":774,"o":"m 532 6 q 485 -3 517 1 q 422 -7 453 -7 q 326 15 358 -7 q 294 106 294 36 l 294 293 q 219 407 260 344 q 140 535 179 469 q 68 663 101 600 q 14 779 35 726 q 63 825 32 804 q 140 846 94 846 q 228 824 194 846 q 293 740 263 801 l 408 508 l 417 508 q 451 587 436 551 q 479 658 465 622 q 508 731 493 693 q 543 819 524 769 q 599 839 568 832 q 657 846 629 846 q 740 820 706 846 q 774 743 774 794 q 767 703 774 726 q 735 631 760 679 q 662 501 710 583 q 532 288 614 419 l 532 6 z "},"Z":{"ha":778,"x_min":47,"x_max":736,"o":"m 428 647 l 86 647 q 68 689 76 663 q 60 744 60 715 q 84 822 60 799 q 147 846 108 846 l 665 846 q 726 713 726 796 q 710 644 726 678 q 669 579 694 610 l 354 199 l 710 199 q 728 157 719 183 q 736 101 736 131 q 712 24 736 47 q 649 0 688 0 l 101 0 q 63 53 78 19 q 47 129 47 86 q 65 200 47 164 q 108 267 83 236 l 428 647 z "},"[":{"ha":421,"x_min":64,"x_max":414,"o":"m 64 815 q 92 892 64 864 q 169 921 121 921 l 392 921 q 406 884 399 906 q 414 836 414 863 q 392 767 414 788 q 338 746 371 746 l 283 746 l 283 -7 l 392 -7 q 406 -44 399 -22 q 414 -92 414 -65 q 392 -161 414 -140 q 338 -182 371 -182 l 169 -182 q 92 -153 121 -182 q 64 -76 64 -125 l 64 815 z "},"\\":{"ha":500,"x_min":0,"x_max":500,"o":"m 500 -100 q 446 -136 481 -121 q 379 -151 411 -151 q 314 -135 342 -151 q 275 -76 286 -119 l 0 932 q 54 968 19 953 q 121 983 89 983 q 186 967 158 983 q 225 908 214 951 l 500 -100 z "},"]":{"ha":440,"x_min":7,"x_max":357,"o":"m 29 -182 q 15 -145 22 -167 q 7 -97 7 -124 q 28 -28 7 -49 q 83 -7 50 -7 l 138 -7 l 138 746 l 29 746 q 15 783 22 761 q 7 831 7 804 q 28 900 7 879 q 83 921 50 921 l 251 921 q 328 892 300 921 q 357 815 357 864 l 357 -76 q 328 -153 357 -125 q 251 -182 300 -182 l 29 -182 z "},"^":{"ha":678,"x_min":49,"x_max":629,"o":"m 213 919 q 263 943 229 933 q 338 953 296 953 q 418 939 385 953 q 467 900 451 925 q 506 830 483 878 q 553 724 529 782 q 597 608 576 667 q 629 504 618 549 q 583 473 613 488 q 521 458 554 458 q 453 476 478 458 q 411 543 429 494 l 333 761 l 328 761 q 283 624 304 697 q 246 482 261 550 q 198 464 225 469 q 147 458 171 458 q 77 477 106 458 q 49 540 49 496 q 65 615 49 565 q 107 720 82 664 q 160 830 132 776 q 213 919 189 883 z "},"_":{"ha":790,"x_min":42,"x_max":749,"o":"m 67 -261 q 50 -223 58 -247 q 42 -171 42 -199 q 65 -97 42 -119 q 125 -75 89 -75 l 722 -75 q 739 -113 729 -89 q 749 -165 749 -137 q 725 -239 749 -217 q 664 -261 701 -261 l 67 -261 z "},"`":{"ha":419,"x_min":22,"x_max":389,"o":"m 25 893 q 22 921 22 907 q 49 1006 22 974 q 121 1038 75 1038 q 179 1024 156 1038 q 232 985 203 1010 l 389 853 q 359 768 386 800 q 297 736 332 736 q 253 745 275 736 q 208 769 231 754 l 25 893 z "},"a":{"ha":756,"x_min":39,"x_max":683,"o":"m 361 150 q 413 155 385 150 q 456 168 442 160 l 456 279 l 356 271 q 292 254 317 268 q 267 213 267 240 q 288 167 267 185 q 361 150 310 150 m 350 696 q 487 681 425 696 q 592 634 549 665 q 660 555 636 603 q 683 442 683 507 l 683 131 q 663 72 683 94 q 615 32 643 49 q 361 -22 525 -22 q 228 -8 288 -22 q 127 33 169 6 q 62 104 85 61 q 39 204 39 147 q 96 351 39 300 q 272 415 153 403 l 454 435 l 454 444 q 419 502 454 485 q 317 519 383 519 q 214 508 264 519 q 124 481 164 497 q 93 519 106 493 q 81 572 81 544 q 98 630 81 608 q 151 667 115 651 q 247 689 192 682 q 350 696 301 696 z "},"b":{"ha":819,"x_min":75,"x_max":776,"o":"m 75 904 q 119 913 89 908 q 182 918 150 918 q 237 914 213 918 q 278 897 261 910 q 303 863 294 885 q 311 807 311 842 l 311 671 q 377 690 346 685 q 446 696 408 696 q 572 672 513 696 q 678 603 632 649 q 750 492 724 558 q 776 338 776 425 q 749 180 776 247 q 674 68 722 113 q 555 1 625 24 q 400 -22 485 -22 q 244 -1 308 -22 q 136 53 181 21 q 75 164 75 96 l 75 904 m 400 164 q 499 208 464 164 q 535 338 535 251 q 499 468 535 425 q 401 511 463 511 q 353 506 374 511 q 310 489 333 500 l 310 186 q 347 170 325 176 q 400 164 368 164 z "},"c":{"ha":679,"x_min":43,"x_max":633,"o":"m 453 510 q 387 499 418 510 q 333 466 356 488 q 296 413 310 444 q 282 338 282 381 q 331 208 282 251 q 451 165 381 165 q 524 175 493 165 q 578 196 554 185 q 619 153 606 176 q 633 99 633 131 q 579 10 633 42 q 429 -21 525 -21 q 271 5 342 -21 q 149 77 200 31 q 71 189 99 124 q 43 333 43 254 q 73 494 43 425 q 154 607 103 563 q 273 674 206 651 q 415 696 340 696 q 569 660 515 696 q 624 567 624 624 q 611 517 624 540 q 582 478 599 494 q 525 499 558 489 q 453 510 492 510 z "},"d":{"ha":814,"x_min":43,"x_max":739,"o":"m 43 338 q 71 497 43 429 q 148 608 99 564 q 263 674 197 653 q 406 696 329 696 q 460 691 433 696 q 503 679 486 686 l 503 904 q 547 913 517 908 q 610 918 578 918 q 665 914 640 918 q 706 897 689 910 q 731 863 722 885 q 739 807 739 842 l 739 149 q 678 44 739 83 q 574 -2 638 18 q 426 -22 510 -22 q 265 3 336 -22 q 144 75 193 28 q 69 188 94 122 q 43 338 43 254 m 438 511 q 322 468 363 511 q 282 338 282 425 q 319 208 282 251 q 428 164 357 164 q 473 172 453 164 q 504 189 493 179 l 504 494 q 438 511 476 511 z "},"e":{"ha":763,"x_min":43,"x_max":721,"o":"m 429 -22 q 277 1 347 -22 q 155 69 207 24 q 73 185 103 115 q 43 347 43 254 q 73 505 43 439 q 151 613 103 571 q 263 676 200 656 q 390 696 325 696 q 524 674 464 696 q 628 613 585 651 q 697 519 672 574 q 721 401 721 465 q 694 329 721 354 q 621 297 668 304 l 278 246 q 340 177 293 200 q 449 154 388 154 q 556 169 506 154 q 639 203 607 183 q 676 164 661 189 q 692 111 692 139 q 633 18 692 49 q 533 -14 589 -6 q 429 -22 478 -22 m 390 524 q 333 513 357 524 q 293 484 308 501 q 270 445 278 467 q 261 401 263 424 l 499 440 q 468 496 494 468 q 390 524 442 524 z "},"f":{"ha":597,"x_min":75,"x_max":583,"o":"m 75 675 q 99 797 75 746 q 165 880 124 847 q 263 928 207 913 q 383 943 319 943 q 535 916 486 943 q 583 824 583 889 q 572 774 583 796 q 546 740 560 751 q 491 752 519 747 q 425 757 463 757 q 332 737 365 757 q 299 667 299 717 l 299 622 l 526 622 q 542 584 535 607 q 550 533 550 561 q 528 463 550 485 q 471 442 507 442 l 311 442 l 311 1 q 267 -7 297 -3 q 206 -11 238 -11 q 151 -7 175 -11 q 110 10 126 -3 q 84 44 93 22 q 75 100 75 65 l 75 675 z "},"g":{"ha":788,"x_min":42,"x_max":714,"o":"m 401 696 q 545 676 481 696 q 654 624 610 656 q 698 581 682 604 q 714 519 714 557 l 714 33 q 686 -94 714 -40 q 610 -183 658 -147 q 498 -235 563 -218 q 360 -251 433 -251 q 161 -217 233 -251 q 89 -107 89 -183 q 102 -51 89 -75 q 132 -14 115 -26 q 223 -51 172 -36 q 328 -67 274 -67 q 447 -42 403 -67 q 492 39 492 -17 l 492 61 q 353 36 435 36 q 234 55 290 36 q 135 113 178 74 q 67 215 93 153 q 42 364 42 278 q 69 511 42 449 q 144 615 96 574 q 258 676 192 656 q 401 696 324 696 m 488 494 q 459 506 478 500 q 413 511 440 511 q 310 473 344 511 q 276 364 276 435 q 310 248 276 283 q 397 213 344 213 q 488 239 454 213 l 488 494 z "},"h":{"ha":813,"x_min":75,"x_max":739,"o":"m 739 1 q 695 -7 725 -3 q 633 -11 665 -11 q 578 -7 603 -11 q 538 10 554 -3 q 512 44 521 22 q 503 100 503 65 l 503 408 q 474 488 503 465 q 404 511 446 511 q 351 504 376 511 q 311 488 326 497 l 311 1 q 267 -7 297 -3 q 206 -11 238 -11 q 151 -7 175 -11 q 110 10 126 -3 q 84 44 93 22 q 75 100 75 65 l 75 906 q 120 913 90 908 q 181 918 150 918 q 235 914 211 918 q 276 897 260 910 q 302 863 293 885 q 311 807 311 842 l 311 671 q 366 687 329 678 q 447 696 403 696 q 662 627 585 696 q 739 422 739 558 l 739 1 z "},"i":{"ha":392,"x_min":67,"x_max":325,"o":"m 67 863 q 102 951 67 915 q 196 988 138 988 q 290 951 254 988 q 325 863 325 915 q 290 774 325 810 q 196 738 254 738 q 102 774 138 738 q 67 863 67 810 m 314 1 q 269 -6 299 -1 q 208 -11 239 -11 q 153 -7 178 -11 q 113 10 129 -3 q 87 44 96 22 q 78 100 78 65 l 78 665 q 123 673 93 668 q 183 678 153 678 q 238 674 214 678 q 279 657 263 669 q 305 623 296 644 q 314 567 314 601 l 314 1 z "},"j":{"ha":399,"x_min":-10,"x_max":332,"o":"m 74 863 q 109 951 74 915 q 203 988 144 988 q 297 951 261 988 q 332 863 332 915 q 297 774 332 810 q 203 738 261 738 q 109 774 144 738 q 74 863 74 810 m 26 -94 q 71 -41 57 -75 q 85 35 85 -7 l 85 665 q 130 673 100 668 q 190 678 160 678 q 245 674 221 678 q 286 657 269 669 q 312 623 303 644 q 321 567 321 601 l 321 13 q 307 -93 321 -46 q 267 -174 293 -140 q 205 -227 242 -208 q 122 -246 168 -246 q 26 -209 61 -246 q -10 -117 -8 -172 l 26 -94 z "},"k":{"ha":771,"x_min":75,"x_max":732,"o":"m 732 122 q 694 22 725 57 q 603 -12 663 -12 q 524 9 558 -12 q 449 82 489 31 l 311 254 l 311 1 q 266 -6 296 -1 q 206 -11 236 -11 q 151 -7 175 -11 q 110 10 126 -3 q 84 44 93 22 q 75 100 75 65 l 75 904 q 120 913 90 908 q 181 918 150 918 q 235 914 211 918 q 276 897 260 910 q 302 863 293 885 q 311 807 311 842 l 311 440 l 550 685 q 666 653 622 685 q 710 572 710 621 q 703 534 710 551 q 681 499 696 517 q 644 460 667 481 q 590 414 621 440 l 510 344 l 732 122 z "},"l":{"ha":389,"x_min":76,"x_max":313,"o":"m 313 1 q 267 -6 297 -1 q 207 -11 238 -11 q 152 -7 176 -11 q 111 10 128 -3 q 85 44 94 22 q 76 100 76 65 l 76 906 q 122 913 92 908 q 182 918 151 918 q 237 914 213 918 q 278 897 261 910 q 303 863 294 885 q 313 807 313 842 l 313 1 z "},"m":{"ha":1175,"x_min":72,"x_max":1103,"o":"m 396 696 q 508 680 453 696 q 603 632 563 664 q 697 678 644 660 q 822 696 749 696 q 926 682 875 696 q 1016 638 976 668 q 1079 559 1056 608 q 1103 439 1103 510 l 1103 1 q 1059 -7 1089 -3 q 997 -11 1029 -11 q 942 -7 967 -11 q 901 10 918 -3 q 876 44 885 22 q 867 100 867 65 l 867 432 q 843 492 867 474 q 779 511 819 511 q 738 502 760 511 q 704 483 715 493 q 706 473 706 478 q 706 464 706 468 l 706 1 q 660 -7 690 -3 q 600 -11 631 -11 q 545 -7 569 -11 q 504 10 521 -3 q 478 44 488 22 q 469 100 469 65 l 469 432 q 444 492 469 474 q 382 511 418 511 q 339 503 357 511 q 308 489 321 496 l 308 1 q 265 -7 294 -3 q 203 -11 235 -11 q 148 -7 172 -11 q 107 10 124 -3 q 81 44 90 22 q 72 100 72 65 l 72 519 q 88 579 72 557 q 132 621 104 601 q 249 675 179 654 q 396 696 319 696 z "},"n":{"ha":810,"x_min":72,"x_max":736,"o":"m 500 428 q 476 491 500 471 q 410 511 451 511 q 355 504 382 511 q 308 483 328 497 l 308 1 q 265 -7 294 -3 q 203 -11 235 -11 q 148 -7 172 -11 q 107 10 124 -3 q 81 44 90 22 q 72 100 72 65 l 72 517 q 88 578 72 554 q 132 621 104 601 q 251 675 179 654 q 410 696 322 696 q 651 627 567 696 q 736 436 736 558 l 736 1 q 692 -7 722 -3 q 631 -11 663 -11 q 576 -7 600 -11 q 535 10 551 -3 q 509 44 518 22 q 500 100 500 65 l 500 428 z "},"o":{"ha":814,"x_min":43,"x_max":771,"o":"m 771 338 q 744 184 771 251 q 670 71 718 117 q 556 1 622 25 q 407 -22 489 -22 q 258 3 325 -22 q 144 74 192 28 q 69 188 96 121 q 43 338 43 254 q 69 486 43 419 q 144 599 96 553 q 258 671 192 646 q 407 696 325 696 q 556 670 489 696 q 670 598 622 644 q 744 485 718 551 q 771 338 771 418 m 285 338 q 317 208 285 253 q 408 163 350 163 q 498 208 467 163 q 529 338 529 254 q 497 466 529 421 q 407 511 465 511 q 317 466 349 511 q 285 338 285 421 z "},"p":{"ha":813,"x_min":72,"x_max":769,"o":"m 382 696 q 537 674 465 696 q 660 608 608 653 q 740 497 711 564 q 769 336 769 429 q 744 181 769 247 q 674 69 719 114 q 563 1 628 24 q 419 -21 499 -21 q 308 -3 360 -21 l 308 -233 q 264 -242 294 -237 q 201 -247 233 -247 q 147 -243 171 -247 q 106 -226 122 -239 q 81 -192 89 -214 q 72 -136 72 -171 l 72 531 q 88 592 72 568 q 132 635 104 615 q 239 679 175 663 q 382 696 303 696 m 385 165 q 528 336 528 165 q 492 468 528 425 q 390 511 457 511 q 343 505 364 511 q 307 490 322 499 l 307 185 q 343 171 324 176 q 385 165 363 165 z "},"q":{"ha":815,"x_min":43,"x_max":740,"o":"m 392 -22 q 254 -1 318 -22 q 143 65 190 21 q 69 176 96 110 q 43 333 43 243 q 71 488 43 421 q 149 602 99 556 q 272 672 200 649 q 431 696 343 696 q 576 675 508 696 q 681 629 644 654 q 724 585 708 610 q 740 522 740 560 l 740 -233 q 696 -242 726 -237 q 633 -247 665 -247 q 578 -243 603 -247 q 538 -226 554 -239 q 513 -192 521 -214 q 504 -136 504 -171 l 504 -4 q 451 -18 481 -14 q 392 -22 422 -22 m 506 497 q 476 507 493 503 q 438 511 460 511 q 322 467 363 511 q 282 336 282 424 q 321 204 282 244 q 431 164 360 164 q 506 183 478 164 l 506 497 z "},"r":{"ha":571,"x_min":72,"x_max":546,"o":"m 308 1 q 265 -7 294 -3 q 203 -11 235 -11 q 148 -7 172 -11 q 107 10 124 -3 q 81 44 90 22 q 72 100 72 65 l 72 517 q 84 572 72 549 q 118 613 96 594 q 173 645 140 631 q 243 671 206 660 q 321 688 281 682 q 401 694 361 694 q 507 669 468 694 q 546 585 546 643 q 540 547 546 565 q 526 513 535 528 q 467 510 497 513 q 407 501 436 507 q 352 490 378 496 q 308 475 326 483 l 308 1 z "},"s":{"ha":683,"x_min":56,"x_max":642,"o":"m 642 201 q 563 36 642 96 q 329 -24 483 -24 q 221 -15 271 -24 q 135 10 171 -7 q 80 54 100 28 q 60 117 60 81 q 74 173 60 150 q 107 211 88 196 q 199 172 147 189 q 319 154 251 154 q 385 167 363 154 q 408 200 408 179 q 392 231 408 219 q 336 249 375 242 l 294 257 q 115 331 174 281 q 56 476 56 382 q 78 569 56 528 q 140 639 100 611 q 237 682 181 667 q 361 697 293 697 q 458 690 413 697 q 536 667 503 682 q 589 627 569 651 q 608 569 608 603 q 597 515 608 538 q 567 476 585 492 q 533 491 556 483 q 485 505 511 499 q 431 515 458 511 q 382 519 404 519 q 311 509 336 519 q 286 476 286 499 q 300 451 286 461 q 353 433 314 442 l 396 424 q 585 340 529 393 q 642 201 642 286 z "},"t":{"ha":556,"x_min":75,"x_max":514,"o":"m 308 232 q 331 181 308 196 q 396 165 354 165 q 439 169 417 165 q 478 178 461 172 q 499 144 490 163 q 508 99 508 125 q 469 13 508 46 q 329 -21 429 -21 q 141 35 207 -21 q 75 215 75 90 l 75 810 q 119 819 90 814 q 179 824 147 824 q 274 802 240 824 q 308 711 308 781 l 308 622 l 490 622 q 506 584 499 607 q 514 533 514 561 q 492 463 514 485 q 435 442 471 442 l 308 442 l 308 232 z "},"u":{"ha":808,"x_min":72,"x_max":736,"o":"m 72 665 q 116 674 86 669 q 178 678 146 678 q 233 674 208 678 q 274 657 257 669 q 299 623 290 644 q 308 567 308 601 l 308 268 q 336 187 308 211 q 417 163 364 163 q 469 168 449 163 q 500 179 489 174 l 500 665 q 544 674 514 669 q 606 678 574 678 q 660 674 636 678 q 701 657 685 669 q 727 623 718 644 q 736 567 736 601 l 736 144 q 678 40 736 75 q 562 -6 629 10 q 415 -22 494 -22 q 277 -6 340 -22 q 168 46 214 11 q 97 135 122 81 q 72 268 72 190 l 72 665 z "},"v":{"ha":757,"x_min":28,"x_max":724,"o":"m 524 18 q 467 -7 504 3 q 382 -17 429 -17 q 288 -3 328 -17 q 233 42 249 11 q 203 108 221 65 q 167 202 186 150 q 126 314 147 254 q 87 432 106 374 q 53 544 68 490 q 28 640 38 599 q 80 674 47 660 q 151 689 113 689 q 231 669 200 689 q 278 593 263 649 l 332 381 q 361 267 347 318 q 382 189 375 217 l 389 189 q 444 417 415 292 q 497 663 474 542 q 551 682 521 675 q 608 689 581 689 q 690 668 657 689 q 724 596 724 647 q 713 531 724 574 q 687 435 703 489 q 649 322 671 382 q 606 206 628 263 q 562 99 583 149 q 524 18 540 50 z "},"w":{"ha":1099,"x_min":32,"x_max":1064,"o":"m 457 21 q 404 -6 438 4 q 325 -17 371 -17 q 226 -1 268 -17 q 171 44 185 15 q 135 150 156 78 q 96 308 115 222 q 59 483 76 394 q 32 640 42 572 q 84 674 51 660 q 156 689 117 689 q 235 667 204 689 q 274 593 267 646 q 297 419 288 488 q 313 306 307 350 q 323 240 319 263 q 329 203 326 217 l 335 203 q 349 267 339 225 q 374 364 360 310 q 403 481 388 418 q 433 607 418 544 q 488 631 461 622 q 556 639 515 639 q 639 624 604 639 q 683 576 674 608 q 715 458 700 515 q 743 351 731 400 q 765 263 756 301 q 779 203 775 225 l 786 203 q 816 425 801 310 q 843 660 831 540 q 896 682 868 675 q 951 689 924 689 q 1032 668 1000 689 q 1064 596 1064 647 q 1057 529 1064 574 q 1039 429 1050 485 q 1013 313 1028 374 q 984 194 999 251 q 956 92 969 138 q 933 21 943 46 q 874 -6 914 4 q 788 -17 833 -17 q 650 42 671 -17 q 629 105 642 67 q 603 189 617 143 q 576 284 589 235 q 556 379 564 333 q 532 278 546 331 q 503 177 518 226 q 476 87 489 128 q 457 21 464 46 z "},"x":{"ha":726,"x_min":35,"x_max":699,"o":"m 35 565 q 78 651 46 618 q 160 685 111 685 q 231 663 206 685 q 286 600 256 640 l 375 483 l 524 685 q 644 658 600 685 q 689 585 689 631 q 684 552 689 567 q 669 522 679 538 q 644 488 660 507 q 608 442 629 468 l 517 339 l 699 99 q 657 15 692 46 q 574 -15 622 -15 q 490 15 521 -14 q 429 86 458 44 l 354 193 l 213 -11 q 197 -12 206 -11 q 183 -12 189 -12 q 76 17 113 -12 q 39 89 39 46 q 55 148 39 122 q 110 218 71 174 l 221 347 l 35 565 z "},"y":{"ha":765,"x_min":28,"x_max":732,"o":"m 178 172 q 145 250 163 207 q 109 349 128 293 q 70 476 90 404 q 28 640 50 547 q 80 674 47 660 q 151 689 113 689 q 232 669 200 689 q 279 593 264 649 l 389 211 l 394 211 q 427 314 411 258 q 458 428 443 369 q 487 547 474 488 q 510 663 500 606 q 619 689 560 689 q 700 668 668 689 q 732 596 732 647 q 722 509 732 558 q 697 404 713 460 q 659 290 681 349 q 614 174 638 231 q 565 66 590 117 q 517 -25 540 15 q 444 -136 478 -93 q 381 -203 411 -179 q 319 -237 350 -228 q 256 -246 289 -246 q 161 -211 197 -246 q 118 -121 125 -176 q 207 -44 163 -86 q 288 43 251 -1 q 237 76 264 50 q 178 172 210 101 z "},"z":{"ha":668,"x_min":47,"x_max":635,"o":"m 96 0 q 60 46 74 19 q 47 106 47 72 q 60 160 47 133 q 93 211 74 188 l 332 492 l 76 492 q 60 531 68 507 q 53 582 53 554 q 74 652 53 631 q 132 674 96 674 l 569 674 q 605 628 592 654 q 618 568 618 601 q 605 513 618 540 q 572 463 592 486 l 339 182 l 611 182 q 627 143 619 167 q 635 92 635 119 q 613 22 635 43 q 556 0 592 0 l 96 0 z "},"{":{"ha":454,"x_min":33,"x_max":417,"o":"m 276 369 q 351 217 351 333 l 351 61 q 367 -6 351 14 q 414 -35 383 -26 q 417 -55 417 -46 q 417 -72 417 -64 q 386 -163 417 -137 q 307 -189 356 -189 q 182 -140 231 -189 q 133 7 133 -92 l 133 153 q 112 246 133 214 q 43 290 90 278 q 36 327 39 307 q 33 369 33 347 q 36 412 33 392 q 43 449 39 432 q 112 493 90 461 q 133 586 133 525 l 133 732 q 182 879 133 831 q 307 928 231 928 q 386 902 356 928 q 417 811 417 876 q 417 794 417 803 q 414 774 417 785 q 367 745 383 765 q 351 678 351 725 l 351 522 q 276 369 351 404 z "},"|":{"ha":390,"x_min":90,"x_max":300,"o":"m 300 -186 q 260 -192 286 -189 q 207 -196 233 -196 q 121 -178 151 -196 q 90 -99 90 -160 l 90 939 q 131 945 104 942 q 183 949 157 949 q 269 930 239 949 q 300 850 300 911 l 300 -186 z "},"}":{"ha":454,"x_min":33,"x_max":417,"o":"m 174 369 q 99 522 99 404 l 99 678 q 83 745 99 725 q 36 774 67 765 q 33 794 33 785 q 33 811 33 803 q 64 902 33 876 q 143 928 94 928 q 268 879 219 928 q 317 732 317 831 l 317 586 q 338 493 317 525 q 407 449 360 461 q 414 412 411 432 q 417 369 417 392 q 414 327 417 347 q 407 290 411 307 q 338 246 360 278 q 317 153 317 214 l 317 7 q 268 -140 317 -92 q 143 -189 219 -189 q 64 -163 94 -189 q 33 -72 33 -137 q 33 -55 33 -64 q 36 -35 33 -46 q 83 -6 67 -26 q 99 61 99 14 l 99 217 q 174 369 99 333 z "},"~":{"ha":699,"x_min":25,"x_max":676,"o":"m 451 435 q 503 453 485 435 q 535 492 522 471 q 590 482 564 492 q 635 456 615 472 q 665 415 654 439 q 676 361 676 390 q 663 298 676 325 q 626 253 649 271 q 572 228 603 236 q 508 219 542 219 q 411 232 465 219 q 342 249 369 242 q 298 259 315 256 q 269 264 281 263 q 249 265 258 265 q 195 245 214 265 q 165 210 176 225 q 112 219 138 210 q 67 246 86 229 q 36 287 47 263 q 25 340 25 311 q 40 404 25 378 q 80 448 56 431 q 133 474 104 465 q 192 482 163 482 q 260 474 226 482 q 325 458 293 467 q 388 442 357 450 q 451 435 419 435 z "}," ":{"ha":278,"x_min":0,"x_max":0,"o":""},"¡":{"ha":414,"x_min":74,"x_max":340,"o":"m 85 -193 q 86 -101 85 -161 q 92 30 88 -40 q 103 170 96 100 q 119 292 110 240 q 136 300 125 296 q 160 307 147 304 q 185 311 172 310 q 207 313 197 313 q 274 300 247 313 q 308 251 301 288 q 319 154 314 219 q 329 13 325 89 q 335 -139 333 -64 q 338 -267 338 -214 q 274 -291 310 -282 q 204 -300 239 -300 q 116 -274 147 -300 q 85 -193 85 -247 m 340 507 q 305 413 340 450 q 207 376 269 376 q 109 413 144 376 q 74 507 74 450 q 109 601 74 564 q 207 638 144 638 q 305 601 269 638 q 340 507 340 564 z "},"¢":{"ha":683,"x_min":40,"x_max":631,"o":"m 450 510 q 384 499 415 510 q 330 466 353 488 q 293 413 307 444 q 279 338 279 381 q 328 208 279 251 q 449 165 378 165 q 521 175 490 165 q 575 196 551 185 q 617 153 603 176 q 631 99 631 131 q 588 18 631 49 q 467 -19 544 -12 l 467 -119 q 428 -126 454 -122 q 374 -131 401 -131 q 289 -112 319 -131 q 258 -32 258 -93 l 258 8 q 98 131 156 47 q 40 333 40 215 q 101 551 40 468 q 258 669 163 633 l 258 797 q 297 804 271 800 q 351 808 324 808 q 436 790 406 808 q 467 710 467 771 l 467 692 q 581 649 542 682 q 621 567 621 615 q 608 517 621 540 q 579 478 596 494 q 522 499 556 489 q 450 510 489 510 z "},"£":{"ha":700,"x_min":49,"x_max":679,"o":"m 144 515 q 140 568 140 542 q 166 702 140 646 q 235 794 192 758 q 338 848 279 831 q 461 865 396 865 q 605 833 556 865 q 654 739 654 801 q 642 685 654 711 q 614 649 629 660 q 564 669 590 661 q 500 676 538 676 q 406 650 440 676 q 372 560 372 624 q 372 538 372 549 q 375 515 372 526 l 557 515 q 572 477 564 500 q 581 428 581 454 q 559 354 581 375 q 501 333 538 333 l 390 333 l 390 315 q 349 183 390 239 l 656 183 q 672 144 664 168 q 679 93 679 121 q 657 22 679 43 q 599 0 635 0 l 139 0 q 76 28 103 0 q 49 110 49 57 q 49 120 49 117 q 50 131 49 124 q 133 197 106 156 q 161 318 161 239 l 161 333 l 132 333 q 74 354 96 333 q 53 428 53 375 q 61 477 53 454 q 76 515 69 500 l 144 515 z "},"¤":{"ha":785,"x_min":76,"x_max":708,"o":"m 685 406 q 670 310 685 353 q 629 232 656 267 l 708 139 q 670 86 693 103 q 621 69 647 69 q 576 89 596 69 q 536 132 556 108 l 521 150 q 388 125 460 125 q 261 149 319 125 l 190 57 q 120 84 147 65 q 93 132 93 103 q 104 174 93 153 q 135 218 115 194 l 147 232 q 105 310 119 267 q 90 406 90 353 q 105 500 90 457 q 147 578 119 543 l 76 664 q 115 717 92 700 q 164 733 138 733 q 209 714 189 733 q 249 671 229 694 l 257 660 q 388 685 315 685 q 460 677 425 685 q 525 656 494 669 l 589 739 q 659 712 632 731 q 686 664 686 693 q 674 624 686 644 q 644 578 663 603 l 635 565 q 672 493 658 533 q 685 406 685 453 m 288 406 q 315 312 288 344 q 389 279 342 279 q 463 313 436 279 q 489 406 489 346 q 462 498 489 465 q 388 531 435 531 q 314 498 340 531 q 288 406 288 465 z "},"¥":{"ha":829,"x_min":46,"x_max":776,"o":"m 103 353 q 90 383 96 364 q 83 424 83 403 q 101 482 83 465 q 147 499 119 499 l 194 499 q 110 647 150 574 q 46 781 69 721 q 93 826 63 806 q 167 846 124 846 q 253 825 219 846 q 315 744 286 804 l 425 522 l 433 522 q 466 598 451 564 q 494 665 481 632 q 521 736 507 699 q 554 821 535 774 q 608 839 578 832 q 665 846 638 846 q 743 821 710 846 q 776 747 776 796 q 773 719 776 735 q 757 676 769 703 q 722 606 744 649 q 660 499 699 564 l 746 499 q 759 468 753 486 q 765 426 765 450 q 747 369 765 386 q 701 353 729 353 l 103 353 m 103 142 q 90 172 96 153 q 83 213 83 192 q 101 271 83 254 q 147 288 119 288 l 746 288 q 759 257 753 275 q 765 215 765 239 q 747 158 765 175 q 701 142 729 142 l 542 142 l 542 6 q 494 -3 526 1 q 432 -7 463 -7 q 336 15 368 -7 q 304 106 304 36 l 304 142 l 103 142 z "},"¦":{"ha":407,"x_min":90,"x_max":300,"o":"m 300 458 q 260 452 286 456 q 207 449 233 449 q 121 467 151 449 q 90 546 90 485 l 90 939 q 131 945 104 942 q 183 949 157 949 q 269 930 239 949 q 300 850 300 911 l 300 458 m 300 -185 q 260 -191 286 -187 q 207 -194 233 -194 q 121 -176 151 -194 q 90 -97 90 -158 l 90 296 q 131 302 104 299 q 183 306 157 306 q 269 287 239 306 q 300 207 300 268 l 300 -185 z "},"§":{"ha":758,"x_min":69,"x_max":689,"o":"m 689 154 q 603 -6 689 53 q 349 -65 517 -65 q 240 -57 290 -65 q 155 -31 190 -49 q 99 13 119 -14 q 79 75 79 39 q 93 131 79 108 q 126 169 107 154 q 219 130 167 147 q 339 113 271 113 q 431 125 406 113 q 456 158 456 138 q 440 186 456 178 q 383 201 424 194 l 301 214 q 124 284 179 232 q 69 424 69 336 q 84 494 69 461 q 125 553 99 528 q 84 606 99 572 q 69 686 69 640 q 92 775 69 736 q 154 841 114 814 q 251 883 194 868 q 375 897 307 897 q 470 890 425 897 q 549 867 515 882 q 603 827 583 851 q 622 769 622 803 q 610 715 622 738 q 581 676 599 692 q 547 691 569 683 q 499 705 525 699 q 445 715 472 711 q 396 719 418 719 q 325 709 350 719 q 300 676 300 699 q 313 654 300 661 q 367 640 326 647 l 443 629 q 629 556 569 610 q 689 417 689 501 q 674 344 689 379 q 636 286 658 308 q 674 227 660 263 q 689 154 689 192 m 289 431 q 303 398 289 415 q 356 374 317 381 l 453 354 q 465 374 460 363 q 469 401 469 386 q 453 438 469 421 q 396 461 436 454 l 306 478 q 289 431 289 461 z "},"¨":{"ha":519,"x_min":-19,"x_max":538,"o":"m -19 885 q 15 969 -19 933 q 101 1004 50 1004 q 193 969 160 1004 q 226 885 226 933 q 193 801 226 836 q 101 765 160 765 q 54 775 76 765 q 15 801 32 785 q -10 838 -1 817 q -19 885 -19 860 m 292 885 q 324 969 292 933 q 415 1004 357 1004 q 464 994 442 1004 q 503 968 486 985 q 528 930 519 951 q 538 885 538 908 q 503 801 538 836 q 415 765 468 765 q 324 801 357 765 q 292 885 292 836 z "},"©":{"ha":990,"x_min":49,"x_max":942,"o":"m 49 428 q 81 597 49 518 q 171 735 113 676 q 311 826 229 793 q 493 860 393 860 q 675 826 593 860 q 817 735 757 793 q 909 597 876 676 q 942 428 942 518 q 909 258 942 336 q 817 122 876 179 q 675 31 757 64 q 493 -3 593 -3 q 311 31 393 -3 q 171 122 229 64 q 81 258 113 179 q 49 428 49 336 m 493 735 q 369 712 424 735 q 276 648 315 689 q 217 551 238 607 q 197 428 197 494 q 217 306 197 361 q 276 210 238 250 q 369 147 315 169 q 493 125 424 125 q 617 147 563 125 q 710 210 672 169 q 769 306 749 250 q 789 428 789 361 q 769 551 789 494 q 710 648 749 607 q 617 712 672 689 q 493 735 563 735 m 547 518 q 483 496 510 518 q 457 433 457 474 q 482 367 457 390 q 546 343 507 343 q 591 350 572 343 q 624 364 610 357 q 656 294 656 336 q 617 239 656 263 q 515 215 578 215 q 430 230 469 215 q 361 272 390 244 q 315 341 332 300 q 299 435 299 382 q 319 528 299 489 q 371 594 339 568 q 442 634 403 621 q 521 647 482 647 q 614 624 579 647 q 649 567 649 601 q 621 499 649 526 q 590 512 608 506 q 547 518 571 518 z "},"ª":{"ha":493,"x_min":19,"x_max":438,"o":"m 229 557 q 263 560 244 557 q 290 568 282 563 l 290 640 l 225 635 q 183 624 199 632 q 167 596 167 615 q 181 567 167 578 q 229 557 194 557 m 221 911 q 378 871 319 911 q 438 746 438 831 l 438 543 q 424 506 438 519 q 393 481 411 492 q 323 453 364 461 q 229 444 282 444 q 76 481 133 444 q 19 590 19 517 q 171 729 19 713 l 289 742 l 289 747 q 200 796 289 796 q 132 790 165 796 q 75 772 99 783 q 55 795 64 779 q 46 831 46 811 q 57 868 46 854 q 92 892 68 882 q 154 907 119 903 q 221 911 189 911 z "},"«":{"ha":797,"x_min":40,"x_max":753,"o":"m 753 131 q 726 58 753 90 q 644 26 700 26 q 590 42 614 26 q 542 83 565 58 l 407 219 q 392 256 399 233 q 386 301 386 279 q 397 373 386 346 q 425 415 408 400 l 629 613 q 709 569 682 597 q 736 507 736 540 q 734 478 736 492 q 725 452 732 465 q 706 424 718 439 q 672 392 693 410 l 581 307 l 753 131 m 407 131 q 381 58 407 90 q 299 26 354 26 q 244 42 268 26 q 196 83 219 58 l 61 219 q 47 256 53 233 q 40 301 40 279 q 51 373 40 346 q 79 415 63 400 l 283 613 q 363 569 336 597 q 390 507 390 540 q 388 478 390 492 q 379 452 386 465 q 360 424 372 439 q 326 392 347 410 l 235 307 l 407 131 z "},"¬":{"ha":668,"x_min":36,"x_max":632,"o":"m 528 494 q 604 467 576 494 q 632 390 632 439 l 632 153 q 588 145 618 149 q 531 142 558 142 q 479 146 501 142 q 442 161 457 150 q 420 193 428 172 q 413 246 413 214 l 413 308 l 61 308 q 44 348 53 324 q 36 400 36 372 q 59 472 36 450 q 118 494 82 494 l 528 494 z "},"­":{"ha":492,"x_min":42,"x_max":450,"o":"m 68 258 q 50 299 58 274 q 42 351 42 324 q 65 426 42 403 q 126 449 89 449 l 424 449 q 441 408 432 433 q 450 356 450 383 q 426 281 450 304 q 365 258 403 258 l 68 258 z "},"®":{"ha":860,"x_min":51,"x_max":808,"o":"m 51 517 q 78 660 51 593 q 156 776 106 726 q 275 853 206 825 q 429 882 344 882 q 582 853 513 882 q 702 776 651 825 q 781 660 753 726 q 808 517 808 593 q 781 374 808 440 q 702 258 753 307 q 582 181 651 210 q 429 153 513 153 q 275 181 344 153 q 156 258 206 210 q 78 374 106 307 q 51 517 51 440 m 176 517 q 194 413 176 460 q 244 333 211 367 q 324 280 278 299 q 429 261 371 261 q 534 280 488 261 q 613 333 581 299 q 662 413 644 367 q 679 517 679 460 q 662 620 679 572 q 613 703 644 668 q 534 757 581 738 q 429 776 488 776 q 324 757 371 776 q 244 703 278 738 q 194 620 211 668 q 176 517 176 572 m 403 467 l 403 361 q 381 358 394 360 q 350 357 368 357 q 313 365 326 357 q 300 401 300 374 l 300 661 q 322 688 300 679 q 367 697 342 694 q 419 700 392 700 q 534 669 496 700 q 572 582 572 638 q 555 523 572 546 q 513 488 538 500 q 551 436 532 460 q 582 393 571 413 q 560 364 576 374 q 526 354 544 354 q 488 366 501 354 q 461 397 474 378 l 417 467 l 403 467 m 424 542 q 457 551 444 542 q 469 582 469 560 q 422 621 469 621 q 410 620 415 621 q 403 619 406 619 l 403 542 l 424 542 z "},"¯":{"ha":446,"x_min":19,"x_max":486,"o":"m 42 783 q 27 822 35 799 q 19 869 19 844 q 40 941 19 921 q 96 961 61 961 l 464 961 q 481 923 475 946 q 486 875 486 900 q 466 803 486 824 q 411 783 446 783 l 42 783 z "},"°":{"ha":501,"x_min":22,"x_max":479,"o":"m 247 504 q 81 563 140 504 q 22 710 22 621 q 83 859 22 801 q 253 917 144 917 q 418 859 357 917 q 479 710 479 801 q 463 628 479 665 q 415 563 446 590 q 342 519 385 535 q 247 504 299 504 m 249 636 q 297 656 278 636 q 315 710 315 675 q 299 763 315 743 q 253 783 282 783 q 206 765 225 783 q 186 710 186 746 q 203 656 186 675 q 249 636 219 636 z "},"±":{"ha":690,"x_min":36,"x_max":654,"o":"m 72 -4 q 56 36 63 11 q 50 86 50 61 q 72 159 50 136 q 132 182 94 182 l 632 182 q 647 141 639 165 q 654 90 654 117 q 632 19 654 42 q 574 -4 610 -4 l 72 -4 m 454 239 q 413 230 443 233 q 356 226 383 226 q 269 245 299 226 q 240 325 240 264 l 240 450 l 58 450 q 42 490 49 465 q 36 540 36 515 q 58 613 36 590 q 118 636 81 636 l 240 636 l 240 842 q 283 851 254 846 q 339 856 311 856 q 424 836 394 856 q 454 754 454 817 l 454 636 l 632 636 q 647 595 639 619 q 654 544 654 571 q 632 473 654 496 q 574 450 610 450 l 454 450 l 454 239 z "},"²":{"ha":389,"x_min":31,"x_max":358,"o":"m 178 863 q 306 823 261 863 q 351 721 351 783 q 323 638 351 678 q 253 563 294 599 l 200 517 l 344 517 q 353 492 349 507 q 358 463 358 478 q 345 419 358 432 q 310 407 332 407 l 64 407 q 40 434 49 418 q 31 472 31 450 q 36 512 31 496 q 50 539 42 528 l 150 631 q 183 662 171 649 q 203 685 196 675 q 212 702 210 694 q 214 717 214 710 q 201 744 214 735 q 165 753 188 753 q 112 744 135 753 q 74 725 89 735 q 54 751 63 735 q 46 788 46 767 q 81 844 46 825 q 178 863 117 863 z "},"³":{"ha":397,"x_min":24,"x_max":367,"o":"m 174 688 q 219 718 219 688 q 160 754 219 754 q 110 747 132 754 q 69 729 88 739 q 36 790 36 751 q 76 846 36 828 q 182 864 115 864 q 311 828 265 864 q 357 732 357 793 q 340 678 357 703 q 299 640 322 654 q 347 602 326 629 q 367 532 367 575 q 315 433 367 469 q 182 396 264 396 q 64 419 104 396 q 24 476 24 442 q 34 513 24 496 q 61 538 44 531 q 108 517 83 525 q 165 508 132 508 q 229 546 229 508 q 176 582 229 582 l 104 582 q 94 603 99 590 q 90 633 90 617 q 94 665 90 653 q 104 688 97 678 l 174 688 z "},"´":{"ha":414,"x_min":32,"x_max":394,"o":"m 257 1033 q 362 1006 329 1033 q 394 939 394 978 q 375 878 394 903 q 311 831 356 854 l 132 736 q 61 769 90 740 q 32 832 32 799 q 40 865 32 849 q 68 896 49 882 l 257 1033 z "},"µ":{"ha":811,"x_min":74,"x_max":738,"o":"m 74 665 q 117 674 88 669 q 179 678 147 678 q 234 674 210 678 q 275 657 258 669 q 301 623 292 644 q 310 567 310 601 l 310 261 q 319 214 310 233 q 343 183 328 194 q 378 167 358 172 q 419 163 397 163 q 466 167 446 163 q 501 179 486 172 l 501 665 q 545 674 515 669 q 607 678 575 678 q 662 674 638 678 q 703 657 686 669 q 728 623 719 644 q 738 567 738 601 l 738 143 q 723 83 738 108 q 682 39 708 58 q 595 -3 650 15 q 450 -22 540 -22 q 375 -15 411 -22 q 310 3 339 -8 l 310 -233 q 265 -242 296 -237 q 203 -247 235 -247 q 148 -243 172 -247 q 107 -226 124 -239 q 82 -192 90 -214 q 74 -136 74 -171 l 74 665 z "},"¶":{"ha":764,"x_min":22,"x_max":688,"o":"m 557 843 q 612 839 588 843 q 653 822 636 835 q 678 788 669 810 q 688 732 688 767 l 688 -96 q 642 -103 672 -99 q 582 -108 613 -108 q 527 -104 551 -108 q 486 -87 503 -100 q 460 -53 469 -75 q 451 3 451 -32 l 451 644 l 356 644 l 356 307 q 335 277 356 289 q 268 265 314 265 q 179 282 224 265 q 100 333 135 299 q 44 419 65 367 q 22 543 22 471 q 49 674 22 618 q 120 768 75 731 q 225 824 165 806 q 351 843 285 843 l 557 843 z "},"·":{"ha":325,"x_min":28,"x_max":297,"o":"m 28 418 q 64 515 28 476 q 163 554 100 554 q 261 515 225 554 q 297 418 297 476 q 261 321 297 360 q 163 282 225 282 q 64 321 100 282 q 28 418 28 360 z "},"¸":{"ha":271,"x_min":-28,"x_max":269,"o":"m 154 53 q 238 -22 206 28 q 269 -121 269 -72 q 225 -238 269 -192 q 101 -285 181 -285 q 8 -256 44 -285 q -28 -175 -28 -228 q -22 -133 -28 -151 q 47 -112 22 -131 q 72 -61 72 -93 q 65 -27 72 -47 q 46 7 58 -7 l 154 53 z "},"¹":{"ha":308,"x_min":10,"x_max":250,"o":"m 250 407 q 224 403 242 406 q 189 401 207 401 q 133 413 153 401 q 114 464 114 424 l 114 707 l 57 690 q 26 718 42 700 q 10 765 10 736 q 54 826 10 808 l 154 863 l 176 863 q 230 842 210 863 q 250 789 250 821 l 250 407 z "},"º":{"ha":550,"x_min":35,"x_max":507,"o":"m 507 679 q 442 506 507 567 q 271 446 378 446 q 99 508 164 446 q 35 679 35 569 q 99 849 35 786 q 271 911 164 911 q 367 894 324 911 q 442 848 411 878 q 490 775 474 818 q 507 679 507 732 m 192 679 q 213 594 192 624 q 272 565 235 565 q 329 595 308 565 q 350 679 350 625 q 329 762 350 732 q 271 792 308 792 q 213 763 233 792 q 192 679 192 733 z "},"»":{"ha":797,"x_min":40,"x_max":753,"o":"m 40 508 q 67 581 40 549 q 149 613 93 613 q 203 597 179 613 q 251 556 228 581 l 386 417 q 401 380 394 403 q 407 335 407 357 q 396 263 407 290 q 368 221 385 236 l 164 26 q 84 70 111 42 q 57 132 57 99 q 69 186 57 163 q 121 247 81 210 l 213 332 l 40 508 m 386 508 q 413 581 386 549 q 494 613 439 613 q 549 597 525 613 q 597 556 574 581 l 732 417 q 747 380 740 403 q 753 335 753 357 q 742 263 753 290 q 714 221 731 236 l 510 26 q 430 70 457 42 q 403 132 403 99 q 415 186 403 163 q 467 247 426 210 l 558 332 l 386 508 z "},"¼":{"ha":846,"x_min":10,"x_max":868,"o":"m 250 407 q 224 403 242 406 q 189 401 207 401 q 133 413 153 401 q 114 464 114 424 l 114 707 l 57 690 q 26 718 42 700 q 10 765 10 736 q 54 826 10 808 l 154 863 l 176 863 q 230 842 210 863 q 250 789 250 821 l 250 407 m 618 857 q 688 833 661 850 q 718 786 715 815 q 708 744 718 765 q 681 699 697 724 l 193 -10 q 123 15 150 -3 q 93 61 96 32 q 103 103 93 82 q 131 149 114 124 l 618 857 m 796 193 l 856 193 q 864 170 860 185 q 868 139 868 156 q 855 97 868 110 q 822 85 842 85 l 796 85 l 796 0 q 771 -4 788 -3 q 738 -6 754 -6 q 685 6 704 -6 q 667 54 667 17 l 667 85 l 488 85 q 458 110 469 93 q 446 154 446 128 q 451 188 446 174 q 465 218 457 203 l 632 439 q 664 445 646 442 q 703 449 682 449 q 766 434 736 449 q 796 379 796 419 l 796 193 m 671 315 l 589 193 l 671 193 l 671 315 z "},"½":{"ha":883,"x_min":10,"x_max":853,"o":"m 250 407 q 224 403 242 406 q 189 401 207 401 q 133 413 153 401 q 114 464 114 424 l 114 707 l 57 690 q 26 718 42 700 q 10 765 10 736 q 54 826 10 808 l 154 863 l 176 863 q 230 842 210 863 q 250 789 250 821 l 250 407 m 618 857 q 688 833 661 850 q 718 786 715 815 q 708 744 718 765 q 681 699 697 724 l 193 -10 q 123 15 150 -3 q 93 61 96 32 q 103 103 93 82 q 131 149 114 124 l 618 857 m 672 458 q 801 419 756 458 q 846 317 846 379 q 817 234 846 274 q 747 158 789 194 l 694 113 l 839 113 q 848 88 843 103 q 853 58 853 74 q 840 15 853 28 q 804 3 826 3 l 558 3 q 534 30 543 14 q 525 68 525 46 q 531 108 525 92 q 544 135 536 124 l 644 226 q 678 258 665 244 q 697 281 690 271 q 706 298 704 290 q 708 313 708 306 q 695 340 708 331 q 660 349 682 349 q 606 340 629 349 q 568 321 583 331 q 549 347 557 331 q 540 383 540 363 q 576 440 540 421 q 672 458 611 458 z "},"¾":{"ha":922,"x_min":24,"x_max":946,"o":"m 174 688 q 219 718 219 688 q 160 754 219 754 q 110 747 132 754 q 69 729 88 739 q 36 790 36 751 q 76 846 36 828 q 182 864 115 864 q 311 828 265 864 q 357 732 357 793 q 340 678 357 703 q 299 640 322 654 q 347 602 326 629 q 367 532 367 575 q 315 433 367 469 q 182 396 264 396 q 64 419 104 396 q 24 476 24 442 q 34 513 24 496 q 61 538 44 531 q 108 517 83 525 q 165 508 132 508 q 229 546 229 508 q 176 582 229 582 l 104 582 q 94 603 99 590 q 90 633 90 617 q 94 665 90 653 q 104 688 97 678 l 174 688 m 694 857 q 765 833 738 850 q 794 786 792 815 q 784 744 794 765 q 757 699 774 724 l 269 -10 q 199 15 226 -3 q 169 61 172 32 q 180 103 169 82 q 207 149 190 124 l 694 857 m 874 193 l 933 193 q 942 170 938 185 q 946 139 946 156 q 933 97 946 110 q 900 85 919 85 l 874 85 l 874 0 q 849 -4 865 -3 q 815 -6 832 -6 q 763 6 782 -6 q 744 54 744 17 l 744 85 l 565 85 q 535 110 547 93 q 524 154 524 128 q 529 188 524 174 q 543 218 535 203 l 710 439 q 742 445 724 442 q 781 449 760 449 q 844 434 814 449 q 874 379 874 419 l 874 193 m 749 315 l 667 193 l 749 193 l 749 315 z "},"¿":{"ha":610,"x_min":-26,"x_max":583,"o":"m 474 507 q 438 413 474 450 q 340 376 403 376 q 242 413 278 376 q 207 507 207 450 q 242 601 207 564 q 340 638 278 638 q 438 601 403 638 q 474 507 474 564 m 428 325 q 472 280 451 313 q 493 203 493 247 q 470 138 493 160 q 403 106 447 117 l 294 79 q 225 13 225 61 q 251 -33 225 -14 q 339 -53 276 -53 q 446 -38 396 -53 q 526 -4 496 -24 q 567 -48 550 -22 q 583 -110 583 -74 q 563 -173 583 -146 q 505 -217 542 -200 q 417 -243 468 -235 q 306 -251 365 -251 q 58 -178 142 -251 q -26 13 -26 -106 q 288 297 -26 235 l 428 325 z "},"À":{"ha":871,"x_min":32,"x_max":847,"o":"m 269 817 q 341 843 293 831 q 438 856 389 856 q 560 835 507 856 q 629 772 614 815 q 683 604 654 700 q 742 406 713 508 q 799 205 771 304 q 847 29 826 106 q 797 -2 831 10 q 718 -14 764 -14 q 662 -8 685 -14 q 624 8 639 -3 q 601 38 610 19 q 585 79 592 56 l 560 175 l 308 175 q 286 89 297 133 q 264 3 275 44 q 223 -9 244 -4 q 171 -14 201 -14 q 66 10 100 -14 q 32 78 32 35 q 38 117 32 97 q 50 163 43 136 q 77 256 60 200 q 115 376 94 311 q 160 508 136 440 q 204 637 183 576 q 242 744 225 697 q 269 817 260 792 m 436 638 q 392 508 417 579 q 349 363 368 436 l 521 363 q 481 509 501 438 q 444 638 461 581 l 436 638 m 254 1008 q 245 1039 247 1024 q 243 1067 243 1054 q 270 1139 243 1111 q 344 1167 297 1167 q 392 1158 369 1167 q 442 1133 414 1149 l 631 1036 q 632 1025 632 1031 q 632 1014 632 1019 q 608 936 632 965 q 547 907 583 907 q 468 925 513 907 l 254 1008 z "},"Á":{"ha":871,"x_min":32,"x_max":847,"o":"m 269 817 q 341 843 293 831 q 438 856 389 856 q 560 835 507 856 q 629 772 614 815 q 683 604 654 700 q 742 406 713 508 q 799 205 771 304 q 847 29 826 106 q 797 -2 831 10 q 718 -14 764 -14 q 662 -8 685 -14 q 624 8 639 -3 q 601 38 610 19 q 585 79 592 56 l 560 175 l 308 175 q 286 89 297 133 q 264 3 275 44 q 223 -9 244 -4 q 171 -14 201 -14 q 66 10 100 -14 q 32 78 32 35 q 38 117 32 97 q 50 163 43 136 q 77 256 60 200 q 115 376 94 311 q 160 508 136 440 q 204 637 183 576 q 242 744 225 697 q 269 817 260 792 m 436 638 q 392 508 417 579 q 349 363 368 436 l 521 363 q 481 509 501 438 q 444 638 461 581 l 436 638 m 515 1182 q 613 1149 583 1176 q 642 1086 642 1122 q 619 1022 642 1046 q 547 979 596 999 l 357 904 q 292 938 317 913 q 268 993 268 963 q 278 1031 268 1013 q 311 1060 289 1049 l 515 1182 z "},"Â":{"ha":871,"x_min":32,"x_max":847,"o":"m 269 817 q 341 843 293 831 q 438 856 389 856 q 560 835 507 856 q 629 772 614 815 q 683 604 654 700 q 742 406 713 508 q 799 205 771 304 q 847 29 826 106 q 797 -2 831 10 q 718 -14 764 -14 q 662 -8 685 -14 q 624 8 639 -3 q 601 38 610 19 q 585 79 592 56 l 560 175 l 308 175 q 286 89 297 133 q 264 3 275 44 q 223 -9 244 -4 q 171 -14 201 -14 q 66 10 100 -14 q 32 78 32 35 q 38 117 32 97 q 50 163 43 136 q 77 256 60 200 q 115 376 94 311 q 160 508 136 440 q 204 637 183 576 q 242 744 225 697 q 269 817 260 792 m 436 638 q 392 508 417 579 q 349 363 368 436 l 521 363 q 481 509 501 438 q 444 638 461 581 l 436 638 m 450 1019 q 374 965 407 988 q 310 919 340 942 q 240 944 268 919 q 211 1004 211 968 q 224 1053 211 1032 q 275 1100 238 1074 l 325 1136 q 390 1173 360 1160 q 447 1186 419 1186 q 511 1174 485 1186 q 574 1129 538 1161 l 686 1031 q 666 953 686 983 q 603 924 646 924 q 577 926 589 924 q 551 936 565 929 q 521 956 538 943 q 482 990 504 969 l 450 1019 z "},"Ã":{"ha":871,"x_min":32,"x_max":847,"o":"m 269 817 q 341 843 293 831 q 438 856 389 856 q 560 835 507 856 q 629 772 614 815 q 683 604 654 700 q 742 406 713 508 q 799 205 771 304 q 847 29 826 106 q 797 -2 831 10 q 718 -14 764 -14 q 662 -8 685 -14 q 624 8 639 -3 q 601 38 610 19 q 585 79 592 56 l 560 175 l 308 175 q 286 89 297 133 q 264 3 275 44 q 223 -9 244 -4 q 171 -14 201 -14 q 66 10 100 -14 q 32 78 32 35 q 38 117 32 97 q 50 163 43 136 q 77 256 60 200 q 115 376 94 311 q 160 508 136 440 q 204 637 183 576 q 242 744 225 697 q 269 817 260 792 m 436 638 q 392 508 417 579 q 349 363 368 436 l 521 363 q 481 509 501 438 q 444 638 461 581 l 436 638 m 447 1146 q 489 1135 472 1139 q 517 1131 506 1131 q 564 1149 547 1131 q 588 1179 581 1167 q 669 1148 636 1179 q 701 1068 701 1117 q 663 976 701 1006 q 565 947 624 947 q 526 949 546 947 q 483 958 507 951 l 428 975 q 395 984 408 981 q 369 988 382 988 q 323 970 339 988 q 299 939 307 953 q 217 970 250 939 q 185 1050 185 1001 q 197 1103 185 1081 q 228 1142 208 1126 q 272 1164 247 1157 q 321 1171 296 1171 q 365 1167 339 1171 q 447 1146 390 1163 z "},"Ä":{"ha":871,"x_min":32,"x_max":847,"o":"m 269 817 q 341 843 293 831 q 438 856 389 856 q 560 835 507 856 q 629 772 614 815 q 683 604 654 700 q 742 406 713 508 q 799 205 771 304 q 847 29 826 106 q 797 -2 831 10 q 718 -14 764 -14 q 662 -8 685 -14 q 624 8 639 -3 q 601 38 610 19 q 585 79 592 56 l 560 175 l 308 175 q 286 89 297 133 q 264 3 275 44 q 223 -9 244 -4 q 171 -14 201 -14 q 66 10 100 -14 q 32 78 32 35 q 38 117 32 97 q 50 163 43 136 q 77 256 60 200 q 115 376 94 311 q 160 508 136 440 q 204 637 183 576 q 242 744 225 697 q 269 817 260 792 m 436 638 q 392 508 417 579 q 349 363 368 436 l 521 363 q 481 509 501 438 q 444 638 461 581 l 436 638 m 163 1049 q 197 1133 163 1097 q 283 1168 232 1168 q 375 1133 342 1168 q 408 1049 408 1097 q 375 965 408 1000 q 283 929 342 929 q 236 939 258 929 q 197 965 214 949 q 172 1002 181 981 q 163 1049 163 1024 m 474 1049 q 506 1133 474 1097 q 597 1168 539 1168 q 646 1158 624 1168 q 685 1132 668 1149 q 710 1094 701 1115 q 719 1049 719 1072 q 685 965 719 1000 q 597 929 650 929 q 506 965 539 929 q 474 1049 474 1000 z "},"Å":{"ha":871,"x_min":32,"x_max":847,"o":"m 269 817 q 341 843 293 831 q 438 856 389 856 q 560 835 507 856 q 629 772 614 815 q 683 604 654 700 q 742 406 713 508 q 799 205 771 304 q 847 29 826 106 q 797 -2 831 10 q 718 -14 764 -14 q 662 -8 685 -14 q 624 8 639 -3 q 601 38 610 19 q 585 79 592 56 l 560 175 l 308 175 q 286 89 297 133 q 264 3 275 44 q 223 -9 244 -4 q 171 -14 201 -14 q 66 10 100 -14 q 32 78 32 35 q 38 117 32 97 q 50 163 43 136 q 77 256 60 200 q 115 376 94 311 q 160 508 136 440 q 204 637 183 576 q 242 744 225 697 q 269 817 260 792 m 436 638 q 392 508 417 579 q 349 363 368 436 l 521 363 q 481 509 501 438 q 444 638 461 581 l 436 638 m 263 1047 q 313 1156 263 1113 q 446 1199 363 1199 q 585 1156 533 1199 q 636 1047 636 1113 q 585 940 636 982 q 446 897 533 897 q 313 940 363 897 q 263 1047 263 982 m 403 1047 q 416 1016 403 1028 q 447 1004 429 1004 q 481 1016 468 1004 q 494 1047 494 1028 q 481 1078 494 1067 q 447 1090 468 1090 q 416 1078 429 1090 q 403 1047 403 1067 z "},"Æ":{"ha":1215,"x_min":35,"x_max":1163,"o":"m 1132 842 q 1149 801 1142 826 q 1157 749 1157 776 q 1134 674 1157 696 q 1074 651 1111 651 l 781 651 l 781 522 l 1093 522 q 1110 483 1103 507 q 1118 431 1118 458 q 1096 356 1118 378 q 1036 333 1074 333 l 781 333 l 781 188 l 1138 188 q 1155 147 1147 172 q 1163 94 1163 122 q 1140 19 1163 42 q 1079 -4 1117 -4 l 674 -4 q 579 31 614 -4 q 544 125 544 65 l 544 175 l 332 175 l 253 3 q 212 -9 233 -4 q 160 -14 190 -14 q 65 10 96 -14 q 35 78 35 35 q 40 117 35 97 q 56 163 44 138 q 99 257 72 201 q 157 376 126 313 q 220 505 188 439 q 283 630 253 571 q 338 735 313 689 q 378 807 363 782 q 438 835 399 822 q 525 849 476 849 q 594 842 557 849 q 657 822 631 835 q 728 842 688 842 l 1132 842 m 536 638 l 417 363 l 544 363 l 544 638 l 536 638 z "},"Ç":{"ha":793,"x_min":49,"x_max":754,"o":"m 519 672 q 356 607 413 672 q 299 422 299 542 q 362 236 299 301 q 532 171 425 171 q 628 186 589 171 q 704 221 668 201 q 741 174 728 201 q 754 111 754 147 q 715 31 754 65 q 593 -17 676 -4 q 610 -67 604 -36 q 615 -121 615 -97 q 571 -240 615 -193 q 444 -287 526 -287 q 351 -258 386 -287 q 315 -175 315 -228 q 317 -151 315 -160 q 322 -133 319 -142 q 413 -65 413 -129 q 410 -44 413 -57 q 401 -17 408 -31 q 262 27 326 -6 q 150 114 197 60 q 76 245 103 168 q 49 422 49 322 q 83 613 49 531 q 176 753 117 696 q 314 839 235 810 q 483 868 393 868 q 681 826 611 868 q 751 719 751 785 q 733 657 751 683 q 692 615 715 631 q 615 656 656 639 q 519 672 574 672 z "},"È":{"ha":751,"x_min":81,"x_max":699,"o":"m 81 713 q 115 807 81 772 q 210 842 150 842 l 668 842 q 685 801 678 826 q 693 749 693 776 q 670 674 693 696 q 610 651 647 651 l 317 651 l 317 522 l 629 522 q 647 483 639 507 q 654 431 654 458 q 632 356 654 378 q 572 333 610 333 l 317 333 l 317 188 l 674 188 q 691 147 683 172 q 699 94 699 122 q 676 19 699 42 q 615 -4 653 -4 l 210 -4 q 115 31 150 -4 q 81 125 81 65 l 81 713 m 172 1008 q 163 1039 165 1024 q 161 1067 161 1054 q 188 1139 161 1111 q 263 1167 215 1167 q 310 1158 288 1167 q 360 1133 332 1149 l 549 1036 q 550 1025 550 1031 q 550 1014 550 1019 q 526 936 550 965 q 465 907 501 907 q 386 925 431 907 l 172 1008 z "},"É":{"ha":751,"x_min":81,"x_max":699,"o":"m 81 713 q 115 807 81 772 q 210 842 150 842 l 668 842 q 685 801 678 826 q 693 749 693 776 q 670 674 693 696 q 610 651 647 651 l 317 651 l 317 522 l 629 522 q 647 483 639 507 q 654 431 654 458 q 632 356 654 378 q 572 333 610 333 l 317 333 l 317 188 l 674 188 q 691 147 683 172 q 699 94 699 122 q 676 19 699 42 q 615 -4 653 -4 l 210 -4 q 115 31 150 -4 q 81 125 81 65 l 81 713 m 456 1182 q 553 1149 524 1176 q 582 1086 582 1122 q 559 1022 582 1046 q 488 979 536 999 l 297 904 q 233 938 257 913 q 208 993 208 963 q 219 1031 208 1013 q 251 1060 229 1049 l 456 1182 z "},"Ê":{"ha":751,"x_min":81,"x_max":699,"o":"m 81 713 q 115 807 81 772 q 210 842 150 842 l 668 842 q 685 801 678 826 q 693 749 693 776 q 670 674 693 696 q 610 651 647 651 l 317 651 l 317 522 l 629 522 q 647 483 639 507 q 654 431 654 458 q 632 356 654 378 q 572 333 610 333 l 317 333 l 317 188 l 674 188 q 691 147 683 172 q 699 94 699 122 q 676 19 699 42 q 615 -4 653 -4 l 210 -4 q 115 31 150 -4 q 81 125 81 65 l 81 713 m 378 1019 q 301 965 335 988 q 238 919 268 942 q 167 944 196 919 q 139 1004 139 968 q 152 1053 139 1032 q 203 1100 165 1074 l 253 1136 q 317 1173 288 1160 q 375 1186 347 1186 q 439 1174 413 1186 q 501 1129 465 1161 l 614 1031 q 594 953 614 983 q 531 924 574 924 q 505 926 517 924 q 479 936 493 929 q 449 956 465 943 q 410 990 432 969 l 378 1019 z "},"Ë":{"ha":751,"x_min":81,"x_max":699,"o":"m 81 713 q 115 807 81 772 q 210 842 150 842 l 668 842 q 685 801 678 826 q 693 749 693 776 q 670 674 693 696 q 610 651 647 651 l 317 651 l 317 522 l 629 522 q 647 483 639 507 q 654 431 654 458 q 632 356 654 378 q 572 333 610 333 l 317 333 l 317 188 l 674 188 q 691 147 683 172 q 699 94 699 122 q 676 19 699 42 q 615 -4 653 -4 l 210 -4 q 115 31 150 -4 q 81 125 81 65 l 81 713 m 97 1051 q 132 1135 97 1100 q 218 1171 167 1171 q 310 1135 276 1171 q 343 1051 343 1100 q 310 967 343 1003 q 218 932 276 932 q 171 942 193 932 q 132 967 149 951 q 106 1005 115 983 q 97 1051 97 1026 m 408 1051 q 441 1135 408 1100 q 532 1171 474 1171 q 581 1161 558 1171 q 619 1135 603 1151 q 645 1097 636 1118 q 654 1051 654 1075 q 619 967 654 1003 q 532 932 585 932 q 441 967 474 932 q 408 1051 408 1003 z "},"Ì":{"ha":424,"x_min":-10,"x_max":379,"o":"m 1 1008 q -8 1039 -6 1024 q -10 1067 -10 1054 q 17 1139 -10 1111 q 92 1167 44 1167 q 139 1158 117 1167 q 189 1133 161 1149 l 378 1036 q 379 1025 379 1031 q 379 1014 379 1019 q 355 936 379 965 q 294 907 331 907 q 215 925 260 907 l 1 1008 m 333 6 q 285 -3 318 1 q 221 -7 253 -7 q 165 -2 189 -7 q 124 15 140 3 q 99 50 107 28 q 90 108 90 72 l 90 842 q 139 849 106 844 q 203 854 172 854 q 259 849 235 854 q 300 832 283 844 q 325 797 317 819 q 333 739 333 775 l 333 6 z "},"Í":{"ha":424,"x_min":58,"x_max":432,"o":"m 306 1182 q 403 1149 374 1176 q 432 1086 432 1122 q 409 1022 432 1046 q 338 979 386 999 l 147 904 q 83 938 107 913 q 58 993 58 963 q 69 1031 58 1013 q 101 1060 79 1049 l 306 1182 m 333 6 q 285 -3 318 1 q 221 -7 253 -7 q 165 -2 189 -7 q 124 15 140 3 q 99 50 107 28 q 90 108 90 72 l 90 842 q 139 849 106 844 q 203 854 172 854 q 259 849 235 854 q 300 832 283 844 q 325 797 317 819 q 333 739 333 775 l 333 6 z "},"Î":{"ha":424,"x_min":-26,"x_max":449,"o":"m 213 1019 q 136 965 169 988 q 72 919 103 942 q 2 944 31 919 q -26 1004 -26 968 q -13 1053 -26 1032 q 38 1100 0 1074 l 88 1136 q 152 1173 122 1160 q 210 1186 182 1186 q 274 1174 247 1186 q 336 1129 300 1161 l 449 1031 q 428 953 449 983 q 365 924 408 924 q 340 926 351 924 q 314 936 328 929 q 283 956 300 943 q 244 990 267 969 l 213 1019 m 333 6 q 285 -3 318 1 q 221 -7 253 -7 q 165 -2 189 -7 q 124 15 140 3 q 99 50 107 28 q 90 108 90 72 l 90 842 q 139 849 106 844 q 203 854 172 854 q 259 849 235 854 q 300 832 283 844 q 325 797 317 819 q 333 739 333 775 l 333 6 z "},"Ï":{"ha":424,"x_min":-74,"x_max":483,"o":"m -74 1049 q -39 1133 -74 1097 q 47 1168 -4 1168 q 139 1133 106 1168 q 172 1049 172 1097 q 139 965 172 1000 q 47 929 106 929 q 0 939 22 929 q -39 965 -22 949 q -65 1002 -56 981 q -74 1049 -74 1024 m 238 1049 q 270 1133 238 1097 q 361 1168 303 1168 q 410 1158 388 1168 q 449 1132 432 1149 q 474 1094 465 1115 q 483 1049 483 1072 q 449 965 483 1000 q 361 929 414 929 q 270 965 303 929 q 238 1049 238 1000 m 333 6 q 285 -3 318 1 q 221 -7 253 -7 q 165 -2 189 -7 q 124 15 140 3 q 99 50 107 28 q 90 108 90 72 l 90 842 q 139 849 106 844 q 203 854 172 854 q 259 849 235 854 q 300 832 283 844 q 325 797 317 819 q 333 739 333 775 l 333 6 z "},"Ð":{"ha":972,"x_min":28,"x_max":924,"o":"m 53 331 q 35 371 43 346 q 28 424 28 396 q 51 499 28 476 q 111 521 75 521 l 138 521 l 138 763 q 153 808 138 792 q 197 833 169 824 q 324 859 257 853 q 443 865 390 865 q 640 839 551 865 q 791 758 728 813 q 889 619 854 703 q 924 422 924 536 q 890 228 924 311 q 795 90 857 146 q 647 6 733 33 q 457 -22 561 -22 q 403 -21 433 -22 q 340 -15 372 -19 q 274 -5 307 -11 q 214 13 242 1 q 138 114 138 42 l 138 331 l 53 331 m 379 181 q 417 176 394 178 q 458 174 439 174 q 545 188 506 174 q 613 231 585 201 q 658 306 642 260 q 674 418 674 353 q 615 606 674 543 q 460 669 557 669 q 420 668 440 669 q 379 664 400 667 l 379 521 l 511 521 q 528 481 521 506 q 536 428 536 456 q 513 353 536 375 q 453 331 489 331 l 379 331 l 379 181 z "},"Ñ":{"ha":924,"x_min":81,"x_max":843,"o":"m 843 29 q 787 -1 824 10 q 699 -11 750 -11 q 601 4 647 -11 q 526 78 556 19 l 389 358 q 351 440 368 401 q 315 528 335 478 l 307 526 q 313 374 313 451 q 314 221 314 296 l 314 6 q 267 -3 299 1 q 206 -7 236 -7 q 151 -3 175 -7 q 113 14 128 1 q 89 48 97 26 q 81 104 81 69 l 81 799 q 140 840 100 826 q 226 854 181 854 q 324 838 278 854 q 399 765 371 822 l 538 485 q 575 403 558 442 q 611 315 592 365 l 618 317 q 611 467 613 392 q 610 617 610 542 l 610 842 q 656 850 625 846 q 718 854 688 854 q 811 833 779 854 q 843 743 843 811 l 843 29 m 469 1133 q 511 1122 494 1126 q 539 1118 528 1118 q 586 1136 569 1118 q 610 1167 603 1154 q 691 1135 658 1167 q 724 1056 724 1104 q 685 964 724 993 q 588 935 646 935 q 549 937 568 935 q 506 946 529 939 l 450 963 q 417 972 431 968 q 392 975 404 975 q 345 958 361 975 q 321 926 329 940 q 240 958 272 926 q 207 1038 207 989 q 219 1091 207 1068 q 250 1129 231 1114 q 294 1151 269 1144 q 343 1158 318 1158 q 387 1154 361 1158 q 469 1133 413 1150 z "},"Ò":{"ha":976,"x_min":49,"x_max":928,"o":"m 49 422 q 83 614 49 531 q 176 753 117 697 q 315 839 235 810 q 488 868 394 868 q 660 839 581 868 q 800 753 740 810 q 894 614 860 697 q 928 422 928 531 q 894 230 928 314 q 802 90 861 146 q 663 4 743 33 q 488 -25 582 -25 q 313 5 393 -25 q 174 92 232 35 q 82 232 115 149 q 49 422 49 315 m 299 422 q 350 233 299 296 q 488 171 401 171 q 626 233 575 171 q 678 422 678 296 q 627 610 678 547 q 489 672 576 672 q 351 610 403 672 q 299 422 299 549 m 296 1008 q 287 1039 289 1024 q 285 1067 285 1054 q 312 1139 285 1111 q 386 1167 339 1167 q 433 1158 411 1167 q 483 1133 456 1149 l 672 1036 q 674 1025 674 1031 q 674 1014 674 1019 q 649 936 674 965 q 589 907 625 907 q 510 925 554 907 l 296 1008 z "},"Ó":{"ha":976,"x_min":49,"x_max":928,"o":"m 49 422 q 83 614 49 531 q 176 753 117 697 q 315 839 235 810 q 488 868 394 868 q 660 839 581 868 q 800 753 740 810 q 894 614 860 697 q 928 422 928 531 q 894 230 928 314 q 802 90 861 146 q 663 4 743 33 q 488 -25 582 -25 q 313 5 393 -25 q 174 92 232 35 q 82 232 115 149 q 49 422 49 315 m 299 422 q 350 233 299 296 q 488 171 401 171 q 626 233 575 171 q 678 422 678 296 q 627 610 678 547 q 489 672 576 672 q 351 610 403 672 q 299 422 299 549 m 564 1182 q 661 1149 632 1176 q 690 1086 690 1122 q 667 1022 690 1046 q 596 979 644 999 l 406 904 q 341 938 365 913 q 317 993 317 963 q 327 1031 317 1013 q 360 1060 338 1049 l 564 1182 z "},"Ô":{"ha":976,"x_min":49,"x_max":928,"o":"m 49 422 q 83 614 49 531 q 176 753 117 697 q 315 839 235 810 q 488 868 394 868 q 660 839 581 868 q 800 753 740 810 q 894 614 860 697 q 928 422 928 531 q 894 230 928 314 q 802 90 861 146 q 663 4 743 33 q 488 -25 582 -25 q 313 5 393 -25 q 174 92 232 35 q 82 232 115 149 q 49 422 49 315 m 299 422 q 350 233 299 296 q 488 171 401 171 q 626 233 575 171 q 678 422 678 296 q 627 610 678 547 q 489 672 576 672 q 351 610 403 672 q 299 422 299 549 m 494 1019 q 418 965 451 988 q 354 919 385 942 q 284 944 313 919 q 256 1004 256 968 q 269 1053 256 1032 q 319 1100 282 1074 l 369 1136 q 434 1173 404 1160 q 492 1186 464 1186 q 556 1174 529 1186 q 618 1129 582 1161 l 731 1031 q 710 953 731 983 q 647 924 690 924 q 622 926 633 924 q 596 936 610 929 q 565 956 582 943 q 526 990 549 969 l 494 1019 z "},"Õ":{"ha":976,"x_min":49,"x_max":928,"o":"m 49 422 q 83 614 49 531 q 176 753 117 697 q 315 839 235 810 q 488 868 394 868 q 660 839 581 868 q 800 753 740 810 q 894 614 860 697 q 928 422 928 531 q 894 230 928 314 q 802 90 861 146 q 663 4 743 33 q 488 -25 582 -25 q 313 5 393 -25 q 174 92 232 35 q 82 232 115 149 q 49 422 49 315 m 299 422 q 350 233 299 296 q 488 171 401 171 q 626 233 575 171 q 678 422 678 296 q 627 610 678 547 q 489 672 576 672 q 351 610 403 672 q 299 422 299 549 m 496 1146 q 538 1135 521 1139 q 565 1131 554 1131 q 613 1149 596 1131 q 636 1179 629 1167 q 717 1148 685 1179 q 750 1068 750 1117 q 711 976 750 1006 q 614 947 672 947 q 575 949 594 947 q 532 958 556 951 l 476 975 q 444 984 457 981 q 418 988 431 988 q 372 970 388 988 q 347 939 356 953 q 266 970 299 939 q 233 1050 233 1001 q 245 1103 233 1081 q 276 1142 257 1126 q 320 1164 296 1157 q 369 1171 344 1171 q 413 1167 388 1171 q 496 1146 439 1163 z "},"Ö":{"ha":976,"x_min":49,"x_max":928,"o":"m 49 422 q 83 614 49 531 q 176 753 117 697 q 315 839 235 810 q 488 868 394 868 q 660 839 581 868 q 800 753 740 810 q 894 614 860 697 q 928 422 928 531 q 894 230 928 314 q 802 90 861 146 q 663 4 743 33 q 488 -25 582 -25 q 313 5 393 -25 q 174 92 232 35 q 82 232 115 149 q 49 422 49 315 m 299 422 q 350 233 299 296 q 488 171 401 171 q 626 233 575 171 q 678 422 678 296 q 627 610 678 547 q 489 672 576 672 q 351 610 403 672 q 299 422 299 549 m 207 1049 q 242 1133 207 1097 q 328 1168 276 1168 q 419 1133 386 1168 q 453 1049 453 1097 q 419 965 453 1000 q 328 929 386 929 q 281 939 303 929 q 242 965 258 949 q 216 1002 225 981 q 207 1049 207 1024 m 518 1049 q 551 1133 518 1097 q 642 1168 583 1168 q 690 1158 668 1168 q 729 1132 713 1149 q 755 1094 746 1115 q 764 1049 764 1072 q 729 965 764 1000 q 642 929 694 929 q 551 965 583 929 q 518 1049 518 1000 z "},"×":{"ha":700,"x_min":39,"x_max":661,"o":"m 526 701 q 603 654 569 688 q 636 581 636 621 q 628 547 636 564 q 600 510 619 529 l 490 396 l 661 199 q 614 122 646 150 q 536 93 582 93 q 499 102 521 93 q 463 131 478 111 l 347 269 l 175 83 q 124 99 147 88 q 83 127 100 111 q 56 162 65 143 q 46 199 46 181 q 82 265 46 228 l 211 404 l 39 581 q 56 622 44 601 q 85 659 68 643 q 121 685 101 675 q 161 694 140 694 q 225 664 199 694 l 356 522 l 526 701 z "},"Ø":{"ha":976,"x_min":49,"x_max":928,"o":"m 49 422 q 83 614 49 531 q 176 753 117 697 q 315 839 235 810 q 488 868 394 868 q 646 843 572 868 l 704 940 q 794 916 760 940 q 829 860 829 892 q 817 812 829 838 q 790 763 806 786 q 891 619 854 704 q 928 422 928 535 q 894 230 928 314 q 802 90 861 146 q 663 4 743 33 q 488 -25 582 -25 q 325 0 400 -25 l 268 -96 q 176 -71 210 -96 q 143 -11 143 -46 q 155 35 143 8 q 181 85 167 61 q 83 227 118 143 q 49 422 49 311 m 488 171 q 630 233 575 171 q 685 422 685 296 q 679 493 685 461 q 663 553 674 525 l 435 176 q 488 171 457 171 m 292 422 q 297 349 292 382 q 314 289 303 317 l 540 665 q 489 672 513 672 q 347 610 403 672 q 292 422 292 547 z "},"Ù":{"ha":922,"x_min":86,"x_max":836,"o":"m 836 311 q 810 174 836 236 q 736 69 785 113 q 618 1 688 25 q 461 -22 549 -22 q 304 1 374 -22 q 186 69 235 25 q 112 174 138 113 q 86 311 86 236 l 86 842 q 135 849 101 844 q 199 854 168 854 q 255 849 231 854 q 296 832 279 844 q 321 797 313 819 q 329 739 329 775 l 329 315 q 366 211 329 249 q 461 174 403 174 q 557 211 521 174 q 593 315 593 249 l 593 842 q 642 849 608 844 q 706 854 675 854 q 762 849 738 854 q 803 832 786 844 q 828 797 819 819 q 836 739 836 775 l 836 311 m 251 1008 q 242 1039 244 1024 q 240 1067 240 1054 q 267 1139 240 1111 q 342 1167 294 1167 q 389 1158 367 1167 q 439 1133 411 1149 l 628 1036 q 629 1025 629 1031 q 629 1014 629 1019 q 605 936 629 965 q 544 907 581 907 q 465 925 510 907 l 251 1008 z "},"Ú":{"ha":922,"x_min":86,"x_max":836,"o":"m 836 311 q 810 174 836 236 q 736 69 785 113 q 618 1 688 25 q 461 -22 549 -22 q 304 1 374 -22 q 186 69 235 25 q 112 174 138 113 q 86 311 86 236 l 86 842 q 135 849 101 844 q 199 854 168 854 q 255 849 231 854 q 296 832 279 844 q 321 797 313 819 q 329 739 329 775 l 329 315 q 366 211 329 249 q 461 174 403 174 q 557 211 521 174 q 593 315 593 249 l 593 842 q 642 849 608 844 q 706 854 675 854 q 762 849 738 854 q 803 832 786 844 q 828 797 819 819 q 836 739 836 775 l 836 311 m 540 1182 q 638 1149 608 1176 q 667 1086 667 1122 q 644 1022 667 1046 q 572 979 621 999 l 382 904 q 317 938 342 913 q 293 993 293 963 q 303 1031 293 1013 q 336 1060 314 1049 l 540 1182 z "},"Û":{"ha":922,"x_min":86,"x_max":836,"o":"m 836 311 q 810 174 836 236 q 736 69 785 113 q 618 1 688 25 q 461 -22 549 -22 q 304 1 374 -22 q 186 69 235 25 q 112 174 138 113 q 86 311 86 236 l 86 842 q 135 849 101 844 q 199 854 168 854 q 255 849 231 854 q 296 832 279 844 q 321 797 313 819 q 329 739 329 775 l 329 315 q 366 211 329 249 q 461 174 403 174 q 557 211 521 174 q 593 315 593 249 l 593 842 q 642 849 608 844 q 706 854 675 854 q 762 849 738 854 q 803 832 786 844 q 828 797 819 819 q 836 739 836 775 l 836 311 m 468 1019 q 392 965 425 988 q 328 919 358 942 q 258 944 286 919 q 229 1004 229 968 q 242 1053 229 1032 q 293 1100 256 1074 l 343 1136 q 408 1173 378 1160 q 465 1186 438 1186 q 529 1174 503 1186 q 592 1129 556 1161 l 704 1031 q 684 953 704 983 q 621 924 664 924 q 595 926 607 924 q 569 936 583 929 q 539 956 556 943 q 500 990 522 969 l 468 1019 z "},"Ü":{"ha":922,"x_min":86,"x_max":836,"o":"m 836 311 q 810 174 836 236 q 736 69 785 113 q 618 1 688 25 q 461 -22 549 -22 q 304 1 374 -22 q 186 69 235 25 q 112 174 138 113 q 86 311 86 236 l 86 842 q 135 849 101 844 q 199 854 168 854 q 255 849 231 854 q 296 832 279 844 q 321 797 313 819 q 329 739 329 775 l 329 315 q 366 211 329 249 q 461 174 403 174 q 557 211 521 174 q 593 315 593 249 l 593 842 q 642 849 608 844 q 706 854 675 854 q 762 849 738 854 q 803 832 786 844 q 828 797 819 819 q 836 739 836 775 l 836 311 m 179 1049 q 214 1133 179 1097 q 300 1168 249 1168 q 392 1133 358 1168 q 425 1049 425 1097 q 392 965 425 1000 q 300 929 358 929 q 253 939 275 929 q 214 965 231 949 q 188 1002 197 981 q 179 1049 179 1024 m 490 1049 q 523 1133 490 1097 q 614 1168 556 1168 q 663 1158 640 1168 q 701 1132 685 1149 q 727 1094 718 1115 q 736 1049 736 1072 q 701 965 736 1000 q 614 929 667 929 q 523 965 556 929 q 490 1049 490 1000 z "},"Ý":{"ha":797,"x_min":14,"x_max":774,"o":"m 532 6 q 485 -3 517 1 q 422 -7 453 -7 q 326 15 358 -7 q 294 106 294 36 l 294 293 q 219 407 260 344 q 140 535 179 469 q 68 663 101 600 q 14 779 35 726 q 63 825 32 804 q 140 846 94 846 q 228 824 194 846 q 293 740 263 801 l 408 508 l 417 508 q 451 587 436 551 q 479 658 465 622 q 508 731 493 693 q 543 819 524 769 q 599 839 568 832 q 657 846 629 846 q 740 820 706 846 q 774 743 774 794 q 767 703 774 726 q 735 631 760 679 q 662 501 710 583 q 532 288 614 419 l 532 6 m 493 1182 q 590 1149 561 1176 q 619 1086 619 1122 q 597 1022 619 1046 q 525 979 574 999 l 335 904 q 270 938 294 913 q 246 993 246 963 q 256 1031 246 1013 q 289 1060 267 1049 l 493 1182 z "},"Þ":{"ha":829,"x_min":83,"x_max":767,"o":"m 325 536 l 325 317 l 399 317 q 488 344 457 317 q 519 426 519 371 q 488 509 519 482 q 399 536 457 536 l 325 536 m 326 726 l 425 726 q 574 705 510 726 q 681 644 639 683 q 745 549 724 604 q 767 426 767 494 q 745 303 767 358 q 681 209 724 249 q 574 148 639 169 q 425 126 510 126 l 326 126 l 326 1 q 278 -7 311 -3 q 214 -11 246 -11 q 158 -6 182 -11 q 117 11 133 -1 q 92 46 100 24 q 83 104 83 68 l 83 853 q 131 861 99 857 q 196 865 164 865 q 252 860 228 865 q 293 843 276 856 q 318 808 310 831 q 326 750 326 786 l 326 726 z "},"ß":{"ha":867,"x_min":75,"x_max":825,"o":"m 75 606 q 101 737 75 681 q 175 831 128 793 q 285 886 222 868 q 422 904 349 904 q 563 884 499 904 q 673 826 626 864 q 746 733 719 788 q 772 608 772 678 q 762 551 772 574 q 724 517 751 528 l 663 492 q 624 444 624 476 q 634 419 624 429 q 661 401 644 408 q 729 365 699 385 q 781 321 760 346 q 813 265 801 296 q 825 193 825 233 q 803 97 825 138 q 745 29 782 56 q 661 -10 708 3 q 564 -24 614 -24 q 430 3 481 -24 q 379 82 379 29 q 392 136 379 114 q 425 172 406 158 q 468 154 444 161 q 519 147 492 147 q 565 158 547 147 q 583 188 583 168 q 569 219 583 207 q 528 247 556 232 q 419 331 456 286 q 382 447 382 375 q 424 550 382 508 q 536 615 465 592 q 502 687 532 661 q 425 713 472 713 q 343 682 375 713 q 311 592 311 651 l 311 1 q 267 -7 297 -3 q 206 -11 238 -11 q 151 -7 175 -11 q 110 10 126 -3 q 84 44 93 22 q 75 100 75 65 l 75 606 z "},"à":{"ha":756,"x_min":39,"x_max":683,"o":"m 361 150 q 413 155 385 150 q 456 168 442 160 l 456 279 l 356 271 q 292 254 317 268 q 267 213 267 240 q 288 167 267 185 q 361 150 310 150 m 350 696 q 487 681 425 696 q 592 634 549 665 q 660 555 636 603 q 683 442 683 507 l 683 131 q 663 72 683 94 q 615 32 643 49 q 361 -22 525 -22 q 228 -8 288 -22 q 127 33 169 6 q 62 104 85 61 q 39 204 39 147 q 96 351 39 300 q 272 415 153 403 l 454 435 l 454 444 q 419 502 454 485 q 317 519 383 519 q 214 508 264 519 q 124 481 164 497 q 93 519 106 493 q 81 572 81 544 q 98 630 81 608 q 151 667 115 651 q 247 689 192 682 q 350 696 301 696 m 185 893 q 182 921 182 907 q 208 1006 182 974 q 281 1038 235 1038 q 339 1024 315 1038 q 392 985 363 1010 l 549 853 q 519 768 546 800 q 457 736 492 736 q 413 745 435 736 q 368 769 390 754 l 185 893 z "},"á":{"ha":756,"x_min":39,"x_max":683,"o":"m 361 150 q 413 155 385 150 q 456 168 442 160 l 456 279 l 356 271 q 292 254 317 268 q 267 213 267 240 q 288 167 267 185 q 361 150 310 150 m 350 696 q 487 681 425 696 q 592 634 549 665 q 660 555 636 603 q 683 442 683 507 l 683 131 q 663 72 683 94 q 615 32 643 49 q 361 -22 525 -22 q 228 -8 288 -22 q 127 33 169 6 q 62 104 85 61 q 39 204 39 147 q 96 351 39 300 q 272 415 153 403 l 454 435 l 454 444 q 419 502 454 485 q 317 519 383 519 q 214 508 264 519 q 124 481 164 497 q 93 519 106 493 q 81 572 81 544 q 98 630 81 608 q 151 667 115 651 q 247 689 192 682 q 350 696 301 696 m 400 1033 q 505 1006 472 1033 q 538 939 538 978 q 518 878 538 903 q 454 831 499 854 l 275 736 q 204 769 233 740 q 175 832 175 799 q 183 865 175 849 q 211 896 192 882 l 400 1033 z "},"â":{"ha":756,"x_min":39,"x_max":683,"o":"m 361 150 q 413 155 385 150 q 456 168 442 160 l 456 279 l 356 271 q 292 254 317 268 q 267 213 267 240 q 288 167 267 185 q 361 150 310 150 m 350 696 q 487 681 425 696 q 592 634 549 665 q 660 555 636 603 q 683 442 683 507 l 683 131 q 663 72 683 94 q 615 32 643 49 q 361 -22 525 -22 q 228 -8 288 -22 q 127 33 169 6 q 62 104 85 61 q 39 204 39 147 q 96 351 39 300 q 272 415 153 403 l 454 435 l 454 444 q 419 502 454 485 q 317 519 383 519 q 214 508 264 519 q 124 481 164 497 q 93 519 106 493 q 81 572 81 544 q 98 630 81 608 q 151 667 115 651 q 247 689 192 682 q 350 696 301 696 m 375 864 q 301 799 328 824 q 249 750 275 774 q 163 776 194 750 q 131 842 131 801 q 146 892 131 869 q 197 940 161 914 l 265 989 q 326 1023 299 1013 q 381 1033 353 1033 q 413 1031 399 1033 q 443 1022 428 1029 q 476 999 458 1014 q 522 961 494 985 l 619 875 q 622 863 621 868 q 622 850 622 857 q 599 780 622 807 q 533 753 576 753 q 508 755 519 753 q 485 764 497 757 q 458 784 474 771 q 422 819 443 797 l 375 864 z "},"ã":{"ha":756,"x_min":39,"x_max":683,"o":"m 361 150 q 413 155 385 150 q 456 168 442 160 l 456 279 l 356 271 q 292 254 317 268 q 267 213 267 240 q 288 167 267 185 q 361 150 310 150 m 350 696 q 487 681 425 696 q 592 634 549 665 q 660 555 636 603 q 683 442 683 507 l 683 131 q 663 72 683 94 q 615 32 643 49 q 361 -22 525 -22 q 228 -8 288 -22 q 127 33 169 6 q 62 104 85 61 q 39 204 39 147 q 96 351 39 300 q 272 415 153 403 l 454 435 l 454 444 q 419 502 454 485 q 317 519 383 519 q 214 508 264 519 q 124 481 164 497 q 93 519 106 493 q 81 572 81 544 q 98 630 81 608 q 151 667 115 651 q 247 689 192 682 q 350 696 301 696 m 381 968 q 422 957 406 961 q 450 953 439 953 q 497 971 481 953 q 521 1001 514 989 q 602 970 569 1001 q 635 890 635 939 q 596 799 635 828 q 499 769 557 769 q 460 772 479 769 q 417 781 440 774 l 361 797 q 328 806 342 803 q 303 810 315 810 q 256 792 272 810 q 232 761 240 775 q 151 792 183 761 q 118 872 118 824 q 130 926 118 903 q 161 964 142 949 q 205 986 181 979 q 254 993 229 993 q 298 989 272 993 q 381 968 324 985 z "},"ä":{"ha":756,"x_min":39,"x_max":683,"o":"m 361 150 q 413 155 385 150 q 456 168 442 160 l 456 279 l 356 271 q 292 254 317 268 q 267 213 267 240 q 288 167 267 185 q 361 150 310 150 m 350 696 q 487 681 425 696 q 592 634 549 665 q 660 555 636 603 q 683 442 683 507 l 683 131 q 663 72 683 94 q 615 32 643 49 q 361 -22 525 -22 q 228 -8 288 -22 q 127 33 169 6 q 62 104 85 61 q 39 204 39 147 q 96 351 39 300 q 272 415 153 403 l 454 435 l 454 444 q 419 502 454 485 q 317 519 383 519 q 214 508 264 519 q 124 481 164 497 q 93 519 106 493 q 81 572 81 544 q 98 630 81 608 q 151 667 115 651 q 247 689 192 682 q 350 696 301 696 m 104 885 q 139 969 104 933 q 225 1004 174 1004 q 317 969 283 1004 q 350 885 350 933 q 317 801 350 836 q 225 765 283 765 q 178 775 200 765 q 139 801 156 785 q 113 838 122 817 q 104 885 104 860 m 415 885 q 448 969 415 933 q 539 1004 481 1004 q 588 994 565 1004 q 626 968 610 985 q 652 930 643 951 q 661 885 661 908 q 626 801 661 836 q 539 765 592 765 q 448 801 481 765 q 415 885 415 836 z "},"å":{"ha":756,"x_min":39,"x_max":683,"o":"m 361 150 q 413 155 385 150 q 456 168 442 160 l 456 279 l 356 271 q 292 254 317 268 q 267 213 267 240 q 288 167 267 185 q 361 150 310 150 m 350 696 q 487 681 425 696 q 592 634 549 665 q 660 555 636 603 q 683 442 683 507 l 683 131 q 663 72 683 94 q 615 32 643 49 q 361 -22 525 -22 q 228 -8 288 -22 q 127 33 169 6 q 62 104 85 61 q 39 204 39 147 q 96 351 39 300 q 272 415 153 403 l 454 435 l 454 444 q 419 502 454 485 q 317 519 383 519 q 214 508 264 519 q 124 481 164 497 q 93 519 106 493 q 81 572 81 544 q 98 630 81 608 q 151 667 115 651 q 247 689 192 682 q 350 696 301 696 m 189 890 q 238 1001 189 956 q 372 1046 288 1046 q 513 1001 463 1046 q 563 890 563 956 q 513 781 563 825 q 372 736 463 736 q 238 781 288 736 q 189 890 189 825 m 329 890 q 342 856 329 868 q 374 843 356 843 q 408 856 394 843 q 421 890 421 868 q 408 925 421 913 q 374 938 394 938 q 342 925 356 938 q 329 890 329 913 z "},"æ":{"ha":1157,"x_min":39,"x_max":1114,"o":"m 822 -22 q 701 -6 758 -22 q 600 43 644 11 q 483 -8 547 7 q 356 -22 419 -22 q 226 -8 285 -22 q 126 33 168 6 q 62 104 85 61 q 39 204 39 147 q 96 350 39 300 q 272 415 153 400 l 431 435 l 431 444 q 398 502 431 485 q 310 519 365 519 q 212 508 260 519 q 124 481 164 497 q 93 519 106 493 q 81 572 81 544 q 98 630 81 608 q 151 667 115 651 q 244 689 192 682 q 343 696 296 696 q 474 678 415 696 q 574 622 533 660 q 672 678 618 660 q 783 696 725 696 q 917 674 857 696 q 1022 613 978 651 q 1090 519 1065 574 q 1114 401 1114 465 q 1088 329 1114 354 q 1014 297 1061 304 l 671 246 q 733 177 686 200 q 842 154 781 154 q 949 169 899 154 q 1032 203 1000 183 q 1069 164 1054 189 q 1085 111 1085 139 q 1026 18 1085 49 q 926 -14 982 -6 q 822 -22 871 -22 m 783 524 q 726 513 750 524 q 686 484 701 501 q 663 445 671 467 q 654 401 656 424 l 892 440 q 861 496 888 468 q 783 524 835 524 m 356 150 q 399 156 375 150 q 432 168 422 161 l 432 279 l 356 271 q 292 253 317 267 q 267 213 267 240 q 287 167 267 185 q 356 150 307 150 z "},"ç":{"ha":686,"x_min":43,"x_max":633,"o":"m 321 -10 q 206 35 257 4 q 118 110 154 65 q 63 210 82 154 q 43 333 43 267 q 73 494 43 425 q 154 607 103 563 q 273 674 206 651 q 415 696 340 696 q 569 660 515 696 q 624 567 624 624 q 611 517 624 540 q 582 478 599 494 q 525 499 558 489 q 453 510 492 510 q 387 499 418 510 q 333 466 356 488 q 296 413 310 444 q 282 338 282 381 q 331 208 282 251 q 451 165 381 165 q 524 175 493 165 q 578 196 554 185 q 619 153 606 176 q 633 99 633 131 q 601 26 633 56 q 508 -14 568 -3 q 525 -65 519 -33 q 531 -121 531 -97 q 486 -238 531 -192 q 363 -285 442 -285 q 269 -256 306 -285 q 233 -175 233 -228 q 239 -133 233 -151 q 308 -112 283 -131 q 333 -61 333 -93 q 330 -34 333 -47 q 321 -10 326 -21 z "},"è":{"ha":764,"x_min":43,"x_max":721,"o":"m 429 -22 q 277 1 347 -22 q 155 69 207 24 q 73 185 103 115 q 43 347 43 254 q 73 505 43 439 q 151 613 103 571 q 263 676 200 656 q 390 696 325 696 q 524 674 464 696 q 628 613 585 651 q 697 519 672 574 q 721 401 721 465 q 694 329 721 354 q 621 297 668 304 l 278 246 q 340 177 293 200 q 449 154 388 154 q 556 169 506 154 q 639 203 607 183 q 676 164 661 189 q 692 111 692 139 q 633 18 692 49 q 533 -14 589 -6 q 429 -22 478 -22 m 390 524 q 333 513 357 524 q 293 484 308 501 q 270 445 278 467 q 261 401 263 424 l 499 440 q 468 496 494 468 q 390 524 442 524 m 188 893 q 185 921 185 907 q 211 1006 185 974 q 283 1038 238 1038 q 342 1024 318 1038 q 394 985 365 1010 l 551 853 q 522 768 549 800 q 460 736 494 736 q 415 745 438 736 q 371 769 393 754 l 188 893 z "},"é":{"ha":764,"x_min":43,"x_max":721,"o":"m 429 -22 q 277 1 347 -22 q 155 69 207 24 q 73 185 103 115 q 43 347 43 254 q 73 505 43 439 q 151 613 103 571 q 263 676 200 656 q 390 696 325 696 q 524 674 464 696 q 628 613 585 651 q 697 519 672 574 q 721 401 721 465 q 694 329 721 354 q 621 297 668 304 l 278 246 q 340 177 293 200 q 449 154 388 154 q 556 169 506 154 q 639 203 607 183 q 676 164 661 189 q 692 111 692 139 q 633 18 692 49 q 533 -14 589 -6 q 429 -22 478 -22 m 390 524 q 333 513 357 524 q 293 484 308 501 q 270 445 278 467 q 261 401 263 424 l 499 440 q 468 496 494 468 q 390 524 442 524 m 415 1033 q 520 1006 488 1033 q 553 939 553 978 q 533 878 553 903 q 469 831 514 854 l 290 736 q 219 769 249 740 q 190 832 190 799 q 199 865 190 849 q 226 896 207 882 l 415 1033 z "},"ê":{"ha":764,"x_min":43,"x_max":721,"o":"m 429 -22 q 277 1 347 -22 q 155 69 207 24 q 73 185 103 115 q 43 347 43 254 q 73 505 43 439 q 151 613 103 571 q 263 676 200 656 q 390 696 325 696 q 524 674 464 696 q 628 613 585 651 q 697 519 672 574 q 721 401 721 465 q 694 329 721 354 q 621 297 668 304 l 278 246 q 340 177 293 200 q 449 154 388 154 q 556 169 506 154 q 639 203 607 183 q 676 164 661 189 q 692 111 692 139 q 633 18 692 49 q 533 -14 589 -6 q 429 -22 478 -22 m 390 524 q 333 513 357 524 q 293 484 308 501 q 270 445 278 467 q 261 401 263 424 l 499 440 q 468 496 494 468 q 390 524 442 524 m 372 864 q 299 799 325 824 q 246 750 272 774 q 160 776 192 750 q 128 842 128 801 q 143 892 128 869 q 194 940 158 914 l 263 989 q 323 1023 296 1013 q 378 1033 350 1033 q 410 1031 396 1033 q 440 1022 425 1029 q 474 999 456 1014 q 519 961 492 985 l 617 875 q 619 863 618 868 q 619 850 619 857 q 597 780 619 807 q 531 753 574 753 q 506 755 517 753 q 483 764 494 757 q 456 784 471 771 q 419 819 440 797 l 372 864 z "},"ë":{"ha":764,"x_min":43,"x_max":721,"o":"m 429 -22 q 277 1 347 -22 q 155 69 207 24 q 73 185 103 115 q 43 347 43 254 q 73 505 43 439 q 151 613 103 571 q 263 676 200 656 q 390 696 325 696 q 524 674 464 696 q 628 613 585 651 q 697 519 672 574 q 721 401 721 465 q 694 329 721 354 q 621 297 668 304 l 278 246 q 340 177 293 200 q 449 154 388 154 q 556 169 506 154 q 639 203 607 183 q 676 164 661 189 q 692 111 692 139 q 633 18 692 49 q 533 -14 589 -6 q 429 -22 478 -22 m 390 524 q 333 513 357 524 q 293 484 308 501 q 270 445 278 467 q 261 401 263 424 l 499 440 q 468 496 494 468 q 390 524 442 524 m 100 885 q 135 969 100 933 q 221 1004 169 1004 q 313 969 279 1004 q 346 885 346 933 q 313 801 346 836 q 221 765 279 765 q 174 775 196 765 q 135 801 151 785 q 109 838 118 817 q 100 885 100 860 m 411 885 q 444 969 411 933 q 535 1004 476 1004 q 583 994 561 1004 q 622 968 606 985 q 648 930 639 951 q 657 885 657 908 q 622 801 657 836 q 535 765 588 765 q 444 801 476 765 q 411 885 411 836 z "},"ì":{"ha":392,"x_min":-33,"x_max":333,"o":"m -31 893 q -33 921 -33 907 q -7 1006 -33 974 q 65 1038 19 1038 q 124 1024 100 1038 q 176 985 147 1010 l 333 853 q 303 768 331 800 q 242 736 276 736 q 197 745 219 736 q 153 769 175 754 l -31 893 m 314 1 q 269 -6 299 -1 q 208 -11 239 -11 q 153 -7 178 -11 q 113 10 129 -3 q 87 44 96 22 q 78 100 78 65 l 78 665 q 123 673 93 668 q 183 678 153 678 q 238 674 214 678 q 279 657 263 669 q 305 623 296 644 q 314 567 314 601 l 314 1 z "},"í":{"ha":392,"x_min":56,"x_max":418,"o":"m 281 1033 q 385 1006 353 1033 q 418 939 418 978 q 399 878 418 903 q 335 831 379 854 l 156 736 q 85 769 114 740 q 56 832 56 799 q 64 865 56 849 q 92 896 72 882 l 281 1033 m 314 1 q 269 -6 299 -1 q 208 -11 239 -11 q 153 -7 178 -11 q 113 10 129 -3 q 87 44 96 22 q 78 100 78 65 l 78 665 q 123 673 93 668 q 183 678 153 678 q 238 674 214 678 q 279 657 263 669 q 305 623 296 644 q 314 567 314 601 l 314 1 z "},"î":{"ha":392,"x_min":-50,"x_max":442,"o":"m 314 1 q 269 -6 299 -1 q 208 -11 239 -11 q 153 -7 178 -11 q 113 10 129 -3 q 87 44 96 22 q 78 100 78 65 l 78 665 q 123 673 93 668 q 183 678 153 678 q 238 674 214 678 q 279 657 263 669 q 305 623 296 644 q 314 567 314 601 l 314 1 m 194 864 q 121 799 147 824 q 68 750 94 774 q -18 776 14 750 q -50 842 -50 801 q -35 892 -50 869 q 17 940 -19 914 l 85 989 q 145 1023 118 1013 q 200 1033 172 1033 q 233 1031 218 1033 q 263 1022 247 1029 q 296 999 278 1014 q 342 961 314 985 l 439 875 q 441 863 440 868 q 442 850 442 857 q 419 780 442 807 q 353 753 396 753 q 328 755 339 753 q 305 764 317 757 q 278 784 293 771 q 242 819 263 797 l 194 864 z "},"ï":{"ha":392,"x_min":-85,"x_max":472,"o":"m -85 885 q -50 969 -85 933 q 36 1004 -15 1004 q 128 969 94 1004 q 161 885 161 933 q 128 801 161 836 q 36 765 94 765 q -11 775 11 765 q -50 801 -33 785 q -76 838 -67 817 q -85 885 -85 860 m 226 885 q 259 969 226 933 q 350 1004 292 1004 q 399 994 376 1004 q 438 968 421 985 q 463 930 454 951 q 472 885 472 908 q 438 801 472 836 q 350 765 403 765 q 259 801 292 765 q 226 885 226 836 m 314 1 q 269 -6 299 -1 q 208 -11 239 -11 q 153 -7 178 -11 q 113 10 129 -3 q 87 44 96 22 q 78 100 78 65 l 78 665 q 123 673 93 668 q 183 678 153 678 q 238 674 214 678 q 279 657 263 669 q 305 623 296 644 q 314 567 314 601 l 314 1 z "},"ð":{"ha":813,"x_min":43,"x_max":768,"o":"m 768 361 q 747 208 768 278 q 683 87 726 138 q 570 7 639 36 q 407 -22 501 -22 q 255 1 322 -22 q 140 69 188 25 q 68 174 93 113 q 43 314 43 236 q 71 454 43 394 q 144 554 99 514 q 249 615 190 594 q 368 635 307 635 q 427 631 397 635 q 476 617 457 626 q 458 662 468 640 q 435 704 449 683 l 244 650 q 217 687 229 663 q 206 739 206 711 q 251 803 206 790 l 321 824 q 292 850 306 839 q 264 875 279 861 q 318 960 279 933 q 406 988 357 988 q 490 965 453 988 q 558 911 526 943 l 701 956 q 738 913 721 942 q 754 857 754 885 q 741 809 754 825 q 704 785 728 793 l 663 769 q 701 690 682 735 q 735 594 719 646 q 759 483 750 542 q 768 361 768 424 m 414 458 q 318 418 351 458 q 285 314 285 378 q 315 203 285 243 q 408 164 346 164 q 497 205 468 164 q 525 317 525 246 q 523 366 525 340 q 515 418 521 392 q 414 458 475 458 z "},"ñ":{"ha":810,"x_min":72,"x_max":736,"o":"m 500 428 q 476 491 500 471 q 410 511 451 511 q 355 504 382 511 q 308 483 328 497 l 308 1 q 265 -7 294 -3 q 203 -11 235 -11 q 148 -7 172 -11 q 107 10 124 -3 q 81 44 90 22 q 72 100 72 65 l 72 517 q 88 578 72 554 q 132 621 104 601 q 251 675 179 654 q 410 696 322 696 q 651 627 567 696 q 736 436 736 558 l 736 1 q 692 -7 722 -3 q 631 -11 663 -11 q 576 -7 600 -11 q 535 10 551 -3 q 509 44 518 22 q 500 100 500 65 l 500 428 m 411 968 q 453 957 436 961 q 481 953 469 953 q 528 971 511 953 q 551 1001 544 989 q 633 970 600 1001 q 665 890 665 939 q 626 799 665 828 q 529 769 588 769 q 490 772 510 769 q 447 781 471 774 l 392 797 q 359 806 372 803 q 333 810 346 810 q 287 792 303 810 q 263 761 271 775 q 181 792 214 761 q 149 872 149 824 q 160 926 149 903 q 192 964 172 949 q 235 986 211 979 q 285 993 260 993 q 328 989 303 993 q 411 968 354 985 z "},"ò":{"ha":814,"x_min":43,"x_max":771,"o":"m 222 893 q 219 921 219 907 q 246 1006 219 974 q 318 1038 272 1038 q 376 1024 353 1038 q 429 985 400 1010 l 586 853 q 556 768 583 800 q 494 736 529 736 q 450 745 472 736 q 406 769 428 754 l 222 893 m 771 338 q 744 184 771 251 q 670 71 718 117 q 556 1 622 25 q 407 -22 489 -22 q 258 3 325 -22 q 144 74 192 28 q 69 188 96 121 q 43 338 43 254 q 69 486 43 419 q 144 599 96 553 q 258 671 192 646 q 407 696 325 696 q 556 670 489 696 q 670 598 622 644 q 744 485 718 551 q 771 338 771 418 m 285 338 q 317 208 285 253 q 408 163 350 163 q 498 208 467 163 q 529 338 529 254 q 497 466 529 421 q 407 511 465 511 q 317 466 349 511 q 285 338 285 421 z "},"ó":{"ha":814,"x_min":43,"x_max":771,"o":"m 450 1033 q 555 1006 522 1033 q 588 939 588 978 q 568 878 588 903 q 504 831 549 854 l 325 736 q 254 769 283 740 q 225 832 225 799 q 233 865 225 849 q 261 896 242 882 l 450 1033 m 771 338 q 744 184 771 251 q 670 71 718 117 q 556 1 622 25 q 407 -22 489 -22 q 258 3 325 -22 q 144 74 192 28 q 69 188 96 121 q 43 338 43 254 q 69 486 43 419 q 144 599 96 553 q 258 671 192 646 q 407 696 325 696 q 556 670 489 696 q 670 598 622 644 q 744 485 718 551 q 771 338 771 418 m 285 338 q 317 208 285 253 q 408 163 350 163 q 498 208 467 163 q 529 338 529 254 q 497 466 529 421 q 407 511 465 511 q 317 466 349 511 q 285 338 285 421 z "},"ô":{"ha":814,"x_min":43,"x_max":771,"o":"m 403 864 q 329 799 356 824 q 276 750 303 774 q 190 776 222 750 q 158 842 158 801 q 174 892 158 869 q 225 940 189 914 l 293 989 q 353 1023 326 1013 q 408 1033 381 1033 q 441 1031 426 1033 q 471 1022 456 1029 q 504 999 486 1014 q 550 961 522 985 l 647 875 q 649 863 649 868 q 650 850 650 857 q 627 780 650 807 q 561 753 604 753 q 536 755 547 753 q 513 764 525 757 q 486 784 501 771 q 450 819 471 797 l 403 864 m 771 338 q 744 184 771 251 q 670 71 718 117 q 556 1 622 25 q 407 -22 489 -22 q 258 3 325 -22 q 144 74 192 28 q 69 188 96 121 q 43 338 43 254 q 69 486 43 419 q 144 599 96 553 q 258 671 192 646 q 407 696 325 696 q 556 670 489 696 q 670 598 622 644 q 744 485 718 551 q 771 338 771 418 m 285 338 q 317 208 285 253 q 408 163 350 163 q 498 208 467 163 q 529 338 529 254 q 497 466 529 421 q 407 511 465 511 q 317 466 349 511 q 285 338 285 421 z "},"õ":{"ha":814,"x_min":43,"x_max":771,"o":"m 771 338 q 744 184 771 251 q 670 71 718 117 q 556 1 622 25 q 407 -22 489 -22 q 258 3 325 -22 q 144 74 192 28 q 69 188 96 121 q 43 338 43 254 q 69 486 43 419 q 144 599 96 553 q 258 671 192 646 q 407 696 325 696 q 556 670 489 696 q 670 598 622 644 q 744 485 718 551 q 771 338 771 418 m 285 338 q 317 208 285 253 q 408 163 350 163 q 498 208 467 163 q 529 338 529 254 q 497 466 529 421 q 407 511 465 511 q 317 466 349 511 q 285 338 285 421 m 414 968 q 456 957 439 961 q 483 953 472 953 q 531 971 514 953 q 554 1001 547 989 q 635 970 603 1001 q 668 890 668 939 q 629 799 668 828 q 532 769 590 769 q 493 772 513 769 q 450 781 474 774 l 394 797 q 362 806 375 803 q 336 810 349 810 q 290 792 306 810 q 265 761 274 775 q 184 792 217 761 q 151 872 151 824 q 163 926 151 903 q 194 964 175 949 q 238 986 214 979 q 288 993 263 993 q 331 989 306 993 q 414 968 357 985 z "},"ö":{"ha":814,"x_min":43,"x_max":771,"o":"m 128 885 q 163 969 128 933 q 249 1004 197 1004 q 340 969 307 1004 q 374 885 374 933 q 340 801 374 836 q 249 765 307 765 q 201 775 224 765 q 163 801 179 785 q 137 838 146 817 q 128 885 128 860 m 439 885 q 472 969 439 933 q 563 1004 504 1004 q 611 994 589 1004 q 650 968 633 985 q 676 930 667 951 q 685 885 685 908 q 650 801 685 836 q 563 765 615 765 q 472 801 504 765 q 439 885 439 836 m 771 338 q 744 184 771 251 q 670 71 718 117 q 556 1 622 25 q 407 -22 489 -22 q 258 3 325 -22 q 144 74 192 28 q 69 188 96 121 q 43 338 43 254 q 69 486 43 419 q 144 599 96 553 q 258 671 192 646 q 407 696 325 696 q 556 670 489 696 q 670 598 622 644 q 744 485 718 551 q 771 338 771 418 m 285 338 q 317 208 285 253 q 408 163 350 163 q 498 208 467 163 q 529 338 529 254 q 497 466 529 421 q 407 511 465 511 q 317 466 349 511 q 285 338 285 421 z "},"÷":{"ha":729,"x_min":42,"x_max":688,"o":"m 261 636 q 291 715 261 682 q 369 747 321 747 q 449 715 419 747 q 479 636 479 682 q 449 559 479 592 q 369 526 419 526 q 291 559 321 526 q 261 636 261 592 m 261 168 q 291 245 261 213 q 369 278 321 278 q 449 245 419 278 q 479 168 479 213 q 449 90 479 122 q 369 57 419 57 q 291 90 321 57 q 261 168 261 122 m 64 308 q 48 349 54 324 q 42 399 42 374 q 64 472 42 449 q 124 494 86 494 l 665 494 q 680 453 672 478 q 688 403 688 429 q 665 331 688 354 q 607 308 643 308 l 64 308 z "},"ø":{"ha":814,"x_min":43,"x_max":771,"o":"m 771 338 q 744 184 771 251 q 670 71 718 117 q 556 1 622 25 q 407 -22 489 -22 q 327 -15 365 -22 q 256 3 289 -8 l 196 -85 q 166 -79 182 -85 q 136 -64 150 -74 q 113 -42 122 -54 q 104 -18 104 -31 q 115 13 104 -7 l 151 65 q 71 181 99 111 q 43 338 43 250 q 69 486 43 419 q 144 599 96 553 q 258 671 192 646 q 407 696 325 696 q 560 668 489 696 l 621 760 q 649 755 633 760 q 679 741 665 750 q 703 719 693 732 q 713 693 713 707 q 703 664 713 679 l 663 606 q 742 490 714 558 q 771 338 771 422 m 268 338 q 281 253 268 288 l 453 507 q 407 514 429 514 q 306 467 343 514 q 268 338 268 421 m 408 160 q 509 207 472 160 q 546 338 546 254 q 533 421 546 385 l 363 167 q 385 161 374 163 q 408 160 396 160 z "},"ù":{"ha":808,"x_min":72,"x_max":736,"o":"m 72 665 q 116 674 86 669 q 178 678 146 678 q 233 674 208 678 q 274 657 257 669 q 299 623 290 644 q 308 567 308 601 l 308 268 q 336 187 308 211 q 417 163 364 163 q 469 168 449 163 q 500 179 489 174 l 500 665 q 544 674 514 669 q 606 678 574 678 q 660 674 636 678 q 701 657 685 669 q 727 623 718 644 q 736 567 736 601 l 736 144 q 678 40 736 75 q 562 -6 629 10 q 415 -22 494 -22 q 277 -6 340 -22 q 168 46 214 11 q 97 135 122 81 q 72 268 72 190 l 72 665 m 218 893 q 215 921 215 907 q 242 1006 215 974 q 314 1038 268 1038 q 372 1024 349 1038 q 425 985 396 1010 l 582 853 q 552 768 579 800 q 490 736 525 736 q 446 745 468 736 q 401 769 424 754 l 218 893 z "},"ú":{"ha":808,"x_min":72,"x_max":736,"o":"m 72 665 q 116 674 86 669 q 178 678 146 678 q 233 674 208 678 q 274 657 257 669 q 299 623 290 644 q 308 567 308 601 l 308 268 q 336 187 308 211 q 417 163 364 163 q 469 168 449 163 q 500 179 489 174 l 500 665 q 544 674 514 669 q 606 678 574 678 q 660 674 636 678 q 701 657 685 669 q 727 623 718 644 q 736 567 736 601 l 736 144 q 678 40 736 75 q 562 -6 629 10 q 415 -22 494 -22 q 277 -6 340 -22 q 168 46 214 11 q 97 135 122 81 q 72 268 72 190 l 72 665 m 449 1033 q 553 1006 521 1033 q 586 939 586 978 q 567 878 586 903 q 503 831 547 854 l 324 736 q 253 769 282 740 q 224 832 224 799 q 232 865 224 849 q 260 896 240 882 l 449 1033 z "},"û":{"ha":808,"x_min":72,"x_max":736,"o":"m 72 665 q 116 674 86 669 q 178 678 146 678 q 233 674 208 678 q 274 657 257 669 q 299 623 290 644 q 308 567 308 601 l 308 268 q 336 187 308 211 q 417 163 364 163 q 469 168 449 163 q 500 179 489 174 l 500 665 q 544 674 514 669 q 606 678 574 678 q 660 674 636 678 q 701 657 685 669 q 727 623 718 644 q 736 567 736 601 l 736 144 q 678 40 736 75 q 562 -6 629 10 q 415 -22 494 -22 q 277 -6 340 -22 q 168 46 214 11 q 97 135 122 81 q 72 268 72 190 l 72 665 m 400 864 q 326 799 353 824 q 274 750 300 774 q 188 776 219 750 q 156 842 156 801 q 171 892 156 869 q 222 940 186 914 l 290 989 q 351 1023 324 1013 q 406 1033 378 1033 q 438 1031 424 1033 q 468 1022 453 1029 q 501 999 483 1014 q 547 961 519 985 l 644 875 q 647 863 646 868 q 647 850 647 857 q 624 780 647 807 q 558 753 601 753 q 533 755 544 753 q 510 764 522 757 q 483 784 499 771 q 447 819 468 797 l 400 864 z "},"ü":{"ha":808,"x_min":72,"x_max":736,"o":"m 72 665 q 116 674 86 669 q 178 678 146 678 q 233 674 208 678 q 274 657 257 669 q 299 623 290 644 q 308 567 308 601 l 308 268 q 336 187 308 211 q 417 163 364 163 q 469 168 449 163 q 500 179 489 174 l 500 665 q 544 674 514 669 q 606 678 574 678 q 660 674 636 678 q 701 657 685 669 q 727 623 718 644 q 736 567 736 601 l 736 144 q 678 40 736 75 q 562 -6 629 10 q 415 -22 494 -22 q 277 -6 340 -22 q 168 46 214 11 q 97 135 122 81 q 72 268 72 190 l 72 665 m 122 885 q 157 969 122 933 q 243 1004 192 1004 q 335 969 301 1004 q 368 885 368 933 q 335 801 368 836 q 243 765 301 765 q 196 775 218 765 q 157 801 174 785 q 131 838 140 817 q 122 885 122 860 m 433 885 q 466 969 433 933 q 557 1004 499 1004 q 606 994 583 1004 q 644 968 628 985 q 670 930 661 951 q 679 885 679 908 q 644 801 679 836 q 557 765 610 765 q 466 801 499 765 q 433 885 433 836 z "},"ý":{"ha":764,"x_min":28,"x_max":732,"o":"m 178 172 q 145 250 163 207 q 109 349 128 293 q 70 476 90 404 q 28 640 50 547 q 80 674 47 660 q 151 689 113 689 q 232 669 200 689 q 279 593 264 649 l 389 211 l 394 211 q 427 314 411 258 q 458 428 443 369 q 487 547 474 488 q 510 663 500 606 q 619 689 560 689 q 700 668 668 689 q 732 596 732 647 q 722 509 732 558 q 697 404 713 460 q 659 290 681 349 q 614 174 638 231 q 565 66 590 117 q 517 -25 540 15 q 444 -136 478 -93 q 381 -203 411 -179 q 319 -237 350 -228 q 256 -246 289 -246 q 161 -211 197 -246 q 118 -121 125 -176 q 207 -44 163 -86 q 288 43 251 -1 q 237 76 264 50 q 178 172 210 101 m 436 1033 q 541 1006 508 1033 q 574 939 574 978 q 554 878 574 903 q 490 831 535 854 l 311 736 q 240 769 269 740 q 211 832 211 799 q 219 865 211 849 q 247 896 228 882 l 436 1033 z "},"þ":{"ha":819,"x_min":74,"x_max":771,"o":"m 308 185 q 344 171 325 176 q 386 165 364 165 q 529 338 529 165 q 386 510 529 510 q 344 504 364 510 q 308 490 325 499 l 308 185 m 310 678 q 421 696 361 696 q 565 673 500 696 q 675 605 629 650 q 746 493 721 560 q 771 338 771 426 q 746 182 771 249 q 675 70 721 115 q 565 2 629 25 q 421 -21 500 -21 q 310 -3 361 -21 l 310 -233 q 265 -242 296 -237 q 203 -247 235 -247 q 148 -243 172 -247 q 107 -226 124 -239 q 82 -192 90 -214 q 74 -136 74 -171 l 74 904 q 118 913 88 908 q 181 918 149 918 q 235 914 211 918 q 276 897 260 910 q 301 863 293 885 q 310 807 310 842 l 310 678 z "},"ÿ":{"ha":764,"x_min":28,"x_max":732,"o":"m 178 172 q 145 250 163 207 q 109 349 128 293 q 70 476 90 404 q 28 640 50 547 q 80 674 47 660 q 151 689 113 689 q 232 669 200 689 q 279 593 264 649 l 389 211 l 394 211 q 427 314 411 258 q 458 428 443 369 q 487 547 474 488 q 510 663 500 606 q 619 689 560 689 q 700 668 668 689 q 732 596 732 647 q 722 509 732 558 q 697 404 713 460 q 659 290 681 349 q 614 174 638 231 q 565 66 590 117 q 517 -25 540 15 q 444 -136 478 -93 q 381 -203 411 -179 q 319 -237 350 -228 q 256 -246 289 -246 q 161 -211 197 -246 q 118 -121 125 -176 q 207 -44 163 -86 q 288 43 251 -1 q 237 76 264 50 q 178 172 210 101 m 99 885 q 133 969 99 933 q 219 1004 168 1004 q 311 969 278 1004 q 344 885 344 933 q 311 801 344 836 q 219 765 278 765 q 172 775 194 765 q 133 801 150 785 q 108 838 117 817 q 99 885 99 860 m 410 885 q 442 969 410 933 q 533 1004 475 1004 q 582 994 560 1004 q 621 968 604 985 q 647 930 638 951 q 656 885 656 908 q 621 801 656 836 q 533 765 586 765 q 442 801 475 765 q 410 885 410 836 z "},"Ā":{"ha":871,"x_min":32,"x_max":847,"o":"m 269 817 q 341 843 293 831 q 438 856 389 856 q 560 835 507 856 q 629 772 614 815 q 683 604 654 700 q 742 406 713 508 q 799 205 771 304 q 847 29 826 106 q 797 -2 831 10 q 718 -14 764 -14 q 662 -8 685 -14 q 624 8 639 -3 q 601 38 610 19 q 585 79 592 56 l 560 175 l 308 175 q 286 89 297 133 q 264 3 275 44 q 223 -9 244 -4 q 171 -14 201 -14 q 66 10 100 -14 q 32 78 32 35 q 38 117 32 97 q 50 163 43 136 q 77 256 60 200 q 115 376 94 311 q 160 508 136 440 q 204 637 183 576 q 242 744 225 697 q 269 817 260 792 m 436 638 q 392 508 417 579 q 349 363 368 436 l 521 363 q 481 509 501 438 q 444 638 461 581 l 436 638 m 221 963 q 206 1001 214 978 q 199 1049 199 1024 q 219 1120 199 1100 q 275 1140 240 1140 l 643 1140 q 660 1102 654 1125 q 665 1054 665 1079 q 645 983 665 1003 q 590 963 625 963 l 221 963 z "},"ā":{"ha":756,"x_min":39,"x_max":683,"o":"m 361 150 q 413 155 385 150 q 456 168 442 160 l 456 279 l 356 271 q 292 254 317 268 q 267 213 267 240 q 288 167 267 185 q 361 150 310 150 m 350 696 q 487 681 425 696 q 592 634 549 665 q 660 555 636 603 q 683 442 683 507 l 683 131 q 663 72 683 94 q 615 32 643 49 q 361 -22 525 -22 q 228 -8 288 -22 q 127 33 169 6 q 62 104 85 61 q 39 204 39 147 q 96 351 39 300 q 272 415 153 403 l 454 435 l 454 444 q 419 502 454 485 q 317 519 383 519 q 214 508 264 519 q 124 481 164 497 q 93 519 106 493 q 81 572 81 544 q 98 630 81 608 q 151 667 115 651 q 247 689 192 682 q 350 696 301 696 m 165 783 q 151 822 158 799 q 143 869 143 844 q 164 941 143 921 q 219 961 185 961 l 588 961 q 604 923 599 946 q 610 875 610 900 q 590 803 610 824 q 535 783 569 783 l 165 783 z "},"Ă":{"ha":871,"x_min":32,"x_max":847,"o":"m 439 918 q 260 960 322 918 q 197 1065 197 1003 q 224 1133 197 1101 q 308 1165 251 1165 q 321 1165 315 1165 q 333 1164 326 1165 q 368 1113 340 1133 q 439 1092 396 1092 q 509 1113 482 1092 q 544 1164 536 1133 q 557 1165 551 1165 q 569 1165 563 1165 q 653 1133 626 1165 q 681 1065 681 1101 q 618 960 681 1003 q 439 918 556 918 m 269 817 q 341 843 293 831 q 438 856 389 856 q 560 835 507 856 q 629 772 614 815 q 683 604 654 700 q 742 406 713 508 q 799 205 771 304 q 847 29 826 106 q 797 -2 831 10 q 718 -14 764 -14 q 662 -8 685 -14 q 624 8 639 -3 q 601 38 610 19 q 585 79 592 56 l 560 175 l 308 175 q 286 89 297 133 q 264 3 275 44 q 223 -9 244 -4 q 171 -14 201 -14 q 66 10 100 -14 q 32 78 32 35 q 38 117 32 97 q 50 163 43 136 q 77 256 60 200 q 115 376 94 311 q 160 508 136 440 q 204 637 183 576 q 242 744 225 697 q 269 817 260 792 m 436 638 q 392 508 417 579 q 349 363 368 436 l 521 363 q 481 509 501 438 q 444 638 461 581 l 436 638 z "},"ă":{"ha":756,"x_min":39,"x_max":683,"o":"m 361 150 q 413 155 385 150 q 456 168 442 160 l 456 279 l 356 271 q 292 254 317 268 q 267 213 267 240 q 288 167 267 185 q 361 150 310 150 m 350 696 q 487 681 425 696 q 592 634 549 665 q 660 555 636 603 q 683 442 683 507 l 683 131 q 663 72 683 94 q 615 32 643 49 q 361 -22 525 -22 q 228 -8 288 -22 q 127 33 169 6 q 62 104 85 61 q 39 204 39 147 q 96 351 39 300 q 272 415 153 403 l 454 435 l 454 444 q 419 502 454 485 q 317 519 383 519 q 214 508 264 519 q 124 481 164 497 q 93 519 106 493 q 81 572 81 544 q 98 630 81 608 q 151 667 115 651 q 247 689 192 682 q 350 696 301 696 m 376 768 q 197 810 260 768 q 135 915 135 853 q 162 983 135 951 q 246 1015 189 1015 q 258 1015 253 1015 q 271 1014 264 1015 q 306 963 278 983 q 376 942 333 942 q 447 963 419 942 q 482 1014 474 983 q 494 1015 489 1015 q 507 1015 500 1015 q 591 983 564 1015 q 618 915 618 951 q 556 810 618 853 q 376 768 493 768 z "},"Ą":{"ha":871,"x_min":32,"x_max":863,"o":"m 269 817 q 341 843 293 831 q 438 856 389 856 q 560 835 507 856 q 629 772 614 815 q 683 604 654 700 q 742 406 713 508 q 799 205 771 304 q 847 29 826 106 q 796 -1 829 10 q 778 -25 785 -12 q 771 -60 771 -37 q 853 -119 771 -119 q 860 -146 857 -132 q 863 -178 863 -160 q 835 -249 863 -218 q 735 -281 807 -281 q 665 -270 697 -281 q 608 -239 632 -260 q 569 -189 583 -218 q 556 -122 556 -160 q 574 -44 556 -76 q 624 8 592 -11 q 600 38 608 19 q 585 79 592 56 l 560 175 l 308 175 q 286 89 297 133 q 264 3 275 44 q 223 -9 244 -4 q 171 -14 201 -14 q 66 10 100 -14 q 32 78 32 35 q 38 117 32 97 q 50 163 43 136 q 77 256 60 200 q 115 376 94 311 q 160 508 136 440 q 204 637 183 576 q 242 744 225 697 q 269 817 260 792 m 436 638 q 392 508 417 579 q 349 363 368 436 l 521 363 q 481 509 501 438 q 444 638 461 581 l 436 638 z "},"ą":{"ha":756,"x_min":39,"x_max":683,"o":"m 585 15 q 562 -15 571 3 q 553 -56 553 -33 q 574 -101 553 -83 q 635 -119 594 -119 q 642 -146 639 -132 q 644 -178 644 -160 q 617 -249 644 -218 q 517 -281 589 -281 q 447 -270 479 -281 q 390 -239 414 -260 q 351 -189 365 -218 q 338 -122 338 -160 q 371 -22 338 -62 l 361 -22 q 228 -8 288 -22 q 127 33 169 6 q 62 104 85 61 q 39 204 39 147 q 96 351 39 300 q 272 415 153 403 l 454 435 l 454 444 q 419 502 454 485 q 317 519 383 519 q 214 508 264 519 q 124 481 164 497 q 93 519 106 493 q 81 572 81 544 q 98 630 81 608 q 151 667 115 651 q 247 689 192 682 q 350 696 301 696 q 487 681 425 696 q 592 634 549 665 q 660 555 636 603 q 683 442 683 507 l 683 131 q 663 71 683 94 q 615 32 643 47 l 585 15 m 361 150 q 413 155 385 150 q 456 168 442 160 l 456 279 l 356 271 q 292 254 317 268 q 267 213 267 240 q 288 167 267 185 q 361 150 310 150 z "},"Ć":{"ha":793,"x_min":49,"x_max":754,"o":"m 519 672 q 356 607 413 672 q 299 422 299 542 q 362 236 299 301 q 532 171 425 171 q 628 186 589 171 q 704 221 668 201 q 741 174 728 201 q 754 111 754 147 q 691 15 754 54 q 499 -25 628 -25 q 324 1 406 -25 q 181 83 242 28 q 84 222 119 138 q 49 422 49 306 q 83 613 49 531 q 176 753 117 696 q 314 839 235 810 q 483 868 393 868 q 681 826 611 868 q 751 719 751 785 q 733 657 751 683 q 692 615 715 631 q 615 656 656 639 q 519 672 574 672 m 549 1182 q 646 1149 617 1176 q 675 1086 675 1122 q 652 1022 675 1046 q 581 979 629 999 l 390 904 q 326 938 350 913 q 301 993 301 963 q 312 1031 301 1013 q 344 1060 322 1049 l 549 1182 z "},"ć":{"ha":686,"x_min":43,"x_max":633,"o":"m 453 510 q 387 499 418 510 q 333 466 356 488 q 296 413 310 444 q 282 338 282 381 q 331 208 282 251 q 451 165 381 165 q 524 175 493 165 q 578 196 554 185 q 619 153 606 176 q 633 99 633 131 q 579 10 633 42 q 429 -21 525 -21 q 271 5 342 -21 q 149 77 200 31 q 71 189 99 124 q 43 333 43 254 q 73 494 43 425 q 154 607 103 563 q 273 674 206 651 q 415 696 340 696 q 569 660 515 696 q 624 567 624 624 q 611 517 624 540 q 582 478 599 494 q 525 499 558 489 q 453 510 492 510 m 465 1033 q 570 1006 538 1033 q 603 939 603 978 q 583 878 603 903 q 519 831 564 854 l 340 736 q 269 769 299 740 q 240 832 240 799 q 249 865 240 849 q 276 896 257 882 l 465 1033 z "},"Ĉ":{"ha":793,"x_min":49,"x_max":754,"o":"m 519 672 q 356 607 413 672 q 299 422 299 542 q 362 236 299 301 q 532 171 425 171 q 628 186 589 171 q 704 221 668 201 q 741 174 728 201 q 754 111 754 147 q 691 15 754 54 q 499 -25 628 -25 q 324 1 406 -25 q 181 83 242 28 q 84 222 119 138 q 49 422 49 306 q 83 613 49 531 q 176 753 117 696 q 314 839 235 810 q 483 868 393 868 q 681 826 611 868 q 751 719 751 785 q 733 657 751 683 q 692 615 715 631 q 615 656 656 639 q 519 672 574 672 m 465 1019 q 389 965 422 988 q 325 919 356 942 q 255 944 283 919 q 226 1004 226 968 q 240 1053 226 1032 q 290 1100 253 1074 l 340 1136 q 405 1173 375 1160 q 463 1186 435 1186 q 526 1174 500 1186 q 589 1129 553 1161 l 701 1031 q 681 953 701 983 q 618 924 661 924 q 592 926 604 924 q 567 936 581 929 q 536 956 553 943 q 497 990 519 969 l 465 1019 z "},"ĉ":{"ha":686,"x_min":43,"x_max":633,"o":"m 453 510 q 387 499 418 510 q 333 466 356 488 q 296 413 310 444 q 282 338 282 381 q 331 208 282 251 q 451 165 381 165 q 524 175 493 165 q 578 196 554 185 q 619 153 606 176 q 633 99 633 131 q 579 10 633 42 q 429 -21 525 -21 q 271 5 342 -21 q 149 77 200 31 q 71 189 99 124 q 43 333 43 254 q 73 494 43 425 q 154 607 103 563 q 273 674 206 651 q 415 696 340 696 q 569 660 515 696 q 624 567 624 624 q 611 517 624 540 q 582 478 599 494 q 525 499 558 489 q 453 510 492 510 m 381 864 q 307 799 333 824 q 254 750 281 774 q 168 776 200 750 q 136 842 136 801 q 151 892 136 869 q 203 940 167 914 l 271 989 q 331 1023 304 1013 q 386 1033 358 1033 q 419 1031 404 1033 q 449 1022 433 1029 q 482 999 464 1014 q 528 961 500 985 l 625 875 q 627 863 626 868 q 628 850 628 857 q 605 780 628 807 q 539 753 582 753 q 514 755 525 753 q 491 764 503 757 q 464 784 479 771 q 428 819 449 797 l 381 864 z "},"Ċ":{"ha":793,"x_min":49,"x_max":754,"o":"m 519 672 q 356 607 413 672 q 299 422 299 542 q 362 236 299 301 q 532 171 425 171 q 628 186 589 171 q 704 221 668 201 q 741 174 728 201 q 754 111 754 147 q 691 15 754 54 q 499 -25 628 -25 q 324 1 406 -25 q 181 83 242 28 q 84 222 119 138 q 49 422 49 306 q 83 613 49 531 q 176 753 117 696 q 314 839 235 810 q 483 868 393 868 q 681 826 611 868 q 751 719 751 785 q 733 657 751 683 q 692 615 715 631 q 615 656 656 639 q 519 672 574 672 m 346 1047 q 380 1133 346 1099 q 469 1168 414 1168 q 562 1133 528 1168 q 596 1047 596 1099 q 562 961 596 996 q 469 926 528 926 q 380 961 414 926 q 346 1047 346 996 z "},"ċ":{"ha":686,"x_min":43,"x_max":633,"o":"m 453 510 q 387 499 418 510 q 333 466 356 488 q 296 413 310 444 q 282 338 282 381 q 331 208 282 251 q 451 165 381 165 q 524 175 493 165 q 578 196 554 185 q 619 153 606 176 q 633 99 633 131 q 579 10 633 42 q 429 -21 525 -21 q 271 5 342 -21 q 149 77 200 31 q 71 189 99 124 q 43 333 43 254 q 73 494 43 425 q 154 607 103 563 q 273 674 206 651 q 415 696 340 696 q 569 660 515 696 q 624 567 624 624 q 611 517 624 540 q 582 478 599 494 q 525 499 558 489 q 453 510 492 510 m 261 869 q 295 956 261 921 q 385 990 329 990 q 477 956 443 990 q 511 869 511 921 q 477 783 511 818 q 385 749 443 749 q 295 783 329 749 q 261 869 261 818 z "},"Č":{"ha":793,"x_min":49,"x_max":754,"o":"m 519 672 q 356 607 413 672 q 299 422 299 542 q 362 236 299 301 q 532 171 425 171 q 628 186 589 171 q 704 221 668 201 q 741 174 728 201 q 754 111 754 147 q 691 15 754 54 q 499 -25 628 -25 q 324 1 406 -25 q 181 83 242 28 q 84 222 119 138 q 49 422 49 306 q 83 613 49 531 q 176 753 117 696 q 314 839 235 810 q 483 868 393 868 q 681 826 611 868 q 751 719 751 785 q 733 657 751 683 q 692 615 715 631 q 615 656 656 639 q 519 672 574 672 m 463 1081 l 594 1186 q 669 1162 640 1186 q 697 1101 697 1138 q 684 1054 697 1074 q 633 1006 671 1035 l 557 947 q 518 927 540 935 q 468 919 496 919 q 401 932 431 919 q 335 976 371 944 l 222 1075 q 242 1152 222 1122 q 306 1182 263 1182 q 358 1169 333 1182 q 426 1115 382 1157 l 463 1081 z "},"č":{"ha":686,"x_min":43,"x_max":633,"o":"m 453 510 q 387 499 418 510 q 333 466 356 488 q 296 413 310 444 q 282 338 282 381 q 331 208 282 251 q 451 165 381 165 q 524 175 493 165 q 578 196 554 185 q 619 153 606 176 q 633 99 633 131 q 579 10 633 42 q 429 -21 525 -21 q 271 5 342 -21 q 149 77 200 31 q 71 189 99 124 q 43 333 43 254 q 73 494 43 425 q 154 607 103 563 q 273 674 206 651 q 415 696 340 696 q 569 660 515 696 q 624 567 624 624 q 611 517 624 540 q 582 478 599 494 q 525 499 558 489 q 453 510 492 510 m 379 911 q 451 978 425 951 q 504 1028 478 1004 q 590 1002 558 1028 q 622 936 622 976 q 607 888 622 908 q 556 838 592 867 l 493 786 q 441 755 468 767 q 383 743 414 743 q 349 746 364 743 q 317 756 333 749 q 281 778 300 764 q 236 814 261 792 l 133 903 q 131 915 132 910 q 131 928 131 921 q 153 998 131 971 q 219 1025 176 1025 q 274 1010 251 1025 q 332 960 296 996 l 379 911 z "},"Ď":{"ha":915,"x_min":81,"x_max":867,"o":"m 400 -22 q 346 -21 376 -22 q 283 -15 315 -19 q 217 -5 250 -11 q 157 13 185 1 q 81 114 81 42 l 81 763 q 97 808 81 792 q 140 833 113 824 q 267 859 200 853 q 386 865 333 865 q 583 839 494 865 q 734 758 671 813 q 832 619 797 703 q 867 422 867 536 q 833 228 867 311 q 738 90 800 146 q 590 6 676 33 q 400 -22 504 -22 m 322 181 q 360 176 338 178 q 401 174 382 174 q 488 188 449 174 q 556 231 528 201 q 601 306 585 260 q 617 418 617 353 q 558 606 617 543 q 403 669 500 669 q 363 668 383 669 q 322 664 343 667 l 322 181 m 460 1081 l 592 1186 q 666 1162 638 1186 q 694 1101 694 1138 q 681 1054 694 1074 q 631 1006 668 1035 l 554 947 q 515 927 538 935 q 465 919 493 919 q 398 932 428 919 q 332 976 368 944 l 219 1075 q 240 1152 219 1122 q 303 1182 260 1182 q 355 1169 331 1182 q 424 1115 379 1157 l 460 1081 z "},"ď":{"ha":1125,"x_min":43,"x_max":1097,"o":"m 1025 586 q 989 551 1010 563 q 936 540 968 540 q 888 546 910 540 q 844 561 865 551 q 858 731 851 646 q 868 888 865 815 q 919 908 888 899 q 979 918 950 918 q 1023 914 1001 918 q 1061 899 1044 910 q 1088 872 1078 889 q 1097 829 1097 854 q 1092 768 1097 801 q 1076 701 1086 735 q 1052 638 1065 668 q 1025 586 1039 607 m 43 338 q 71 497 43 429 q 148 608 99 564 q 263 674 197 653 q 406 696 329 696 q 460 691 433 696 q 503 679 486 686 l 503 904 q 547 913 517 908 q 610 918 578 918 q 665 914 640 918 q 706 897 689 910 q 731 863 722 885 q 739 807 739 842 l 739 149 q 678 44 739 83 q 574 -2 638 18 q 426 -22 510 -22 q 265 3 336 -22 q 144 75 193 28 q 69 188 94 122 q 43 338 43 254 m 438 511 q 322 468 363 511 q 282 338 282 425 q 319 208 282 251 q 428 164 357 164 q 473 172 453 164 q 504 189 493 179 l 504 494 q 438 511 476 511 z "},"Đ":{"ha":974,"x_min":21,"x_max":925,"o":"m 458 -22 q 404 -21 435 -22 q 341 -15 374 -19 q 276 -5 308 -11 q 215 13 243 1 q 139 114 139 42 l 139 328 l 46 328 q 29 367 38 343 q 21 418 21 392 q 44 493 21 471 q 103 515 67 515 l 139 515 l 139 763 q 155 808 139 792 q 199 833 171 824 q 325 859 258 853 q 444 865 392 865 q 641 839 553 865 q 792 758 729 813 q 890 619 856 703 q 925 422 925 536 q 892 228 925 311 q 797 90 858 146 q 649 6 735 33 q 458 -22 563 -22 m 381 181 q 418 176 396 178 q 460 174 440 174 q 547 188 507 174 q 615 231 586 201 q 659 306 643 260 q 675 418 675 353 q 617 606 675 543 q 461 669 558 669 q 422 668 442 669 q 381 664 401 667 l 381 515 l 503 515 q 521 476 514 500 q 528 425 528 451 q 506 350 528 372 q 446 328 483 328 l 381 328 l 381 181 z "},"đ":{"ha":822,"x_min":43,"x_max":825,"o":"m 404 736 q 392 764 397 747 q 386 800 386 781 q 401 850 386 835 q 444 865 417 865 l 503 865 l 503 960 q 547 969 517 964 q 610 974 578 974 q 703 953 669 974 q 739 865 738 933 l 807 865 q 819 839 813 856 q 825 803 825 822 q 810 752 825 768 q 767 736 794 736 l 739 736 l 739 149 q 678 44 739 83 q 574 -2 638 18 q 426 -22 510 -22 q 265 2 336 -22 q 144 72 193 26 q 69 183 94 118 q 43 331 43 249 q 71 486 43 419 q 148 596 99 553 q 263 660 197 639 q 406 682 329 682 q 460 677 433 682 q 503 665 486 672 l 503 736 l 404 736 m 438 497 q 322 456 363 497 q 282 331 282 415 q 319 206 282 247 q 428 164 357 164 q 473 172 453 164 q 504 189 493 179 l 504 481 q 438 497 476 497 z "},"Ē":{"ha":751,"x_min":81,"x_max":699,"o":"m 81 713 q 115 807 81 772 q 210 842 150 842 l 668 842 q 685 801 678 826 q 693 749 693 776 q 670 674 693 696 q 610 651 647 651 l 317 651 l 317 522 l 629 522 q 647 483 639 507 q 654 431 654 458 q 632 356 654 378 q 572 333 610 333 l 317 333 l 317 188 l 674 188 q 691 147 683 172 q 699 94 699 122 q 676 19 699 42 q 615 -4 653 -4 l 210 -4 q 115 31 150 -4 q 81 125 81 65 l 81 713 m 206 964 q 191 1002 199 979 q 183 1050 183 1025 q 204 1122 183 1101 q 260 1142 225 1142 l 628 1142 q 644 1103 639 1126 q 650 1056 650 1081 q 630 984 650 1004 q 575 964 610 964 l 206 964 z "},"ē":{"ha":764,"x_min":43,"x_max":721,"o":"m 429 -22 q 277 1 347 -22 q 155 69 207 24 q 73 185 103 115 q 43 347 43 254 q 73 505 43 439 q 151 613 103 571 q 263 676 200 656 q 390 696 325 696 q 524 674 464 696 q 628 613 585 651 q 697 519 672 574 q 721 401 721 465 q 694 329 721 354 q 621 297 668 304 l 278 246 q 340 177 293 200 q 449 154 388 154 q 556 169 506 154 q 639 203 607 183 q 676 164 661 189 q 692 111 692 139 q 633 18 692 49 q 533 -14 589 -6 q 429 -22 478 -22 m 390 524 q 333 513 357 524 q 293 484 308 501 q 270 445 278 467 q 261 401 263 424 l 499 440 q 468 496 494 468 q 390 524 442 524 m 174 783 q 159 822 167 799 q 151 869 151 844 q 172 941 151 921 q 228 961 193 961 l 596 961 q 613 923 607 946 q 618 875 618 900 q 598 803 618 824 q 543 783 578 783 l 174 783 z "},"Ĕ":{"ha":751,"x_min":81,"x_max":699,"o":"m 81 713 q 115 807 81 772 q 210 842 150 842 l 668 842 q 685 801 678 826 q 693 749 693 776 q 670 674 693 696 q 610 651 647 651 l 317 651 l 317 522 l 629 522 q 647 483 639 507 q 654 431 654 458 q 632 356 654 378 q 572 333 610 333 l 317 333 l 317 188 l 674 188 q 691 147 683 172 q 699 94 699 122 q 676 19 699 42 q 615 -4 653 -4 l 210 -4 q 115 31 150 -4 q 81 125 81 65 l 81 713 m 372 949 q 193 991 256 949 q 131 1096 131 1033 q 158 1164 131 1132 q 242 1196 185 1196 q 254 1196 249 1196 q 267 1194 260 1196 q 301 1143 274 1164 q 372 1122 329 1122 q 442 1143 415 1122 q 478 1194 469 1164 q 490 1196 485 1196 q 503 1196 496 1196 q 587 1164 560 1196 q 614 1096 614 1132 q 551 991 614 1033 q 372 949 489 949 z "},"ĕ":{"ha":764,"x_min":43,"x_max":721,"o":"m 429 -22 q 277 1 347 -22 q 155 69 207 24 q 73 185 103 115 q 43 347 43 254 q 73 505 43 439 q 151 613 103 571 q 263 676 200 656 q 390 696 325 696 q 524 674 464 696 q 628 613 585 651 q 697 519 672 574 q 721 401 721 465 q 694 329 721 354 q 621 297 668 304 l 278 246 q 340 177 293 200 q 449 154 388 154 q 556 169 506 154 q 639 203 607 183 q 676 164 661 189 q 692 111 692 139 q 633 18 692 49 q 533 -14 589 -6 q 429 -22 478 -22 m 390 524 q 333 513 357 524 q 293 484 308 501 q 270 445 278 467 q 261 401 263 424 l 499 440 q 468 496 494 468 q 390 524 442 524 m 403 768 q 224 810 286 768 q 161 915 161 853 q 188 983 161 951 q 272 1015 215 1015 q 285 1015 279 1015 q 297 1014 290 1015 q 332 963 304 983 q 403 942 360 942 q 473 963 446 942 q 508 1014 500 983 q 521 1015 515 1015 q 533 1015 526 1015 q 617 983 590 1015 q 644 915 644 951 q 582 810 644 853 q 403 768 519 768 z "},"Ė":{"ha":751,"x_min":81,"x_max":699,"o":"m 81 713 q 115 807 81 772 q 210 842 150 842 l 668 842 q 685 801 678 826 q 693 749 693 776 q 670 674 693 696 q 610 651 647 651 l 317 651 l 317 522 l 629 522 q 647 483 639 507 q 654 431 654 458 q 632 356 654 378 q 572 333 610 333 l 317 333 l 317 188 l 674 188 q 691 147 683 172 q 699 94 699 122 q 676 19 699 42 q 615 -4 653 -4 l 210 -4 q 115 31 150 -4 q 81 125 81 65 l 81 713 m 243 1047 q 277 1133 243 1099 q 367 1168 311 1168 q 459 1133 425 1168 q 493 1047 493 1099 q 459 961 493 996 q 367 926 425 926 q 277 961 311 926 q 243 1047 243 996 z "},"ė":{"ha":764,"x_min":43,"x_max":721,"o":"m 429 -22 q 277 1 347 -22 q 155 69 207 24 q 73 185 103 115 q 43 347 43 254 q 73 505 43 439 q 151 613 103 571 q 263 676 200 656 q 390 696 325 696 q 524 674 464 696 q 628 613 585 651 q 697 519 672 574 q 721 401 721 465 q 694 329 721 354 q 621 297 668 304 l 278 246 q 340 177 293 200 q 449 154 388 154 q 556 169 506 154 q 639 203 607 183 q 676 164 661 189 q 692 111 692 139 q 633 18 692 49 q 533 -14 589 -6 q 429 -22 478 -22 m 390 524 q 333 513 357 524 q 293 484 308 501 q 270 445 278 467 q 261 401 263 424 l 499 440 q 468 496 494 468 q 390 524 442 524 m 258 869 q 292 956 258 921 q 382 990 326 990 q 474 956 440 990 q 508 869 508 921 q 474 783 508 818 q 382 749 440 749 q 292 783 326 749 q 258 869 258 818 z "},"Ę":{"ha":751,"x_min":81,"x_max":699,"o":"m 210 -4 q 115 31 150 -4 q 81 125 81 65 l 81 713 q 115 807 81 772 q 210 842 150 842 l 668 842 q 685 801 678 826 q 693 749 693 776 q 670 674 693 696 q 610 651 647 651 l 317 651 l 317 522 l 629 522 q 647 483 639 507 q 654 431 654 458 q 632 356 654 378 q 572 333 610 333 l 317 333 l 317 188 l 674 188 q 691 147 683 172 q 699 94 699 122 q 677 19 699 42 q 619 -4 656 -3 l 599 -4 q 583 -27 589 -15 q 576 -60 576 -39 q 658 -119 576 -119 q 665 -146 663 -132 q 668 -178 668 -160 q 640 -249 668 -218 q 540 -281 613 -281 q 470 -270 503 -281 q 413 -239 438 -260 q 375 -189 389 -218 q 361 -122 361 -160 q 377 -48 361 -76 q 413 -4 393 -19 l 210 -4 z "},"ę":{"ha":764,"x_min":43,"x_max":721,"o":"m 390 524 q 333 513 357 524 q 293 484 308 501 q 270 445 278 467 q 261 401 263 424 l 499 440 q 468 496 494 468 q 390 524 442 524 m 375 -19 q 242 14 303 -12 q 138 86 182 40 q 68 197 93 132 q 43 347 43 263 q 73 505 43 439 q 151 613 103 571 q 263 676 200 656 q 390 696 325 696 q 524 674 464 696 q 628 613 585 651 q 697 519 672 574 q 721 401 721 465 q 694 329 721 354 q 621 297 668 304 l 278 246 q 340 177 293 200 q 449 154 388 154 q 556 169 506 154 q 639 203 607 183 q 676 164 661 189 q 692 111 692 139 q 633 18 692 49 q 607 6 621 11 q 579 -1 593 1 q 561 -25 568 -12 q 554 -60 554 -37 q 636 -119 554 -119 q 643 -146 640 -132 q 646 -178 646 -160 q 618 -249 646 -218 q 518 -281 590 -281 q 448 -270 481 -281 q 391 -239 415 -260 q 353 -189 367 -218 q 339 -122 339 -160 q 375 -19 339 -60 z "},"Ě":{"ha":751,"x_min":81,"x_max":699,"o":"m 81 713 q 115 807 81 772 q 210 842 150 842 l 668 842 q 685 801 678 826 q 693 749 693 776 q 670 674 693 696 q 610 651 647 651 l 317 651 l 317 522 l 629 522 q 647 483 639 507 q 654 431 654 458 q 632 356 654 378 q 572 333 610 333 l 317 333 l 317 188 l 674 188 q 691 147 683 172 q 699 94 699 122 q 676 19 699 42 q 615 -4 653 -4 l 210 -4 q 115 31 150 -4 q 81 125 81 65 l 81 713 m 374 1081 l 506 1186 q 580 1162 551 1186 q 608 1101 608 1138 q 595 1054 608 1074 q 544 1006 582 1035 l 468 947 q 429 927 451 935 q 379 919 407 919 q 312 932 342 919 q 246 976 282 944 l 133 1075 q 153 1152 133 1122 q 217 1182 174 1182 q 269 1169 244 1182 q 338 1115 293 1157 l 374 1081 z "},"ě":{"ha":764,"x_min":43,"x_max":721,"o":"m 429 -22 q 277 1 347 -22 q 155 69 207 24 q 73 185 103 115 q 43 347 43 254 q 73 505 43 439 q 151 613 103 571 q 263 676 200 656 q 390 696 325 696 q 524 674 464 696 q 628 613 585 651 q 697 519 672 574 q 721 401 721 465 q 694 329 721 354 q 621 297 668 304 l 278 246 q 340 177 293 200 q 449 154 388 154 q 556 169 506 154 q 639 203 607 183 q 676 164 661 189 q 692 111 692 139 q 633 18 692 49 q 533 -14 589 -6 q 429 -22 478 -22 m 390 524 q 333 513 357 524 q 293 484 308 501 q 270 445 278 467 q 261 401 263 424 l 499 440 q 468 496 494 468 q 390 524 442 524 m 375 911 q 447 978 421 951 q 500 1028 474 1004 q 586 1002 554 1028 q 618 936 618 976 q 603 888 618 908 q 551 838 588 867 l 489 786 q 437 755 464 767 q 379 743 410 743 q 344 746 360 743 q 313 756 329 749 q 276 778 296 764 q 232 814 257 792 l 129 903 q 127 915 128 910 q 126 928 126 921 q 149 998 126 971 q 215 1025 172 1025 q 269 1010 247 1025 q 328 960 292 996 l 375 911 z "},"Ĝ":{"ha":922,"x_min":49,"x_max":853,"o":"m 853 138 q 838 74 853 94 q 789 33 822 53 q 740 12 769 22 q 676 -6 711 1 q 603 -18 642 -14 q 528 -22 565 -22 q 340 5 428 -22 q 188 87 253 32 q 86 224 124 142 q 49 414 49 306 q 90 613 49 528 q 198 753 131 697 q 352 838 265 810 q 531 865 439 865 q 740 823 663 865 q 817 713 817 781 q 799 650 817 676 q 757 608 781 624 q 670 649 722 629 q 553 669 618 669 q 367 603 436 669 q 299 418 299 536 q 317 308 299 354 q 368 231 336 261 q 442 187 400 201 q 531 172 483 172 q 585 178 561 172 q 621 190 608 183 l 621 321 l 472 321 q 456 361 464 336 q 449 414 449 386 q 472 486 449 464 q 531 508 494 508 l 765 508 q 830 485 807 508 q 853 421 853 463 l 853 138 m 496 1046 q 422 981 449 1006 q 369 932 396 956 q 283 958 315 932 q 251 1024 251 983 q 267 1074 251 1051 q 318 1122 282 1096 l 386 1171 q 447 1205 419 1194 q 501 1215 474 1215 q 534 1213 519 1215 q 564 1203 549 1211 q 597 1181 579 1196 q 643 1143 615 1167 l 740 1057 q 742 1044 742 1050 q 743 1032 743 1039 q 720 962 743 989 q 654 935 697 935 q 629 937 640 935 q 606 946 618 939 q 579 966 594 953 q 543 1001 564 979 l 496 1046 z "},"ĝ":{"ha":788,"x_min":42,"x_max":714,"o":"m 401 696 q 545 676 481 696 q 654 624 610 656 q 698 581 682 604 q 714 519 714 557 l 714 33 q 686 -94 714 -40 q 610 -183 658 -147 q 498 -235 563 -218 q 360 -251 433 -251 q 161 -217 233 -251 q 89 -107 89 -183 q 102 -51 89 -75 q 132 -14 115 -26 q 223 -51 172 -36 q 328 -67 274 -67 q 447 -42 403 -67 q 492 39 492 -17 l 492 61 q 353 36 435 36 q 234 55 290 36 q 135 113 178 74 q 67 215 93 153 q 42 364 42 278 q 69 511 42 449 q 144 615 96 574 q 258 676 192 656 q 401 696 324 696 m 488 494 q 459 506 478 500 q 413 511 440 511 q 310 473 344 511 q 276 364 276 435 q 310 248 276 283 q 397 213 344 213 q 488 239 454 213 l 488 494 m 403 864 q 329 799 356 824 q 276 750 303 774 q 190 776 222 750 q 158 842 158 801 q 174 892 158 869 q 225 940 189 914 l 293 989 q 353 1023 326 1013 q 408 1033 381 1033 q 441 1031 426 1033 q 471 1022 456 1029 q 504 999 486 1014 q 550 961 522 985 l 647 875 q 649 863 649 868 q 650 850 650 857 q 627 780 650 807 q 561 753 604 753 q 536 755 547 753 q 513 764 525 757 q 486 784 501 771 q 450 819 471 797 l 403 864 z "},"Ğ":{"ha":922,"x_min":49,"x_max":853,"o":"m 853 138 q 838 74 853 94 q 789 33 822 53 q 740 12 769 22 q 676 -6 711 1 q 603 -18 642 -14 q 528 -22 565 -22 q 340 5 428 -22 q 188 87 253 32 q 86 224 124 142 q 49 414 49 306 q 90 613 49 528 q 198 753 131 697 q 352 838 265 810 q 531 865 439 865 q 740 823 663 865 q 817 713 817 781 q 799 650 817 676 q 757 608 781 624 q 670 649 722 629 q 553 669 618 669 q 367 603 436 669 q 299 418 299 536 q 317 308 299 354 q 368 231 336 261 q 442 187 400 201 q 531 172 483 172 q 585 178 561 172 q 621 190 608 183 l 621 321 l 472 321 q 456 361 464 336 q 449 414 449 386 q 472 486 449 464 q 531 508 494 508 l 765 508 q 830 485 807 508 q 853 421 853 463 l 853 138 m 488 946 q 308 988 371 946 q 246 1093 246 1031 q 273 1161 246 1129 q 357 1193 300 1193 q 369 1193 364 1193 q 382 1192 375 1193 q 417 1140 389 1161 q 488 1119 444 1119 q 558 1140 531 1119 q 593 1192 585 1161 q 606 1193 600 1193 q 618 1193 611 1193 q 702 1161 675 1193 q 729 1093 729 1129 q 667 988 729 1031 q 488 946 604 946 z "},"ğ":{"ha":788,"x_min":42,"x_max":714,"o":"m 401 696 q 545 676 481 696 q 654 624 610 656 q 698 581 682 604 q 714 519 714 557 l 714 33 q 686 -94 714 -40 q 610 -183 658 -147 q 498 -235 563 -218 q 360 -251 433 -251 q 161 -217 233 -251 q 89 -107 89 -183 q 102 -51 89 -75 q 132 -14 115 -26 q 223 -51 172 -36 q 328 -67 274 -67 q 447 -42 403 -67 q 492 39 492 -17 l 492 61 q 353 36 435 36 q 234 55 290 36 q 135 113 178 74 q 67 215 93 153 q 42 364 42 278 q 69 511 42 449 q 144 615 96 574 q 258 676 192 656 q 401 696 324 696 m 488 494 q 459 506 478 500 q 413 511 440 511 q 310 473 344 511 q 276 364 276 435 q 310 248 276 283 q 397 213 344 213 q 488 239 454 213 l 488 494 m 392 768 q 213 810 275 768 q 150 915 150 853 q 177 983 150 951 q 261 1015 204 1015 q 274 1015 268 1015 q 286 1014 279 1015 q 321 963 293 983 q 392 942 349 942 q 462 963 435 942 q 497 1014 489 983 q 510 1015 504 1015 q 522 1015 515 1015 q 606 983 579 1015 q 633 915 633 951 q 571 810 633 853 q 392 768 508 768 z "},"Ġ":{"ha":922,"x_min":49,"x_max":853,"o":"m 853 138 q 838 74 853 94 q 789 33 822 53 q 740 12 769 22 q 676 -6 711 1 q 603 -18 642 -14 q 528 -22 565 -22 q 340 5 428 -22 q 188 87 253 32 q 86 224 124 142 q 49 414 49 306 q 90 613 49 528 q 198 753 131 697 q 352 838 265 810 q 531 865 439 865 q 740 823 663 865 q 817 713 817 781 q 799 650 817 676 q 757 608 781 624 q 670 649 722 629 q 553 669 618 669 q 367 603 436 669 q 299 418 299 536 q 317 308 299 354 q 368 231 336 261 q 442 187 400 201 q 531 172 483 172 q 585 178 561 172 q 621 190 608 183 l 621 321 l 472 321 q 456 361 464 336 q 449 414 449 386 q 472 486 449 464 q 531 508 494 508 l 765 508 q 830 485 807 508 q 853 421 853 463 l 853 138 m 388 1051 q 422 1138 388 1103 q 511 1172 456 1172 q 603 1138 569 1172 q 638 1051 638 1103 q 603 965 638 1000 q 511 931 569 931 q 422 965 456 931 q 388 1051 388 1000 z "},"ġ":{"ha":788,"x_min":42,"x_max":714,"o":"m 401 696 q 545 676 481 696 q 654 624 610 656 q 698 581 682 604 q 714 519 714 557 l 714 33 q 686 -94 714 -40 q 610 -183 658 -147 q 498 -235 563 -218 q 360 -251 433 -251 q 161 -217 233 -251 q 89 -107 89 -183 q 102 -51 89 -75 q 132 -14 115 -26 q 223 -51 172 -36 q 328 -67 274 -67 q 447 -42 403 -67 q 492 39 492 -17 l 492 61 q 353 36 435 36 q 234 55 290 36 q 135 113 178 74 q 67 215 93 153 q 42 364 42 278 q 69 511 42 449 q 144 615 96 574 q 258 676 192 656 q 401 696 324 696 m 488 494 q 459 506 478 500 q 413 511 440 511 q 310 473 344 511 q 276 364 276 435 q 310 248 276 283 q 397 213 344 213 q 488 239 454 213 l 488 494 m 267 869 q 301 956 267 921 q 390 990 335 990 q 483 956 449 990 q 517 869 517 921 q 483 783 517 818 q 390 749 449 749 q 301 783 335 749 q 267 869 267 818 z "},"Ģ":{"ha":922,"x_min":49,"x_max":853,"o":"m 853 138 q 838 74 853 94 q 789 33 822 53 q 740 12 769 22 q 676 -6 711 1 q 603 -18 642 -14 q 528 -22 565 -22 q 340 5 428 -22 q 188 87 253 32 q 86 224 124 142 q 49 414 49 306 q 90 613 49 528 q 198 753 131 697 q 352 838 265 810 q 531 865 439 865 q 740 823 663 865 q 817 713 817 781 q 799 650 817 676 q 757 608 781 624 q 670 649 722 629 q 553 669 618 669 q 367 603 436 669 q 299 418 299 536 q 317 308 299 354 q 368 231 336 261 q 442 187 400 201 q 531 172 483 172 q 585 178 561 172 q 621 190 608 183 l 621 321 l 472 321 q 456 361 464 336 q 449 414 449 386 q 472 486 449 464 q 531 508 494 508 l 765 508 q 830 485 807 508 q 853 421 853 463 l 853 138 m 533 -310 q 483 -345 510 -335 q 424 -356 456 -356 q 335 -324 371 -356 q 378 -210 364 -265 q 400 -101 393 -156 q 452 -81 422 -90 q 513 -72 482 -72 q 585 -89 557 -72 q 613 -144 613 -106 q 605 -184 613 -161 q 586 -230 597 -207 q 561 -274 575 -253 q 533 -310 547 -296 z "},"ģ":{"ha":788,"x_min":42,"x_max":714,"o":"m 347 996 q 446 1036 386 1036 q 499 1028 475 1036 q 544 1004 522 1019 q 499 890 515 944 q 478 782 483 835 q 431 761 458 771 q 371 751 403 751 q 297 766 328 751 q 267 817 267 781 q 274 860 267 836 q 292 910 281 885 q 317 957 303 935 q 347 996 332 979 m 401 696 q 545 676 481 696 q 654 624 610 656 q 698 581 682 604 q 714 519 714 557 l 714 33 q 686 -94 714 -40 q 610 -183 658 -147 q 498 -235 563 -218 q 360 -251 433 -251 q 161 -217 233 -251 q 89 -107 89 -183 q 102 -51 89 -75 q 132 -14 115 -26 q 223 -51 172 -36 q 328 -67 274 -67 q 447 -42 403 -67 q 492 39 492 -17 l 492 61 q 353 36 435 36 q 234 55 290 36 q 135 113 178 74 q 67 215 93 153 q 42 364 42 278 q 69 511 42 449 q 144 615 96 574 q 258 676 192 656 q 401 696 324 696 m 488 494 q 459 506 478 500 q 413 511 440 511 q 310 473 344 511 q 276 364 276 435 q 310 248 276 283 q 397 213 344 213 q 488 239 454 213 l 488 494 z "},"Ĥ":{"ha":893,"x_min":103,"x_max":856,"o":"m 856 6 q 808 -3 840 1 q 743 -7 775 -7 q 687 -2 711 -7 q 646 15 663 3 q 621 50 629 28 q 613 108 613 72 l 613 325 l 346 325 l 346 6 q 298 -3 331 1 q 233 -7 265 -7 q 177 -2 201 -7 q 136 15 153 3 q 111 50 119 28 q 103 108 103 72 l 103 842 q 151 849 118 844 q 215 854 185 854 q 272 849 247 854 q 313 832 296 844 q 338 797 329 819 q 346 739 346 775 l 346 517 l 613 517 l 613 842 q 661 849 628 844 q 725 854 694 854 q 781 849 757 854 q 822 832 806 844 q 847 797 839 819 q 856 739 856 775 l 856 6 m 474 1019 q 397 965 431 988 q 333 919 364 942 q 263 944 292 919 q 235 1004 235 968 q 248 1053 235 1032 q 299 1100 261 1074 l 349 1136 q 413 1173 383 1160 q 471 1186 443 1186 q 535 1174 508 1186 q 597 1129 561 1161 l 710 1031 q 690 953 710 983 q 626 924 669 924 q 601 926 613 924 q 575 936 589 929 q 544 956 561 943 q 506 990 528 969 l 474 1019 z "},"ĥ":{"ha":813,"x_min":-51,"x_max":739,"o":"m 739 1 q 695 -7 725 -3 q 633 -11 665 -11 q 578 -7 603 -11 q 538 10 554 -3 q 512 44 521 22 q 503 100 503 65 l 503 408 q 474 488 503 465 q 404 511 446 511 q 351 504 376 511 q 311 488 326 497 l 311 1 q 267 -7 297 -3 q 206 -11 238 -11 q 151 -7 175 -11 q 110 10 126 -3 q 84 44 93 22 q 75 100 75 65 l 75 906 q 120 913 90 908 q 181 918 150 918 q 235 914 211 918 q 276 897 260 910 q 302 863 293 885 q 311 807 311 842 l 311 671 q 366 687 329 678 q 447 696 403 696 q 662 627 585 696 q 739 422 739 558 l 739 1 m 188 1033 q 111 978 144 1001 q 47 933 78 956 q -23 958 6 933 q -51 1018 -51 982 q -38 1067 -51 1046 q 13 1114 -25 1088 l 63 1150 q 127 1187 97 1174 q 185 1200 157 1200 q 249 1188 222 1200 q 311 1143 275 1175 l 424 1044 q 403 967 424 997 q 340 938 383 938 q 315 940 326 938 q 289 950 303 943 q 258 970 275 957 q 219 1004 242 983 l 188 1033 z "},"Ħ":{"ha":974,"x_min":28,"x_max":946,"o":"m 864 6 q 816 -3 849 1 q 751 -7 783 -7 q 695 -2 719 -7 q 654 15 671 3 q 629 50 638 28 q 621 108 621 72 l 621 325 l 354 325 l 354 6 q 306 -3 339 1 q 242 -7 274 -7 q 185 -2 210 -7 q 144 15 161 3 q 119 50 128 28 q 111 108 111 72 l 111 600 l 46 600 q 33 628 39 611 q 28 664 28 644 q 43 714 28 699 q 86 729 58 729 l 111 729 l 111 842 q 160 849 126 844 q 224 854 193 854 q 280 849 256 854 q 321 832 304 844 q 346 797 338 819 q 354 739 354 775 l 354 729 l 621 729 l 621 842 q 669 849 636 844 q 733 854 703 854 q 790 849 765 854 q 831 832 814 844 q 856 797 847 819 q 864 739 864 775 l 864 729 l 928 729 q 940 703 933 719 q 946 667 946 686 q 931 616 946 632 q 888 600 915 600 l 864 600 l 864 6 m 621 517 l 621 600 l 354 600 l 354 517 l 621 517 z "},"ħ":{"ha":821,"x_min":0,"x_max":747,"o":"m 747 1 q 703 -7 733 -3 q 642 -11 674 -11 q 587 -7 611 -11 q 546 10 563 -3 q 520 44 529 22 q 511 100 511 65 l 511 408 q 483 488 511 465 q 413 511 454 511 q 360 504 385 511 q 319 488 335 497 l 319 1 q 276 -7 306 -3 q 214 -11 246 -11 q 159 -7 183 -11 q 118 10 135 -3 q 92 44 101 22 q 83 100 83 65 l 83 736 l 18 736 q 6 764 11 747 q 0 800 0 781 q 15 850 0 835 q 58 865 31 865 l 83 865 l 83 963 q 128 972 97 967 q 190 976 158 976 q 245 972 221 976 q 286 956 269 968 q 311 922 303 943 q 319 865 319 900 l 421 865 q 433 839 426 856 q 439 803 439 822 q 424 752 439 768 q 381 736 408 736 l 319 736 l 319 671 q 374 687 338 678 q 456 696 411 696 q 670 627 593 696 q 747 422 747 558 l 747 1 z "},"Ĩ":{"ha":424,"x_min":-61,"x_max":456,"o":"m 201 1150 q 243 1139 226 1143 q 271 1135 260 1135 q 318 1153 301 1135 q 342 1183 335 1171 q 423 1152 390 1183 q 456 1072 456 1121 q 417 981 456 1010 q 319 951 378 951 q 281 953 300 951 q 238 963 261 956 l 182 979 q 149 988 163 985 q 124 992 136 992 q 77 974 93 992 q 53 943 61 957 q -28 974 4 943 q -61 1054 -61 1006 q -49 1108 -61 1085 q -18 1146 -37 1131 q 26 1168 1 1161 q 75 1175 50 1175 q 119 1171 93 1175 q 201 1150 144 1167 m 333 6 q 285 -3 318 1 q 221 -7 253 -7 q 165 -2 189 -7 q 124 15 140 3 q 99 50 107 28 q 90 108 90 72 l 90 842 q 139 849 106 844 q 203 854 172 854 q 259 849 235 854 q 300 832 283 844 q 325 797 317 819 q 333 739 333 775 l 333 6 z "},"ĩ":{"ha":392,"x_min":-72,"x_max":444,"o":"m 314 1 q 269 -6 299 -1 q 208 -11 239 -11 q 153 -7 178 -11 q 113 10 129 -3 q 87 44 96 22 q 78 100 78 65 l 78 665 q 123 673 93 668 q 183 678 153 678 q 238 674 214 678 q 279 657 263 669 q 305 623 296 644 q 314 567 314 601 l 314 1 m 190 968 q 232 957 215 961 q 260 953 249 953 q 307 971 290 953 q 331 1001 324 989 q 412 970 379 1001 q 444 890 444 939 q 406 799 444 828 q 308 769 367 769 q 269 772 289 769 q 226 781 250 774 l 171 797 q 138 806 151 803 q 113 810 125 810 q 66 792 82 810 q 42 761 50 775 q -40 792 -7 761 q -72 872 -72 824 q -60 926 -72 903 q -29 964 -49 949 q 15 986 -10 979 q 64 993 39 993 q 108 989 82 993 q 190 968 133 985 z "},"Ī":{"ha":424,"x_min":-36,"x_max":431,"o":"m -14 961 q -28 999 -21 976 q -36 1047 -36 1022 q -15 1119 -36 1099 q 40 1139 6 1139 l 408 1139 q 425 1101 419 1124 q 431 1053 431 1078 q 410 981 431 1001 q 356 961 390 961 l -14 961 m 333 6 q 285 -3 318 1 q 221 -7 253 -7 q 165 -2 189 -7 q 124 15 140 3 q 99 50 107 28 q 90 108 90 72 l 90 842 q 139 849 106 844 q 203 854 172 854 q 259 849 235 854 q 300 832 283 844 q 325 797 317 819 q 333 739 333 775 l 333 6 z "},"ī":{"ha":392,"x_min":-37,"x_max":429,"o":"m 315 1 q 270 -6 300 -1 q 210 -11 240 -11 q 155 -7 179 -11 q 114 10 131 -3 q 88 44 97 22 q 79 100 79 65 l 79 665 q 124 673 94 668 q 185 678 154 678 q 240 674 215 678 q 281 657 264 669 q 306 623 297 644 q 315 567 315 601 l 315 1 m -15 783 q -30 822 -22 799 q -37 869 -37 844 q -17 941 -37 921 q 39 961 4 961 l 407 961 q 424 923 418 946 q 429 875 429 900 q 409 803 429 824 q 354 783 389 783 l -15 783 z "},"Į":{"ha":424,"x_min":88,"x_max":394,"o":"m 333 6 q 311 -24 319 -10 q 303 -60 303 -39 q 385 -119 303 -119 q 392 -146 389 -132 q 394 -178 394 -160 q 367 -249 394 -218 q 267 -281 339 -281 q 197 -270 229 -281 q 140 -239 164 -260 q 101 -189 115 -218 q 88 -122 88 -160 q 106 -45 88 -76 q 147 1 124 -14 q 105 36 119 13 q 90 108 90 60 l 90 842 q 139 849 106 844 q 203 854 172 854 q 259 849 235 854 q 300 832 283 844 q 325 797 317 819 q 333 739 333 775 l 333 6 z "},"į":{"ha":392,"x_min":67,"x_max":375,"o":"m 67 863 q 102 951 67 915 q 196 988 138 988 q 290 951 254 988 q 325 863 325 915 q 290 774 325 810 q 196 738 254 738 q 102 774 138 738 q 67 863 67 810 m 126 1 q 90 35 103 13 q 78 100 78 58 l 78 665 q 123 673 93 668 q 183 678 153 678 q 238 674 214 678 q 279 657 263 669 q 305 623 296 644 q 314 567 314 601 l 314 7 q 292 -23 300 -8 q 283 -58 283 -37 q 365 -118 283 -118 q 372 -144 369 -131 q 375 -176 375 -158 q 347 -248 375 -217 q 247 -279 319 -279 q 177 -269 210 -279 q 120 -237 144 -258 q 82 -187 96 -217 q 68 -121 68 -158 q 85 -44 68 -75 q 126 1 103 -14 z "},"İ":{"ha":424,"x_min":79,"x_max":333,"o":"m 79 1049 q 113 1135 79 1100 q 203 1169 147 1169 q 295 1135 261 1169 q 329 1049 329 1100 q 295 963 329 997 q 203 928 261 928 q 113 963 147 928 q 79 1049 79 997 m 333 6 q 285 -3 318 1 q 221 -7 253 -7 q 165 -2 189 -7 q 124 15 140 3 q 99 50 107 28 q 90 108 90 72 l 90 842 q 139 849 106 844 q 203 854 172 854 q 259 849 235 854 q 300 832 283 844 q 325 797 317 819 q 333 739 333 775 l 333 6 z "},"ı":{"ha":392,"x_min":78,"x_max":314,"o":"m 314 1 q 269 -6 299 -1 q 208 -11 239 -11 q 153 -7 178 -11 q 113 10 129 -3 q 87 44 96 22 q 78 100 78 65 l 78 665 q 123 673 93 668 q 183 678 153 678 q 238 674 214 678 q 279 657 263 669 q 305 623 296 644 q 314 567 314 601 l 314 1 z "},"Ĵ":{"ha":567,"x_min":29,"x_max":596,"o":"m 243 842 q 292 849 258 844 q 356 854 325 854 q 412 849 388 854 q 453 832 436 844 q 478 797 469 819 q 486 739 486 775 l 486 225 q 415 40 486 101 q 207 -22 344 -22 q 90 0 135 -22 q 44 42 58 15 q 29 101 29 68 q 37 150 29 129 q 56 183 44 171 q 101 176 82 178 q 142 174 119 174 q 219 201 196 174 q 243 281 243 228 l 243 842 m 349 1046 q 275 981 301 1006 q 222 932 249 956 q 136 958 168 932 q 104 1024 104 983 q 119 1074 104 1051 q 171 1122 135 1096 l 239 1171 q 299 1205 272 1194 q 354 1215 326 1215 q 387 1213 372 1215 q 417 1203 401 1211 q 450 1181 432 1196 q 496 1143 468 1167 l 593 1057 q 595 1044 594 1050 q 596 1032 596 1039 q 573 962 596 989 q 507 935 550 935 q 482 937 493 935 q 459 946 471 939 q 432 966 447 953 q 396 1001 417 979 l 349 1046 z "},"ĵ":{"ha":399,"x_min":-61,"x_max":431,"o":"m 26 -94 q 71 -41 57 -75 q 85 35 85 -7 l 85 665 q 130 673 100 668 q 190 678 160 678 q 245 674 221 678 q 286 657 269 669 q 312 623 303 644 q 321 567 321 601 l 321 13 q 307 -93 321 -46 q 267 -174 293 -140 q 205 -227 242 -208 q 122 -246 168 -246 q 26 -209 61 -246 q -10 -117 -8 -172 l 26 -94 m 183 864 q 110 799 136 824 q 57 750 83 774 q -29 776 3 750 q -61 842 -61 801 q -46 892 -61 869 q 6 940 -31 914 l 74 989 q 134 1023 107 1013 q 189 1033 161 1033 q 222 1031 207 1033 q 251 1022 236 1029 q 285 999 267 1014 q 331 961 303 985 l 428 875 q 430 863 429 868 q 431 850 431 857 q 408 780 431 807 q 342 753 385 753 q 317 755 328 753 q 294 764 306 757 q 267 784 282 771 q 231 819 251 797 l 183 864 z "},"Ķ":{"ha":844,"x_min":81,"x_max":817,"o":"m 325 313 l 325 6 q 276 -3 310 1 q 211 -7 243 -7 q 155 -2 179 -7 q 114 15 131 3 q 89 50 97 28 q 81 108 81 72 l 81 842 q 129 849 96 844 q 193 854 163 854 q 249 849 225 854 q 290 832 274 844 q 315 797 307 819 q 324 739 324 775 l 324 518 l 613 850 q 748 815 707 850 q 789 731 789 779 q 771 663 789 694 q 713 590 753 631 l 539 417 q 612 336 574 378 q 687 255 650 294 q 758 179 724 215 q 817 117 792 143 q 806 63 817 86 q 776 22 794 39 q 733 -3 757 6 q 683 -11 710 -11 q 590 17 626 -11 q 521 85 554 46 l 325 313 m 476 -310 q 426 -345 453 -335 q 367 -356 399 -356 q 278 -324 314 -356 q 322 -210 307 -265 q 343 -101 336 -156 q 395 -81 365 -90 q 456 -72 425 -72 q 528 -89 500 -72 q 556 -144 556 -106 q 548 -184 556 -161 q 529 -230 540 -207 q 504 -274 518 -253 q 476 -310 490 -296 z "},"ķ":{"ha":774,"x_min":75,"x_max":732,"o":"m 732 122 q 694 22 725 57 q 603 -12 663 -12 q 524 9 558 -12 q 449 82 489 31 l 311 254 l 311 1 q 266 -6 296 -1 q 206 -11 236 -11 q 151 -7 175 -11 q 110 10 126 -3 q 84 44 93 22 q 75 100 75 65 l 75 904 q 120 913 90 908 q 181 918 150 918 q 235 914 211 918 q 276 897 260 910 q 302 863 293 885 q 311 807 311 842 l 311 440 l 550 685 q 666 653 622 685 q 710 572 710 621 q 703 534 710 551 q 681 499 696 517 q 644 460 667 481 q 590 414 621 440 l 510 344 l 732 122 m 447 -310 q 397 -345 424 -335 q 338 -356 369 -356 q 249 -324 285 -356 q 292 -210 278 -265 q 314 -101 307 -156 q 366 -81 336 -90 q 426 -72 396 -72 q 499 -89 471 -72 q 526 -144 526 -106 q 519 -184 526 -161 q 500 -230 511 -207 q 475 -274 489 -253 q 447 -310 461 -296 z "},"ĸ":{"ha":774,"x_min":75,"x_max":732,"o":"m 732 122 q 694 22 725 57 q 603 -12 663 -12 q 524 10 558 -12 q 449 82 490 32 l 311 247 l 311 1 q 266 -6 296 -1 q 206 -11 236 -11 q 151 -7 175 -11 q 110 10 126 -3 q 84 44 93 22 q 75 100 75 65 l 75 664 q 120 673 90 668 q 181 678 150 678 q 235 674 211 678 q 276 657 260 669 q 302 623 293 644 q 311 567 311 601 l 311 433 l 550 685 q 666 653 622 685 q 710 572 710 621 q 702 534 710 551 q 680 499 694 517 q 642 461 665 482 q 590 413 619 440 l 510 338 l 732 122 z "},"Ĺ":{"ha":713,"x_min":90,"x_max":678,"o":"m 219 -4 q 125 31 160 -4 q 90 125 90 65 l 90 843 q 139 851 106 846 q 203 856 172 856 q 259 851 235 856 q 300 833 283 846 q 325 799 317 821 q 333 740 333 776 l 333 192 l 651 192 q 669 151 661 176 q 678 97 678 125 q 654 19 678 42 q 592 -4 631 -4 l 219 -4 m 339 1182 q 436 1149 407 1176 q 465 1086 465 1122 q 442 1022 465 1046 q 371 979 419 999 l 181 904 q 116 938 140 913 q 92 993 92 963 q 102 1031 92 1013 q 135 1060 113 1049 l 339 1182 z "},"ĺ":{"ha":389,"x_min":21,"x_max":394,"o":"m 313 1 q 267 -6 297 -1 q 207 -11 238 -11 q 152 -7 176 -11 q 111 10 128 -3 q 85 44 94 22 q 76 100 76 65 l 76 906 q 122 913 92 908 q 182 918 151 918 q 237 914 213 918 q 278 897 261 910 q 303 863 294 885 q 313 807 313 842 l 313 1 m 268 1238 q 365 1205 336 1232 q 394 1142 394 1178 q 372 1078 394 1101 q 300 1035 349 1054 l 110 960 q 45 993 69 968 q 21 1049 21 1018 q 31 1086 21 1068 q 64 1115 42 1104 l 268 1238 z "},"Ļ":{"ha":713,"x_min":90,"x_max":678,"o":"m 219 -4 q 125 31 160 -4 q 90 125 90 65 l 90 843 q 139 851 106 846 q 203 856 172 856 q 259 851 235 856 q 300 833 283 846 q 325 799 317 821 q 333 740 333 776 l 333 192 l 651 192 q 669 151 661 176 q 678 97 678 125 q 654 19 678 42 q 592 -4 631 -4 l 219 -4 m 413 -310 q 362 -345 389 -335 q 303 -356 335 -356 q 214 -324 250 -356 q 258 -210 243 -265 q 279 -101 272 -156 q 331 -81 301 -90 q 392 -72 361 -72 q 464 -89 436 -72 q 492 -144 492 -106 q 484 -184 492 -161 q 465 -230 476 -207 q 440 -274 454 -253 q 413 -310 426 -296 z "},"ļ":{"ha":389,"x_min":35,"x_max":313,"o":"m 313 1 q 267 -6 297 -1 q 207 -11 238 -11 q 152 -7 176 -11 q 111 10 128 -3 q 85 44 94 22 q 76 100 76 65 l 76 906 q 122 913 92 908 q 182 918 151 918 q 237 914 213 918 q 278 897 261 910 q 303 863 294 885 q 313 807 313 842 l 313 1 m 233 -310 q 183 -345 210 -335 q 124 -356 156 -356 q 35 -324 71 -356 q 78 -210 64 -265 q 100 -101 93 -156 q 152 -81 122 -90 q 213 -72 182 -72 q 285 -89 257 -72 q 313 -144 313 -106 q 305 -184 313 -161 q 286 -230 297 -207 q 261 -274 275 -253 q 233 -310 247 -296 z "},"Ľ":{"ha":713,"x_min":-28,"x_max":678,"o":"m 219 -4 q 125 31 160 -4 q 90 125 90 65 l 90 843 q 139 851 106 846 q 203 856 172 856 q 259 851 235 856 q 300 833 283 846 q 325 799 317 821 q 333 740 333 776 l 333 192 l 651 192 q 669 151 661 176 q 678 97 678 125 q 654 19 678 42 q 592 -4 631 -4 l 219 -4 m 213 1081 l 344 1186 q 419 1162 390 1186 q 447 1101 447 1138 q 434 1054 447 1074 q 383 1006 421 1035 l 307 947 q 268 927 290 935 q 218 919 246 919 q 151 932 181 919 q 85 976 121 944 l -28 1075 q -8 1152 -28 1122 q 56 1182 13 1182 q 108 1169 83 1182 q 176 1115 132 1157 l 213 1081 z "},"ľ":{"ha":700,"x_min":76,"x_max":672,"o":"m 600 586 q 564 551 585 563 q 511 540 543 540 q 463 546 485 540 q 419 561 440 551 q 433 731 426 646 q 443 888 440 815 q 494 908 463 899 q 554 918 525 918 q 598 914 576 918 q 636 899 619 910 q 663 872 653 889 q 672 829 672 854 q 667 768 672 801 q 651 701 661 735 q 627 638 640 668 q 600 586 614 607 m 313 1 q 267 -6 297 -1 q 207 -11 238 -11 q 152 -7 176 -11 q 111 10 128 -3 q 85 44 94 22 q 76 100 76 65 l 76 906 q 122 913 92 908 q 182 918 151 918 q 237 914 213 918 q 278 897 261 910 q 303 863 294 885 q 313 807 313 842 l 313 1 z "},"Ŀ":{"ha":732,"x_min":90,"x_max":697,"o":"m 219 -4 q 125 31 160 -4 q 90 125 90 65 l 90 843 q 139 851 106 846 q 203 856 172 856 q 259 851 235 856 q 300 833 283 846 q 325 799 317 821 q 333 740 333 776 l 333 192 l 651 192 q 669 151 661 176 q 678 97 678 125 q 654 19 678 42 q 592 -4 631 -4 l 219 -4 m 428 474 q 464 571 428 532 q 563 610 500 610 q 661 571 625 610 q 697 474 697 532 q 661 376 697 415 q 563 338 625 338 q 464 376 500 338 q 428 474 428 415 z "},"ŀ":{"ha":714,"x_min":76,"x_max":676,"o":"m 313 1 q 267 -6 297 -1 q 207 -11 238 -11 q 152 -7 176 -11 q 111 10 128 -3 q 85 44 94 22 q 76 100 76 65 l 76 906 q 122 913 92 908 q 182 918 151 918 q 237 914 213 918 q 278 897 261 910 q 303 863 294 885 q 313 807 313 842 l 313 1 m 407 474 q 443 571 407 532 q 542 610 479 610 q 640 571 604 610 q 676 474 676 532 q 640 376 676 415 q 542 338 604 338 q 443 376 479 338 q 407 474 407 415 z "},"Ł":{"ha":756,"x_min":14,"x_max":735,"o":"m 276 -4 q 182 31 217 -4 q 147 125 147 65 l 147 315 l 79 286 q 37 333 60 301 q 14 404 14 365 q 63 472 14 453 l 147 508 l 147 843 q 196 851 163 846 q 260 856 229 856 q 316 851 292 856 q 357 833 340 846 q 382 799 374 821 q 390 740 390 776 l 390 613 l 517 667 q 538 646 526 658 q 559 618 549 633 q 576 584 569 603 q 583 547 583 565 q 570 507 583 524 q 533 481 557 490 l 390 419 l 390 192 l 708 192 q 726 151 718 176 q 735 97 735 125 q 711 19 735 42 q 649 -4 688 -4 l 276 -4 z "},"ł":{"ha":542,"x_min":14,"x_max":528,"o":"m 390 1 q 345 -6 375 -1 q 285 -11 315 -11 q 230 -7 254 -11 q 189 10 206 -3 q 163 44 172 22 q 154 100 154 65 l 154 331 l 79 300 q 37 347 60 315 q 14 418 14 379 q 63 486 14 467 l 154 524 l 154 906 q 199 913 169 908 q 260 918 229 918 q 315 914 290 918 q 356 897 339 910 q 381 863 372 885 q 390 807 390 842 l 390 622 l 461 653 q 482 632 471 644 q 503 604 493 619 q 521 570 514 589 q 528 533 528 551 q 514 492 528 508 q 478 467 500 476 l 390 429 l 390 1 z "},"Ń":{"ha":924,"x_min":81,"x_max":843,"o":"m 843 29 q 787 -1 824 10 q 699 -11 750 -11 q 601 4 647 -11 q 526 78 556 19 l 389 358 q 351 440 368 401 q 315 528 335 478 l 307 526 q 313 374 313 451 q 314 221 314 296 l 314 6 q 267 -3 299 1 q 206 -7 236 -7 q 151 -3 175 -7 q 113 14 128 1 q 89 48 97 26 q 81 104 81 69 l 81 799 q 140 840 100 826 q 226 854 181 854 q 324 838 278 854 q 399 765 371 822 l 538 485 q 575 403 558 442 q 611 315 592 365 l 618 317 q 611 467 613 392 q 610 617 610 542 l 610 842 q 656 850 625 846 q 718 854 688 854 q 811 833 779 854 q 843 743 843 811 l 843 29 m 549 1182 q 646 1149 617 1176 q 675 1086 675 1122 q 652 1022 675 1046 q 581 979 629 999 l 390 904 q 326 938 350 913 q 301 993 301 963 q 312 1031 301 1013 q 344 1060 322 1049 l 549 1182 z "},"ń":{"ha":810,"x_min":72,"x_max":736,"o":"m 500 428 q 476 491 500 471 q 410 511 451 511 q 355 504 382 511 q 308 483 328 497 l 308 1 q 265 -7 294 -3 q 203 -11 235 -11 q 148 -7 172 -11 q 107 10 124 -3 q 81 44 90 22 q 72 100 72 65 l 72 517 q 88 578 72 554 q 132 621 104 601 q 251 675 179 654 q 410 696 322 696 q 651 627 567 696 q 736 436 736 558 l 736 1 q 692 -7 722 -3 q 631 -11 663 -11 q 576 -7 600 -11 q 535 10 551 -3 q 509 44 518 22 q 500 100 500 65 l 500 428 m 447 1033 q 552 1006 519 1033 q 585 939 585 978 q 565 878 585 903 q 501 831 546 854 l 322 736 q 251 769 281 740 q 222 832 222 799 q 231 865 222 849 q 258 896 239 882 l 447 1033 z "},"Ņ":{"ha":924,"x_min":81,"x_max":843,"o":"m 843 29 q 787 -1 824 10 q 699 -11 750 -11 q 601 4 647 -11 q 526 78 556 19 l 389 358 q 351 440 368 401 q 315 528 335 478 l 307 526 q 313 374 313 451 q 314 221 314 296 l 314 6 q 267 -3 299 1 q 206 -7 236 -7 q 151 -3 175 -7 q 113 14 128 1 q 89 48 97 26 q 81 104 81 69 l 81 799 q 140 840 100 826 q 226 854 181 854 q 324 838 278 854 q 399 765 371 822 l 538 485 q 575 403 558 442 q 611 315 592 365 l 618 317 q 611 467 613 392 q 610 617 610 542 l 610 842 q 656 850 625 846 q 718 854 688 854 q 811 833 779 854 q 843 743 843 811 l 843 29 m 504 -310 q 453 -345 481 -335 q 394 -356 426 -356 q 306 -324 342 -356 q 349 -210 335 -265 q 371 -101 364 -156 q 423 -81 393 -90 q 483 -72 453 -72 q 556 -89 528 -72 q 583 -144 583 -106 q 576 -184 583 -161 q 557 -230 568 -207 q 532 -274 546 -253 q 504 -310 518 -296 z "},"ņ":{"ha":810,"x_min":72,"x_max":736,"o":"m 500 428 q 476 491 500 471 q 410 511 451 511 q 355 504 382 511 q 308 483 328 497 l 308 1 q 265 -7 294 -3 q 203 -11 235 -11 q 148 -7 172 -11 q 107 10 124 -3 q 81 44 90 22 q 72 100 72 65 l 72 517 q 88 578 72 554 q 132 621 104 601 q 251 675 179 654 q 410 696 322 696 q 651 627 567 696 q 736 436 736 558 l 736 1 q 692 -7 722 -3 q 631 -11 663 -11 q 576 -7 600 -11 q 535 10 551 -3 q 509 44 518 22 q 500 100 500 65 l 500 428 m 442 -310 q 391 -345 418 -335 q 332 -356 364 -356 q 243 -324 279 -356 q 287 -210 272 -265 q 308 -101 301 -156 q 360 -81 331 -90 q 421 -72 390 -72 q 493 -89 465 -72 q 521 -144 521 -106 q 513 -184 521 -161 q 494 -230 506 -207 q 469 -274 483 -253 q 442 -310 456 -296 z "},"Ň":{"ha":924,"x_min":81,"x_max":843,"o":"m 843 29 q 787 -1 824 10 q 699 -11 750 -11 q 601 4 647 -11 q 526 78 556 19 l 389 358 q 351 440 368 401 q 315 528 335 478 l 307 526 q 313 374 313 451 q 314 221 314 296 l 314 6 q 267 -3 299 1 q 206 -7 236 -7 q 151 -3 175 -7 q 113 14 128 1 q 89 48 97 26 q 81 104 81 69 l 81 799 q 140 840 100 826 q 226 854 181 854 q 324 838 278 854 q 399 765 371 822 l 538 485 q 575 403 558 442 q 611 315 592 365 l 618 317 q 611 467 613 392 q 610 617 610 542 l 610 842 q 656 850 625 846 q 718 854 688 854 q 811 833 779 854 q 843 743 843 811 l 843 29 m 468 1081 l 600 1186 q 674 1162 646 1186 q 703 1101 703 1138 q 690 1054 703 1074 q 639 1006 676 1035 l 563 947 q 524 927 546 935 q 474 919 501 919 q 406 932 436 919 q 340 976 376 944 l 228 1075 q 248 1152 228 1122 q 311 1182 268 1182 q 363 1169 339 1182 q 432 1115 388 1157 l 468 1081 z "},"ň":{"ha":810,"x_min":72,"x_max":736,"o":"m 500 428 q 476 491 500 471 q 410 511 451 511 q 355 504 382 511 q 308 483 328 497 l 308 1 q 265 -7 294 -3 q 203 -11 235 -11 q 148 -7 172 -11 q 107 10 124 -3 q 81 44 90 22 q 72 100 72 65 l 72 517 q 88 578 72 554 q 132 621 104 601 q 251 675 179 654 q 410 696 322 696 q 651 627 567 696 q 736 436 736 558 l 736 1 q 692 -7 722 -3 q 631 -11 663 -11 q 576 -7 600 -11 q 535 10 551 -3 q 509 44 518 22 q 500 100 500 65 l 500 428 m 400 911 q 472 978 446 951 q 525 1028 499 1004 q 611 1002 579 1028 q 643 936 643 976 q 628 888 643 908 q 576 838 613 867 l 514 786 q 462 755 489 767 q 404 743 435 743 q 369 746 385 743 q 338 756 354 749 q 301 778 321 764 q 257 814 282 792 l 154 903 q 152 915 153 910 q 151 928 151 921 q 174 998 151 971 q 240 1025 197 1025 q 294 1010 272 1025 q 353 960 317 996 l 400 911 z "},"ŉ":{"ha":1032,"x_min":31,"x_max":958,"o":"m 722 428 q 698 491 722 471 q 632 511 674 511 q 577 504 604 511 q 531 483 550 497 l 531 1 q 487 -7 517 -3 q 425 -11 457 -11 q 370 -7 394 -11 q 329 10 346 -3 q 303 44 313 22 q 294 100 294 65 l 294 517 q 310 578 294 554 q 354 621 326 601 q 473 675 401 654 q 632 696 544 696 q 874 627 789 696 q 958 436 958 558 l 958 1 q 915 -7 944 -3 q 853 -11 885 -11 q 798 -7 822 -11 q 757 10 774 -3 q 731 44 740 22 q 722 100 722 65 l 722 428 m 211 586 q 175 551 196 563 q 122 540 154 540 q 74 546 96 540 q 31 561 51 551 q 44 731 38 646 q 54 888 51 815 q 105 908 74 899 q 165 918 136 918 q 209 914 188 918 q 247 899 231 910 q 274 872 264 889 q 283 829 283 854 q 278 768 283 801 q 262 701 272 735 q 238 638 251 668 q 211 586 225 607 z "},"Ō":{"ha":976,"x_min":49,"x_max":928,"o":"m 49 422 q 83 614 49 531 q 176 753 117 697 q 315 839 235 810 q 488 868 394 868 q 660 839 581 868 q 800 753 740 810 q 894 614 860 697 q 928 422 928 531 q 894 230 928 314 q 802 90 861 146 q 663 4 743 33 q 488 -25 582 -25 q 313 5 393 -25 q 174 92 232 35 q 82 232 115 149 q 49 422 49 315 m 299 422 q 350 233 299 296 q 488 171 401 171 q 626 233 575 171 q 678 422 678 296 q 627 610 678 547 q 489 672 576 672 q 351 610 403 672 q 299 422 299 549 m 268 963 q 253 1001 261 978 q 246 1049 246 1024 q 267 1120 246 1100 q 322 1140 288 1140 l 690 1140 q 707 1102 701 1125 q 713 1054 713 1079 q 692 983 713 1003 q 638 963 672 963 l 268 963 z "},"ō":{"ha":814,"x_min":43,"x_max":771,"o":"m 185 783 q 170 822 178 799 q 163 869 163 844 q 183 941 163 921 q 239 961 204 961 l 607 961 q 624 923 618 946 q 629 875 629 900 q 609 803 629 824 q 554 783 589 783 l 185 783 m 771 338 q 744 184 771 251 q 670 71 718 117 q 556 1 622 25 q 407 -22 489 -22 q 258 3 325 -22 q 144 74 192 28 q 69 188 96 121 q 43 338 43 254 q 69 486 43 419 q 144 599 96 553 q 258 671 192 646 q 407 696 325 696 q 556 670 489 696 q 670 598 622 644 q 744 485 718 551 q 771 338 771 418 m 285 338 q 317 208 285 253 q 408 163 350 163 q 498 208 467 163 q 529 338 529 254 q 497 466 529 421 q 407 511 465 511 q 317 466 349 511 q 285 338 285 421 z "},"Ő":{"ha":976,"x_min":49,"x_max":928,"o":"m 49 422 q 83 614 49 531 q 176 753 117 697 q 315 839 235 810 q 488 868 394 868 q 660 839 581 868 q 800 753 740 810 q 894 614 860 697 q 928 422 928 531 q 894 230 928 314 q 802 90 861 146 q 663 4 743 33 q 488 -25 582 -25 q 313 5 393 -25 q 174 92 232 35 q 82 232 115 149 q 49 422 49 315 m 299 422 q 350 233 299 296 q 488 171 401 171 q 626 233 575 171 q 678 422 678 296 q 627 610 678 547 q 489 672 576 672 q 351 610 403 672 q 299 422 299 549 m 321 1171 q 374 1175 346 1175 q 462 1151 426 1175 q 497 1086 497 1126 q 447 1000 497 1042 l 340 907 q 297 913 321 907 q 253 930 274 918 q 219 958 233 942 q 206 994 206 974 q 218 1032 206 1015 l 321 1171 m 635 1171 q 688 1175 660 1175 q 776 1151 740 1175 q 811 1086 811 1126 q 761 1000 811 1042 l 654 907 q 611 913 635 907 q 567 930 588 918 q 533 958 547 942 q 519 994 519 974 q 532 1032 519 1015 l 635 1171 z "},"ő":{"ha":814,"x_min":43,"x_max":771,"o":"m 588 1032 q 622 1040 604 1038 q 653 1042 640 1042 q 731 1021 701 1042 q 761 956 761 1000 q 747 902 761 928 q 711 854 733 876 l 592 735 q 549 740 572 735 q 505 758 525 746 q 471 785 485 769 q 457 822 457 801 q 469 860 457 843 l 588 1032 m 271 1032 q 306 1040 288 1038 q 336 1042 324 1042 q 415 1021 385 1042 q 444 956 444 1000 q 431 902 444 928 q 394 854 417 876 l 275 735 q 232 740 256 735 q 188 758 208 746 q 154 785 168 769 q 140 822 140 801 q 153 860 140 843 l 271 1032 m 771 338 q 744 184 771 251 q 670 71 718 117 q 556 1 622 25 q 407 -22 489 -22 q 258 3 325 -22 q 144 74 192 28 q 69 188 96 121 q 43 338 43 254 q 69 486 43 419 q 144 599 96 553 q 258 671 192 646 q 407 696 325 696 q 556 670 489 696 q 670 598 622 644 q 744 485 718 551 q 771 338 771 418 m 285 338 q 317 208 285 253 q 408 163 350 163 q 498 208 467 163 q 529 338 529 254 q 497 466 529 421 q 407 511 465 511 q 317 466 349 511 q 285 338 285 421 z "},"Œ":{"ha":1322,"x_min":51,"x_max":1269,"o":"m 51 422 q 85 614 51 531 q 177 753 118 697 q 316 839 236 810 q 488 868 396 868 q 600 853 546 868 q 699 806 654 838 q 794 842 732 842 l 1239 842 q 1256 801 1249 826 q 1264 749 1264 776 q 1241 674 1264 696 q 1181 651 1218 651 l 888 651 l 888 522 l 1200 522 q 1217 483 1210 507 q 1225 431 1225 458 q 1203 356 1225 378 q 1143 333 1181 333 l 888 333 l 888 188 l 1244 188 q 1262 147 1254 172 q 1269 94 1269 122 q 1247 19 1269 42 q 1186 -4 1224 -4 l 794 -4 q 697 33 732 -4 q 599 -10 653 6 q 488 -25 546 -25 q 313 5 393 -25 q 175 92 233 35 q 84 232 117 149 q 51 422 51 315 m 301 422 q 353 233 301 296 q 490 171 404 171 q 586 191 544 171 q 651 251 628 211 l 651 592 q 492 672 603 672 q 353 610 406 672 q 301 422 301 549 z "},"œ":{"ha":1244,"x_min":43,"x_max":1201,"o":"m 910 -22 q 763 3 831 -22 q 646 78 694 28 q 393 -22 554 -22 q 251 3 315 -22 q 140 74 186 28 q 69 188 94 121 q 43 338 43 254 q 69 486 43 419 q 140 599 94 553 q 251 671 186 646 q 393 696 315 696 q 531 671 468 696 q 638 600 593 646 q 744 672 683 649 q 871 696 806 696 q 1005 674 944 696 q 1109 613 1065 651 q 1177 519 1153 574 q 1201 401 1201 465 q 1175 329 1201 354 q 1101 297 1149 304 l 758 246 q 821 177 774 200 q 929 154 868 154 q 1037 169 986 154 q 1119 203 1088 183 q 1157 164 1142 189 q 1172 111 1172 139 q 1114 18 1172 49 q 1014 -14 1069 -6 q 910 -22 958 -22 m 285 338 q 317 208 285 253 q 408 163 350 163 q 498 208 467 163 q 529 338 529 254 q 497 466 529 421 q 407 511 465 511 q 317 466 349 511 q 285 338 285 421 m 871 524 q 813 513 838 524 q 774 484 789 501 q 751 445 758 467 q 742 401 743 424 l 979 440 q 949 496 975 468 q 871 524 922 524 z "},"Ŕ":{"ha":836,"x_min":81,"x_max":794,"o":"m 322 272 l 322 6 q 274 -3 307 1 q 210 -7 242 -7 q 153 -2 178 -7 q 113 15 129 3 q 89 50 97 28 q 81 108 81 72 l 81 763 q 97 808 81 792 q 140 833 113 824 q 250 858 188 850 q 383 865 313 865 q 672 785 575 865 q 769 567 769 704 q 725 419 769 481 q 619 325 681 358 q 718 197 669 257 q 794 89 767 138 q 744 15 781 40 q 661 -11 707 -11 q 608 -4 631 -11 q 569 15 586 3 q 539 46 553 28 q 513 85 525 64 l 396 272 l 322 272 m 493 1182 q 590 1149 561 1176 q 619 1086 619 1122 q 597 1022 619 1046 q 525 979 574 999 l 335 904 q 270 938 294 913 q 246 993 246 963 q 256 1031 246 1013 q 289 1060 267 1049 l 493 1182 m 410 457 q 493 484 463 457 q 524 564 524 511 q 490 644 524 617 q 382 671 456 671 q 349 669 361 671 q 321 665 336 668 l 321 457 l 410 457 z "},"ŕ":{"ha":571,"x_min":72,"x_max":546,"o":"m 308 1 q 265 -7 294 -3 q 203 -11 235 -11 q 148 -7 172 -11 q 107 10 124 -3 q 81 44 90 22 q 72 100 72 65 l 72 517 q 84 572 72 549 q 118 613 96 594 q 173 645 140 631 q 243 671 206 660 q 321 688 281 682 q 401 694 361 694 q 507 669 468 694 q 546 585 546 643 q 540 547 546 565 q 526 513 535 528 q 467 510 497 513 q 407 501 436 507 q 352 490 378 496 q 308 475 326 483 l 308 1 m 368 1033 q 473 1006 440 1033 q 506 939 506 978 q 486 878 506 903 q 422 831 467 854 l 243 736 q 172 769 201 740 q 143 832 143 799 q 151 865 143 849 q 179 896 160 882 l 368 1033 z "},"Ŗ":{"ha":836,"x_min":81,"x_max":794,"o":"m 322 272 l 322 6 q 274 -3 307 1 q 210 -7 242 -7 q 153 -2 178 -7 q 113 15 129 3 q 89 50 97 28 q 81 108 81 72 l 81 763 q 97 808 81 792 q 140 833 113 824 q 250 858 188 850 q 383 865 313 865 q 672 785 575 865 q 769 567 769 704 q 725 419 769 481 q 619 325 681 358 q 718 197 669 257 q 794 89 767 138 q 744 15 781 40 q 661 -11 707 -11 q 608 -4 631 -11 q 569 15 586 3 q 539 46 553 28 q 513 85 525 64 l 396 272 l 322 272 m 463 -310 q 412 -345 439 -335 q 353 -356 385 -356 q 264 -324 300 -356 q 308 -210 293 -265 q 329 -101 322 -156 q 381 -81 351 -90 q 442 -72 411 -72 q 514 -89 486 -72 q 542 -144 542 -106 q 534 -184 542 -161 q 515 -230 526 -207 q 490 -274 504 -253 q 463 -310 476 -296 m 410 457 q 493 484 463 457 q 524 564 524 511 q 490 644 524 617 q 382 671 456 671 q 349 669 361 671 q 321 665 336 668 l 321 457 l 410 457 z "},"ŗ":{"ha":604,"x_min":72,"x_max":579,"o":"m 342 1 q 298 -7 328 -3 q 236 -11 268 -11 q 181 -7 206 -11 q 140 10 157 -3 q 115 44 124 22 q 106 100 106 65 l 106 517 q 117 572 106 549 q 151 613 129 594 q 206 645 174 631 q 276 671 239 660 q 354 688 314 682 q 435 694 394 694 q 540 669 501 694 q 579 585 579 643 q 574 547 579 565 q 560 513 568 528 q 500 510 531 513 q 440 501 469 507 q 385 490 411 496 q 342 475 360 483 l 342 1 m 271 -310 q 220 -345 247 -335 q 161 -356 193 -356 q 72 -324 108 -356 q 116 -210 101 -265 q 138 -101 131 -156 q 190 -81 160 -90 q 250 -72 219 -72 q 322 -89 294 -72 q 350 -144 350 -106 q 342 -184 350 -161 q 324 -230 335 -207 q 299 -274 313 -253 q 271 -310 285 -296 z "},"Ř":{"ha":836,"x_min":81,"x_max":794,"o":"m 322 272 l 322 6 q 274 -3 307 1 q 210 -7 242 -7 q 153 -2 178 -7 q 113 15 129 3 q 89 50 97 28 q 81 108 81 72 l 81 763 q 97 808 81 792 q 140 833 113 824 q 250 858 188 850 q 383 865 313 865 q 672 785 575 865 q 769 567 769 704 q 725 419 769 481 q 619 325 681 358 q 718 197 669 257 q 794 89 767 138 q 744 15 781 40 q 661 -11 707 -11 q 608 -4 631 -11 q 569 15 586 3 q 539 46 553 28 q 513 85 525 64 l 396 272 l 322 272 m 422 1081 l 554 1186 q 628 1162 600 1186 q 657 1101 657 1138 q 644 1054 657 1074 q 593 1006 631 1035 l 517 947 q 478 927 500 935 q 428 919 456 919 q 360 932 390 919 q 294 976 331 944 l 182 1075 q 202 1152 182 1122 q 265 1182 222 1182 q 317 1169 293 1182 q 386 1115 342 1157 l 422 1081 m 410 457 q 493 484 463 457 q 524 564 524 511 q 490 644 524 617 q 382 671 456 671 q 349 669 361 671 q 321 665 336 668 l 321 457 l 410 457 z "},"ř":{"ha":594,"x_min":72,"x_max":569,"o":"m 308 1 q 265 -7 294 -3 q 203 -11 235 -11 q 148 -7 172 -11 q 107 10 124 -3 q 81 44 90 22 q 72 100 72 65 l 72 517 q 84 572 72 549 q 118 613 96 594 q 173 645 140 631 q 243 671 206 660 q 321 688 281 682 q 401 694 361 694 q 507 669 468 694 q 546 585 546 643 q 540 547 546 565 q 526 513 535 528 q 467 510 497 513 q 407 501 436 507 q 352 490 378 496 q 308 475 326 483 l 308 1 m 326 911 q 399 978 372 951 q 451 1028 425 1004 q 538 1002 506 1028 q 569 936 569 976 q 554 888 569 908 q 503 838 539 867 l 440 786 q 388 755 415 767 q 331 743 361 743 q 296 746 311 743 q 264 756 281 749 q 228 778 247 764 q 183 814 208 792 l 81 903 q 78 915 79 910 q 78 928 78 921 q 101 998 78 971 q 167 1025 124 1025 q 221 1010 199 1025 q 279 960 243 996 l 326 911 z "},"Ś":{"ha":765,"x_min":56,"x_max":724,"o":"m 329 335 q 218 377 268 356 q 132 429 168 399 q 76 502 96 460 q 56 606 56 544 q 147 794 56 724 q 401 865 238 865 q 513 857 461 865 q 601 831 564 849 q 658 787 638 814 q 679 724 679 760 q 663 662 679 688 q 622 618 646 636 q 540 652 592 638 q 428 667 489 667 q 336 649 365 667 q 307 606 307 632 q 325 572 307 585 q 379 547 343 558 l 453 524 q 653 417 583 482 q 724 242 724 353 q 631 51 724 124 q 357 -22 538 -22 q 238 -12 293 -22 q 142 19 183 -1 q 78 69 101 39 q 56 138 56 99 q 79 206 56 178 q 131 250 103 235 q 226 197 169 219 q 349 175 282 175 q 444 196 417 175 q 472 244 472 217 q 450 287 472 272 q 388 315 428 301 l 329 335 m 467 1182 q 564 1149 535 1176 q 593 1086 593 1122 q 570 1022 593 1046 q 499 979 547 999 l 308 904 q 244 938 268 913 q 219 993 219 963 q 230 1031 219 1013 q 263 1060 240 1049 l 467 1182 z "},"ś":{"ha":683,"x_min":56,"x_max":642,"o":"m 642 201 q 563 36 642 96 q 329 -24 483 -24 q 221 -15 271 -24 q 135 10 171 -7 q 80 54 100 28 q 60 117 60 81 q 74 173 60 150 q 107 211 88 196 q 199 172 147 189 q 319 154 251 154 q 385 167 363 154 q 408 200 408 179 q 392 231 408 219 q 336 249 375 242 l 294 257 q 115 331 174 281 q 56 476 56 382 q 78 569 56 528 q 140 639 100 611 q 237 682 181 667 q 361 697 293 697 q 458 690 413 697 q 536 667 503 682 q 589 627 569 651 q 608 569 608 603 q 597 515 608 538 q 567 476 585 492 q 533 491 556 483 q 485 505 511 499 q 431 515 458 511 q 382 519 404 519 q 311 509 336 519 q 286 476 286 499 q 300 451 286 461 q 353 433 314 442 l 396 424 q 585 340 529 393 q 642 201 642 286 m 429 1033 q 534 1006 501 1033 q 567 939 567 978 q 547 878 567 903 q 483 831 528 854 l 304 736 q 233 769 263 740 q 204 832 204 799 q 213 865 204 849 q 240 896 221 882 l 429 1033 z "},"Ŝ":{"ha":765,"x_min":56,"x_max":724,"o":"m 329 335 q 218 377 268 356 q 132 429 168 399 q 76 502 96 460 q 56 606 56 544 q 147 794 56 724 q 401 865 238 865 q 513 857 461 865 q 601 831 564 849 q 658 787 638 814 q 679 724 679 760 q 663 662 679 688 q 622 618 646 636 q 540 652 592 638 q 428 667 489 667 q 336 649 365 667 q 307 606 307 632 q 325 572 307 585 q 379 547 343 558 l 453 524 q 653 417 583 482 q 724 242 724 353 q 631 51 724 124 q 357 -22 538 -22 q 238 -12 293 -22 q 142 19 183 -1 q 78 69 101 39 q 56 138 56 99 q 79 206 56 178 q 131 250 103 235 q 226 197 169 219 q 349 175 282 175 q 444 196 417 175 q 472 244 472 217 q 450 287 472 272 q 388 315 428 301 l 329 335 m 388 1019 q 311 965 344 988 q 247 919 278 942 q 177 944 206 919 q 149 1004 149 968 q 162 1053 149 1032 q 213 1100 175 1074 l 263 1136 q 327 1173 297 1160 q 385 1186 357 1186 q 449 1174 422 1186 q 511 1129 475 1161 l 624 1031 q 603 953 624 983 q 540 924 583 924 q 515 926 526 924 q 489 936 503 929 q 458 956 475 943 q 419 990 442 969 l 388 1019 z "},"ŝ":{"ha":683,"x_min":56,"x_max":642,"o":"m 642 201 q 563 36 642 96 q 329 -24 483 -24 q 221 -15 271 -24 q 135 10 171 -7 q 80 54 100 28 q 60 117 60 81 q 74 173 60 150 q 107 211 88 196 q 199 172 147 189 q 319 154 251 154 q 385 167 363 154 q 408 200 408 179 q 392 231 408 219 q 336 249 375 242 l 294 257 q 115 331 174 281 q 56 476 56 382 q 78 569 56 528 q 140 639 100 611 q 237 682 181 667 q 361 697 293 697 q 458 690 413 697 q 536 667 503 682 q 589 627 569 651 q 608 569 608 603 q 597 515 608 538 q 567 476 585 492 q 533 491 556 483 q 485 505 511 499 q 431 515 458 511 q 382 519 404 519 q 311 509 336 519 q 286 476 286 499 q 300 451 286 461 q 353 433 314 442 l 396 424 q 585 340 529 393 q 642 201 642 286 m 335 864 q 261 799 288 824 q 208 750 235 774 q 122 776 154 750 q 90 842 90 801 q 106 892 90 869 q 157 940 121 914 l 225 989 q 285 1023 258 1013 q 340 1033 313 1033 q 373 1031 358 1033 q 403 1022 388 1029 q 436 999 418 1014 q 482 961 454 985 l 579 875 q 581 863 581 868 q 582 850 582 857 q 559 780 582 807 q 493 753 536 753 q 468 755 479 753 q 445 764 457 757 q 418 784 433 771 q 382 819 403 797 l 335 864 z "},"Ş":{"ha":765,"x_min":56,"x_max":724,"o":"m 478 -11 q 498 -55 488 -26 q 508 -121 508 -83 q 464 -240 508 -193 q 338 -287 419 -287 q 244 -258 279 -287 q 208 -175 208 -228 q 210 -151 208 -160 q 215 -133 213 -142 q 306 -65 306 -129 q 303 -44 306 -57 q 296 -19 301 -31 q 199 -3 243 -15 q 124 28 156 8 q 74 76 92 49 q 56 138 56 103 q 79 206 56 178 q 131 250 103 235 q 226 197 169 219 q 349 175 282 175 q 444 196 417 175 q 472 244 472 217 q 450 287 472 272 q 388 315 428 301 l 329 335 q 218 377 268 356 q 132 429 168 399 q 76 502 96 460 q 56 606 56 544 q 147 794 56 724 q 401 865 238 865 q 513 857 461 865 q 601 831 564 849 q 658 787 638 814 q 679 724 679 760 q 663 662 679 688 q 622 618 646 636 q 540 652 592 638 q 428 667 489 667 q 336 649 365 667 q 307 606 307 632 q 325 572 307 585 q 379 547 343 558 l 453 524 q 653 417 583 482 q 724 242 724 353 q 662 79 724 146 q 478 -11 600 13 z "},"ş":{"ha":683,"x_min":56,"x_max":642,"o":"m 458 -10 q 468 -33 464 -19 q 476 -62 472 -47 q 481 -93 479 -78 q 483 -121 483 -108 q 439 -238 483 -192 q 315 -285 394 -285 q 222 -256 258 -285 q 186 -175 186 -228 q 192 -133 186 -151 q 261 -112 236 -131 q 286 -61 286 -93 q 283 -39 286 -50 q 278 -21 281 -28 q 119 20 178 -14 q 60 117 60 54 q 74 173 60 150 q 107 211 88 196 q 199 172 147 189 q 319 154 251 154 q 385 167 363 154 q 408 200 408 179 q 392 231 408 219 q 336 249 375 242 l 294 257 q 115 331 174 281 q 56 476 56 382 q 78 569 56 528 q 140 639 100 611 q 237 682 181 667 q 361 697 293 697 q 458 690 413 697 q 536 667 503 682 q 589 627 569 651 q 608 569 608 603 q 597 515 608 538 q 567 476 585 492 q 533 491 556 483 q 485 505 511 499 q 431 515 458 511 q 382 519 404 519 q 311 509 336 519 q 286 476 286 499 q 300 451 286 461 q 353 433 314 442 l 396 424 q 585 340 529 393 q 642 201 642 286 q 592 63 642 115 q 458 -10 542 10 z "},"Š":{"ha":765,"x_min":56,"x_max":724,"o":"m 329 335 q 218 377 268 356 q 132 429 168 399 q 76 502 96 460 q 56 606 56 544 q 147 794 56 724 q 401 865 238 865 q 513 857 461 865 q 601 831 564 849 q 658 787 638 814 q 679 724 679 760 q 663 662 679 688 q 622 618 646 636 q 540 652 592 638 q 428 667 489 667 q 336 649 365 667 q 307 606 307 632 q 325 572 307 585 q 379 547 343 558 l 453 524 q 653 417 583 482 q 724 242 724 353 q 631 51 724 124 q 357 -22 538 -22 q 238 -12 293 -22 q 142 19 183 -1 q 78 69 101 39 q 56 138 56 99 q 79 206 56 178 q 131 250 103 235 q 226 197 169 219 q 349 175 282 175 q 444 196 417 175 q 472 244 472 217 q 450 287 472 272 q 388 315 428 301 l 329 335 m 379 1081 l 511 1186 q 585 1162 557 1186 q 614 1101 614 1138 q 601 1054 614 1074 q 550 1006 588 1035 l 474 947 q 435 927 457 935 q 385 919 413 919 q 317 932 347 919 q 251 976 288 944 l 139 1075 q 159 1152 139 1122 q 222 1182 179 1182 q 274 1169 250 1182 q 343 1115 299 1157 l 379 1081 z "},"š":{"ha":683,"x_min":56,"x_max":642,"o":"m 642 201 q 563 36 642 96 q 329 -24 483 -24 q 221 -15 271 -24 q 135 10 171 -7 q 80 54 100 28 q 60 117 60 81 q 74 173 60 150 q 107 211 88 196 q 199 172 147 189 q 319 154 251 154 q 385 167 363 154 q 408 200 408 179 q 392 231 408 219 q 336 249 375 242 l 294 257 q 115 331 174 281 q 56 476 56 382 q 78 569 56 528 q 140 639 100 611 q 237 682 181 667 q 361 697 293 697 q 458 690 413 697 q 536 667 503 682 q 589 627 569 651 q 608 569 608 603 q 597 515 608 538 q 567 476 585 492 q 533 491 556 483 q 485 505 511 499 q 431 515 458 511 q 382 519 404 519 q 311 509 336 519 q 286 476 286 499 q 300 451 286 461 q 353 433 314 442 l 396 424 q 585 340 529 393 q 642 201 642 286 m 333 911 q 406 978 379 951 q 458 1028 432 1004 q 544 1002 513 1028 q 576 936 576 976 q 561 888 576 908 q 510 838 546 867 l 447 786 q 395 755 422 767 q 338 743 368 743 q 303 746 318 743 q 271 756 288 749 q 235 778 254 764 q 190 814 215 792 l 88 903 q 85 915 86 910 q 85 928 85 921 q 108 998 85 971 q 174 1025 131 1025 q 228 1010 206 1025 q 286 960 250 996 l 333 911 z "},"Ţ":{"ha":772,"x_min":25,"x_max":744,"o":"m 51 647 q 33 689 42 663 q 25 744 25 715 q 49 822 25 799 q 113 846 74 846 l 718 846 q 736 804 728 831 q 744 749 744 778 q 720 671 744 694 q 657 647 696 647 l 503 647 l 503 6 q 455 -3 488 1 q 390 -7 422 -7 q 334 -2 358 -7 q 293 15 310 3 q 268 50 276 28 q 260 108 260 72 l 260 647 l 51 647 m 432 -310 q 381 -345 408 -335 q 322 -356 354 -356 q 233 -324 269 -356 q 277 -210 263 -265 q 299 -101 292 -156 q 351 -81 321 -90 q 411 -72 381 -72 q 483 -89 456 -72 q 511 -144 511 -106 q 503 -184 511 -161 q 485 -230 496 -207 q 460 -274 474 -253 q 432 -310 446 -296 z "},"ţ":{"ha":556,"x_min":75,"x_max":514,"o":"m 308 232 q 331 181 308 196 q 396 165 354 165 q 439 169 417 165 q 478 178 461 172 q 499 144 490 163 q 508 99 508 125 q 469 13 508 46 q 329 -21 429 -21 q 141 35 207 -21 q 75 215 75 90 l 75 810 q 119 819 90 814 q 179 824 147 824 q 274 802 240 824 q 308 711 308 781 l 308 622 l 490 622 q 506 584 499 607 q 514 533 514 561 q 492 463 514 485 q 435 442 471 442 l 308 442 l 308 232 m 325 -310 q 274 -345 301 -335 q 215 -356 247 -356 q 126 -324 163 -356 q 170 -210 156 -265 q 192 -101 185 -156 q 244 -81 214 -90 q 304 -72 274 -72 q 376 -89 349 -72 q 404 -144 404 -106 q 397 -184 404 -161 q 378 -230 389 -207 q 353 -274 367 -253 q 325 -310 339 -296 z "},"Ť":{"ha":772,"x_min":25,"x_max":744,"o":"m 51 647 q 33 689 42 663 q 25 744 25 715 q 49 822 25 799 q 113 846 74 846 l 718 846 q 736 804 728 831 q 744 749 744 778 q 720 671 744 694 q 657 647 696 647 l 503 647 l 503 6 q 455 -3 488 1 q 390 -7 422 -7 q 334 -2 358 -7 q 293 15 310 3 q 268 50 276 28 q 260 108 260 72 l 260 647 l 51 647 m 394 1081 l 526 1186 q 601 1162 572 1186 q 629 1101 629 1138 q 616 1054 629 1074 q 565 1006 603 1035 l 489 947 q 450 927 472 935 q 400 919 428 919 q 333 932 363 919 q 267 976 303 944 l 154 1075 q 174 1152 154 1122 q 238 1182 194 1182 q 290 1169 265 1182 q 358 1115 314 1157 l 394 1081 z "},"ť":{"ha":872,"x_min":75,"x_max":844,"o":"m 772 586 q 736 551 757 563 q 683 540 715 540 q 635 546 657 540 q 592 561 613 551 q 606 731 599 646 q 615 888 613 815 q 666 908 635 899 q 726 918 697 918 q 770 914 749 918 q 808 899 792 910 q 835 872 825 889 q 844 829 844 854 q 839 768 844 801 q 823 701 833 735 q 799 638 813 668 q 772 586 786 607 m 308 232 q 331 181 308 196 q 396 165 354 165 q 439 169 417 165 q 478 178 461 172 q 499 144 490 163 q 508 99 508 125 q 469 13 508 46 q 329 -21 429 -21 q 141 35 207 -21 q 75 215 75 90 l 75 810 q 119 819 90 814 q 179 824 147 824 q 274 802 240 824 q 308 711 308 781 l 308 622 l 490 622 q 506 584 499 607 q 514 533 514 561 q 492 463 514 485 q 435 442 471 442 l 308 442 l 308 232 z "},"Ũ":{"ha":922,"x_min":86,"x_max":836,"o":"m 836 311 q 810 174 836 236 q 736 69 785 113 q 618 1 688 25 q 461 -22 549 -22 q 304 1 374 -22 q 186 69 235 25 q 112 174 138 113 q 86 311 86 236 l 86 842 q 135 849 101 844 q 199 854 168 854 q 255 849 231 854 q 296 832 279 844 q 321 797 313 819 q 329 739 329 775 l 329 315 q 366 211 329 249 q 461 174 403 174 q 557 211 521 174 q 593 315 593 249 l 593 842 q 642 849 608 844 q 706 854 675 854 q 762 849 738 854 q 803 832 786 844 q 828 797 819 819 q 836 739 836 775 l 836 311 m 460 1150 q 501 1139 485 1143 q 529 1135 518 1135 q 576 1153 560 1135 q 600 1183 593 1171 q 681 1152 649 1183 q 714 1072 714 1121 q 675 981 714 1010 q 578 951 636 951 q 539 953 558 951 q 496 963 519 956 l 440 979 q 408 988 421 985 q 382 992 394 992 q 335 974 351 992 q 311 943 319 957 q 230 974 263 943 q 197 1054 197 1006 q 209 1108 197 1085 q 240 1146 221 1131 q 284 1168 260 1161 q 333 1175 308 1175 q 377 1171 351 1175 q 460 1150 403 1167 z "},"ũ":{"ha":808,"x_min":72,"x_max":736,"o":"m 72 665 q 116 674 86 669 q 178 678 146 678 q 233 674 208 678 q 274 657 257 669 q 299 623 290 644 q 308 567 308 601 l 308 268 q 336 187 308 211 q 417 163 364 163 q 469 168 449 163 q 500 179 489 174 l 500 665 q 544 674 514 669 q 606 678 574 678 q 660 674 636 678 q 701 657 685 669 q 727 623 718 644 q 736 567 736 601 l 736 144 q 678 40 736 75 q 562 -6 629 10 q 415 -22 494 -22 q 277 -6 340 -22 q 168 46 214 11 q 97 135 122 81 q 72 268 72 190 l 72 665 m 403 968 q 444 957 428 961 q 472 953 461 953 q 519 971 503 953 q 543 1001 536 989 q 624 970 592 1001 q 657 890 657 939 q 618 799 657 828 q 521 769 579 769 q 482 772 501 769 q 439 781 463 774 l 383 797 q 351 806 364 803 q 325 810 338 810 q 278 792 294 810 q 254 761 263 775 q 173 792 206 761 q 140 872 140 824 q 152 926 140 903 q 183 964 164 949 q 227 986 203 979 q 276 993 251 993 q 320 989 294 993 q 403 968 346 985 z "},"Ū":{"ha":922,"x_min":86,"x_max":836,"o":"m 836 311 q 810 174 836 236 q 736 69 785 113 q 618 1 688 25 q 461 -22 549 -22 q 304 1 374 -22 q 186 69 235 25 q 112 174 138 113 q 86 311 86 236 l 86 842 q 135 849 101 844 q 199 854 168 854 q 255 849 231 854 q 296 832 279 844 q 321 797 313 819 q 329 739 329 775 l 329 315 q 366 211 329 249 q 461 174 403 174 q 557 211 521 174 q 593 315 593 249 l 593 842 q 642 849 608 844 q 706 854 675 854 q 762 849 738 854 q 803 832 786 844 q 828 797 819 819 q 836 739 836 775 l 836 311 m 232 963 q 217 1001 225 978 q 210 1049 210 1024 q 231 1120 210 1100 q 286 1140 251 1140 l 654 1140 q 671 1102 665 1125 q 676 1054 676 1079 q 656 983 676 1003 q 601 963 636 963 l 232 963 z "},"ū":{"ha":808,"x_min":72,"x_max":736,"o":"m 72 665 q 116 674 86 669 q 178 678 146 678 q 233 674 208 678 q 274 657 257 669 q 299 623 290 644 q 308 567 308 601 l 308 268 q 336 187 308 211 q 417 163 364 163 q 469 168 449 163 q 500 179 489 174 l 500 665 q 544 674 514 669 q 606 678 574 678 q 660 674 636 678 q 701 657 685 669 q 727 623 718 644 q 736 567 736 601 l 736 144 q 678 40 736 75 q 562 -6 629 10 q 415 -22 494 -22 q 277 -6 340 -22 q 168 46 214 11 q 97 135 122 81 q 72 268 72 190 l 72 665 m 200 783 q 185 822 193 799 q 178 869 178 844 q 199 941 178 921 q 254 961 219 961 l 622 961 q 639 923 633 946 q 644 875 644 900 q 624 803 644 824 q 569 783 604 783 l 200 783 z "},"Ŭ":{"ha":922,"x_min":86,"x_max":836,"o":"m 836 311 q 810 174 836 236 q 736 69 785 113 q 618 1 688 25 q 461 -22 549 -22 q 304 1 374 -22 q 186 69 235 25 q 112 174 138 113 q 86 311 86 236 l 86 842 q 135 849 101 844 q 199 854 168 854 q 255 849 231 854 q 296 832 279 844 q 321 797 313 819 q 329 739 329 775 l 329 315 q 366 211 329 249 q 461 174 403 174 q 557 211 521 174 q 593 315 593 249 l 593 842 q 642 849 608 844 q 706 854 675 854 q 762 849 738 854 q 803 832 786 844 q 828 797 819 819 q 836 739 836 775 l 836 311 m 464 950 q 285 992 347 950 q 222 1097 222 1035 q 249 1165 222 1133 q 333 1197 276 1197 q 346 1197 340 1197 q 358 1196 351 1197 q 393 1144 365 1165 q 464 1124 421 1124 q 534 1144 507 1124 q 569 1196 561 1165 q 582 1197 576 1197 q 594 1197 588 1197 q 678 1165 651 1197 q 706 1097 706 1133 q 643 992 706 1035 q 464 950 581 950 z "},"ŭ":{"ha":808,"x_min":72,"x_max":736,"o":"m 72 665 q 116 674 86 669 q 178 678 146 678 q 233 674 208 678 q 274 657 257 669 q 299 623 290 644 q 308 567 308 601 l 308 268 q 336 187 308 211 q 417 163 364 163 q 469 168 449 163 q 500 179 489 174 l 500 665 q 544 674 514 669 q 606 678 574 678 q 660 674 636 678 q 701 657 685 669 q 727 623 718 644 q 736 567 736 601 l 736 144 q 678 40 736 75 q 562 -6 629 10 q 415 -22 494 -22 q 277 -6 340 -22 q 168 46 214 11 q 97 135 122 81 q 72 268 72 190 l 72 665 m 407 768 q 228 810 290 768 q 165 915 165 853 q 192 983 165 951 q 276 1015 219 1015 q 289 1015 283 1015 q 301 1014 294 1015 q 336 963 308 983 q 407 942 364 942 q 477 963 450 942 q 513 1014 504 983 q 525 1015 519 1015 q 538 1015 531 1015 q 622 983 594 1015 q 649 915 649 951 q 586 810 649 853 q 407 768 524 768 z "},"Ů":{"ha":922,"x_min":86,"x_max":836,"o":"m 836 311 q 810 174 836 236 q 736 69 785 113 q 618 1 688 25 q 461 -22 549 -22 q 304 1 374 -22 q 186 69 235 25 q 112 174 138 113 q 86 311 86 236 l 86 842 q 135 849 101 844 q 199 854 168 854 q 255 849 231 854 q 296 832 279 844 q 321 797 313 819 q 329 739 329 775 l 329 315 q 366 211 329 249 q 461 174 403 174 q 557 211 521 174 q 593 315 593 249 l 593 842 q 642 849 608 844 q 706 854 675 854 q 762 849 738 854 q 803 832 786 844 q 828 797 819 819 q 836 739 836 775 l 836 311 m 283 1047 q 333 1156 283 1113 q 467 1199 383 1199 q 606 1156 554 1199 q 657 1047 657 1113 q 606 940 657 982 q 467 897 554 897 q 333 940 383 897 q 283 1047 283 982 m 424 1047 q 437 1016 424 1028 q 468 1004 450 1004 q 502 1016 489 1004 q 515 1047 515 1028 q 502 1078 515 1067 q 468 1090 489 1090 q 437 1078 450 1090 q 424 1047 424 1067 z "},"ů":{"ha":808,"x_min":72,"x_max":736,"o":"m 72 665 q 116 674 86 669 q 178 678 146 678 q 233 674 208 678 q 274 657 257 669 q 299 623 290 644 q 308 567 308 601 l 308 268 q 336 187 308 211 q 417 163 364 163 q 469 168 449 163 q 500 179 489 174 l 500 665 q 544 674 514 669 q 606 678 574 678 q 660 674 636 678 q 701 657 685 669 q 727 623 718 644 q 736 567 736 601 l 736 144 q 678 40 736 75 q 562 -6 629 10 q 415 -22 494 -22 q 277 -6 340 -22 q 168 46 214 11 q 97 135 122 81 q 72 268 72 190 l 72 665 m 211 890 q 260 1001 211 956 q 394 1046 310 1046 q 535 1001 485 1046 q 585 890 585 956 q 535 781 585 825 q 394 736 485 736 q 260 781 310 736 q 211 890 211 825 m 351 890 q 365 856 351 868 q 396 843 378 843 q 430 856 417 843 q 443 890 443 868 q 430 925 443 913 q 396 938 417 938 q 365 925 378 938 q 351 890 351 913 z "},"Ű":{"ha":922,"x_min":86,"x_max":836,"o":"m 836 311 q 810 174 836 236 q 736 69 785 113 q 618 1 688 25 q 461 -22 549 -22 q 304 1 374 -22 q 186 69 235 25 q 112 174 138 113 q 86 311 86 236 l 86 842 q 135 849 101 844 q 199 854 168 854 q 255 849 231 854 q 296 832 279 844 q 321 797 313 819 q 329 739 329 775 l 329 315 q 366 211 329 249 q 461 174 403 174 q 557 211 521 174 q 593 315 593 249 l 593 842 q 642 849 608 844 q 706 854 675 854 q 762 849 738 854 q 803 832 786 844 q 828 797 819 819 q 836 739 836 775 l 836 311 m 297 1171 q 350 1175 322 1175 q 438 1151 403 1175 q 474 1086 474 1126 q 424 1000 474 1042 l 317 907 q 274 913 297 907 q 230 930 250 918 q 196 958 210 942 q 182 994 182 974 q 194 1032 182 1015 l 297 1171 m 611 1171 q 664 1175 636 1175 q 752 1151 717 1175 q 788 1086 788 1126 q 738 1000 788 1042 l 631 907 q 588 913 611 907 q 544 930 564 918 q 510 958 524 942 q 496 994 496 974 q 508 1032 496 1015 l 611 1171 z "},"ű":{"ha":826,"x_min":72,"x_max":754,"o":"m 72 665 q 116 674 86 669 q 178 678 146 678 q 233 674 208 678 q 274 657 257 669 q 299 623 290 644 q 308 567 308 601 l 308 268 q 336 187 308 211 q 417 163 364 163 q 469 168 449 163 q 500 179 489 174 l 500 665 q 544 674 514 669 q 606 678 574 678 q 660 674 636 678 q 701 657 685 669 q 727 623 718 644 q 736 567 736 601 l 736 144 q 678 40 736 75 q 562 -6 629 10 q 415 -22 494 -22 q 277 -6 340 -22 q 168 46 214 11 q 97 135 122 81 q 72 268 72 190 l 72 665 m 581 1032 q 615 1040 597 1038 q 646 1042 633 1042 q 724 1021 694 1042 q 754 956 754 1000 q 740 902 754 928 q 704 854 726 876 l 585 735 q 542 740 565 735 q 498 758 518 746 q 464 785 478 769 q 450 822 450 801 q 463 860 450 843 l 581 1032 m 264 1032 q 299 1040 281 1038 q 329 1042 317 1042 q 408 1021 378 1042 q 438 956 438 1000 q 424 902 438 928 q 388 854 410 876 l 268 735 q 225 740 249 735 q 181 758 201 746 q 147 785 161 769 q 133 822 133 801 q 146 860 133 843 l 264 1032 z "},"Ų":{"ha":922,"x_min":86,"x_max":836,"o":"m 356 -12 q 157 99 228 14 q 86 311 86 183 l 86 842 q 135 849 101 844 q 199 854 168 854 q 255 849 231 854 q 296 832 279 844 q 321 797 313 819 q 329 739 329 775 l 329 315 q 366 211 329 249 q 461 174 403 174 q 557 211 521 174 q 593 315 593 249 l 593 842 q 642 849 608 844 q 706 854 675 854 q 762 849 738 854 q 803 832 786 844 q 828 797 819 819 q 836 739 836 775 l 836 311 q 758 90 836 178 q 540 -15 681 3 q 528 -60 528 -32 q 610 -119 528 -119 q 617 -146 614 -132 q 619 -178 619 -160 q 592 -249 619 -218 q 492 -281 564 -281 q 422 -270 454 -281 q 365 -239 389 -260 q 326 -189 340 -218 q 313 -122 313 -160 q 326 -56 313 -82 q 356 -12 339 -29 z "},"ų":{"ha":808,"x_min":72,"x_max":736,"o":"m 647 24 q 623 -10 633 8 q 613 -54 613 -29 q 633 -101 613 -82 q 694 -119 654 -119 q 701 -146 699 -132 q 704 -178 704 -160 q 676 -249 704 -218 q 576 -281 649 -281 q 506 -270 539 -281 q 449 -239 474 -260 q 411 -189 425 -218 q 397 -122 397 -160 q 408 -62 397 -86 q 432 -22 418 -39 l 415 -22 q 277 -6 340 -22 q 168 46 214 11 q 97 135 122 81 q 72 268 72 190 l 72 665 q 116 674 86 669 q 178 678 146 678 q 233 674 208 678 q 274 657 257 669 q 299 623 290 644 q 308 567 308 601 l 308 268 q 336 187 308 211 q 417 163 364 163 q 469 168 449 163 q 500 179 489 174 l 500 665 q 544 674 514 669 q 606 678 574 678 q 660 674 636 678 q 701 657 685 669 q 727 623 718 644 q 736 567 736 601 l 736 144 q 715 74 736 101 q 647 24 693 46 z "},"Ŵ":{"ha":1229,"x_min":40,"x_max":1161,"o":"m 485 636 q 533 652 500 643 q 599 661 565 661 q 696 644 657 661 q 743 593 735 626 q 772 487 758 536 q 797 392 785 438 q 822 303 810 347 q 844 210 833 258 l 851 210 q 874 372 864 294 q 892 523 883 449 q 908 670 900 597 q 925 818 917 743 q 1035 847 976 847 q 1124 825 1086 847 q 1161 750 1161 803 q 1155 663 1161 719 q 1138 538 1149 607 q 1114 392 1128 468 q 1085 246 1100 315 q 1053 120 1069 176 q 1024 33 1038 64 q 956 1 1003 14 q 858 -11 908 -11 q 748 6 793 -11 q 693 56 703 24 q 654 188 675 111 q 610 356 633 264 q 569 179 590 265 q 532 33 549 93 q 469 1 511 14 q 378 -11 428 -11 q 265 6 315 -11 q 199 56 214 24 q 172 130 186 81 q 142 242 157 179 q 110 379 126 306 q 81 526 94 453 q 57 670 68 600 q 40 799 46 740 q 94 832 60 817 q 169 847 129 847 q 256 824 222 847 q 299 747 290 801 q 335 511 321 606 q 359 356 350 417 q 372 263 368 296 q 381 210 376 229 l 388 210 q 411 313 400 265 q 434 408 422 360 q 458 510 446 456 q 485 636 471 565 m 611 1046 q 538 981 564 1006 q 485 932 511 956 q 399 958 431 932 q 367 1024 367 983 q 382 1074 367 1051 q 433 1122 397 1096 l 501 1171 q 562 1205 535 1194 q 617 1215 589 1215 q 649 1213 635 1215 q 679 1203 664 1211 q 713 1181 694 1196 q 758 1143 731 1167 l 856 1057 q 858 1044 857 1050 q 858 1032 858 1039 q 835 962 858 989 q 769 935 813 935 q 744 937 756 935 q 722 946 733 939 q 694 966 710 953 q 658 1001 679 979 l 611 1046 z "}}}
